%TF.GenerationSoftware,KiCad,Pcbnew,8.0.8*%
%TF.CreationDate,2025-02-16T13:19:37-05:00*%
%TF.ProjectId,SI-P Pressure Transducer,53492d50-2050-4726-9573-737572652054,rev?*%
%TF.SameCoordinates,Original*%
%TF.FileFunction,Legend,Top*%
%TF.FilePolarity,Positive*%
%FSLAX46Y46*%
G04 Gerber Fmt 4.6, Leading zero omitted, Abs format (unit mm)*
G04 Created by KiCad (PCBNEW 8.0.8) date 2025-02-16 13:19:37*
%MOMM*%
%LPD*%
G01*
G04 APERTURE LIST*
%ADD10C,0.150000*%
%ADD11C,0.120000*%
G04 APERTURE END LIST*
D10*
X187626666Y-68794819D02*
X187626666Y-69509104D01*
X187626666Y-69509104D02*
X187579047Y-69651961D01*
X187579047Y-69651961D02*
X187483809Y-69747200D01*
X187483809Y-69747200D02*
X187340952Y-69794819D01*
X187340952Y-69794819D02*
X187245714Y-69794819D01*
X188579047Y-68794819D02*
X188102857Y-68794819D01*
X188102857Y-68794819D02*
X188055238Y-69271009D01*
X188055238Y-69271009D02*
X188102857Y-69223390D01*
X188102857Y-69223390D02*
X188198095Y-69175771D01*
X188198095Y-69175771D02*
X188436190Y-69175771D01*
X188436190Y-69175771D02*
X188531428Y-69223390D01*
X188531428Y-69223390D02*
X188579047Y-69271009D01*
X188579047Y-69271009D02*
X188626666Y-69366247D01*
X188626666Y-69366247D02*
X188626666Y-69604342D01*
X188626666Y-69604342D02*
X188579047Y-69699580D01*
X188579047Y-69699580D02*
X188531428Y-69747200D01*
X188531428Y-69747200D02*
X188436190Y-69794819D01*
X188436190Y-69794819D02*
X188198095Y-69794819D01*
X188198095Y-69794819D02*
X188102857Y-69747200D01*
X188102857Y-69747200D02*
X188055238Y-69699580D01*
X176544146Y-58484819D02*
X176544146Y-59199104D01*
X176544146Y-59199104D02*
X176496527Y-59341961D01*
X176496527Y-59341961D02*
X176401289Y-59437200D01*
X176401289Y-59437200D02*
X176258432Y-59484819D01*
X176258432Y-59484819D02*
X176163194Y-59484819D01*
X176972718Y-58580057D02*
X177020337Y-58532438D01*
X177020337Y-58532438D02*
X177115575Y-58484819D01*
X177115575Y-58484819D02*
X177353670Y-58484819D01*
X177353670Y-58484819D02*
X177448908Y-58532438D01*
X177448908Y-58532438D02*
X177496527Y-58580057D01*
X177496527Y-58580057D02*
X177544146Y-58675295D01*
X177544146Y-58675295D02*
X177544146Y-58770533D01*
X177544146Y-58770533D02*
X177496527Y-58913390D01*
X177496527Y-58913390D02*
X176925099Y-59484819D01*
X176925099Y-59484819D02*
X177544146Y-59484819D01*
X200089580Y-64166666D02*
X200137200Y-64214285D01*
X200137200Y-64214285D02*
X200184819Y-64357142D01*
X200184819Y-64357142D02*
X200184819Y-64452380D01*
X200184819Y-64452380D02*
X200137200Y-64595237D01*
X200137200Y-64595237D02*
X200041961Y-64690475D01*
X200041961Y-64690475D02*
X199946723Y-64738094D01*
X199946723Y-64738094D02*
X199756247Y-64785713D01*
X199756247Y-64785713D02*
X199613390Y-64785713D01*
X199613390Y-64785713D02*
X199422914Y-64738094D01*
X199422914Y-64738094D02*
X199327676Y-64690475D01*
X199327676Y-64690475D02*
X199232438Y-64595237D01*
X199232438Y-64595237D02*
X199184819Y-64452380D01*
X199184819Y-64452380D02*
X199184819Y-64357142D01*
X199184819Y-64357142D02*
X199232438Y-64214285D01*
X199232438Y-64214285D02*
X199280057Y-64166666D01*
X199184819Y-63833332D02*
X199184819Y-63214285D01*
X199184819Y-63214285D02*
X199565771Y-63547618D01*
X199565771Y-63547618D02*
X199565771Y-63404761D01*
X199565771Y-63404761D02*
X199613390Y-63309523D01*
X199613390Y-63309523D02*
X199661009Y-63261904D01*
X199661009Y-63261904D02*
X199756247Y-63214285D01*
X199756247Y-63214285D02*
X199994342Y-63214285D01*
X199994342Y-63214285D02*
X200089580Y-63261904D01*
X200089580Y-63261904D02*
X200137200Y-63309523D01*
X200137200Y-63309523D02*
X200184819Y-63404761D01*
X200184819Y-63404761D02*
X200184819Y-63690475D01*
X200184819Y-63690475D02*
X200137200Y-63785713D01*
X200137200Y-63785713D02*
X200089580Y-63833332D01*
X187877121Y-67823233D02*
X187543788Y-67347042D01*
X187305693Y-67823233D02*
X187305693Y-66823233D01*
X187305693Y-66823233D02*
X187686645Y-66823233D01*
X187686645Y-66823233D02*
X187781883Y-66870852D01*
X187781883Y-66870852D02*
X187829502Y-66918471D01*
X187829502Y-66918471D02*
X187877121Y-67013709D01*
X187877121Y-67013709D02*
X187877121Y-67156566D01*
X187877121Y-67156566D02*
X187829502Y-67251804D01*
X187829502Y-67251804D02*
X187781883Y-67299423D01*
X187781883Y-67299423D02*
X187686645Y-67347042D01*
X187686645Y-67347042D02*
X187305693Y-67347042D01*
X188258074Y-66918471D02*
X188305693Y-66870852D01*
X188305693Y-66870852D02*
X188400931Y-66823233D01*
X188400931Y-66823233D02*
X188639026Y-66823233D01*
X188639026Y-66823233D02*
X188734264Y-66870852D01*
X188734264Y-66870852D02*
X188781883Y-66918471D01*
X188781883Y-66918471D02*
X188829502Y-67013709D01*
X188829502Y-67013709D02*
X188829502Y-67108947D01*
X188829502Y-67108947D02*
X188781883Y-67251804D01*
X188781883Y-67251804D02*
X188210455Y-67823233D01*
X188210455Y-67823233D02*
X188829502Y-67823233D01*
X203061905Y-61024819D02*
X203061905Y-60024819D01*
X203061905Y-60024819D02*
X203300000Y-60024819D01*
X203300000Y-60024819D02*
X203442857Y-60072438D01*
X203442857Y-60072438D02*
X203538095Y-60167676D01*
X203538095Y-60167676D02*
X203585714Y-60262914D01*
X203585714Y-60262914D02*
X203633333Y-60453390D01*
X203633333Y-60453390D02*
X203633333Y-60596247D01*
X203633333Y-60596247D02*
X203585714Y-60786723D01*
X203585714Y-60786723D02*
X203538095Y-60881961D01*
X203538095Y-60881961D02*
X203442857Y-60977200D01*
X203442857Y-60977200D02*
X203300000Y-61024819D01*
X203300000Y-61024819D02*
X203061905Y-61024819D01*
X204490476Y-60358152D02*
X204490476Y-61024819D01*
X204252381Y-59977200D02*
X204014286Y-60691485D01*
X204014286Y-60691485D02*
X204633333Y-60691485D01*
X199733333Y-68184819D02*
X199400000Y-67708628D01*
X199161905Y-68184819D02*
X199161905Y-67184819D01*
X199161905Y-67184819D02*
X199542857Y-67184819D01*
X199542857Y-67184819D02*
X199638095Y-67232438D01*
X199638095Y-67232438D02*
X199685714Y-67280057D01*
X199685714Y-67280057D02*
X199733333Y-67375295D01*
X199733333Y-67375295D02*
X199733333Y-67518152D01*
X199733333Y-67518152D02*
X199685714Y-67613390D01*
X199685714Y-67613390D02*
X199638095Y-67661009D01*
X199638095Y-67661009D02*
X199542857Y-67708628D01*
X199542857Y-67708628D02*
X199161905Y-67708628D01*
X200066667Y-67184819D02*
X200685714Y-67184819D01*
X200685714Y-67184819D02*
X200352381Y-67565771D01*
X200352381Y-67565771D02*
X200495238Y-67565771D01*
X200495238Y-67565771D02*
X200590476Y-67613390D01*
X200590476Y-67613390D02*
X200638095Y-67661009D01*
X200638095Y-67661009D02*
X200685714Y-67756247D01*
X200685714Y-67756247D02*
X200685714Y-67994342D01*
X200685714Y-67994342D02*
X200638095Y-68089580D01*
X200638095Y-68089580D02*
X200590476Y-68137200D01*
X200590476Y-68137200D02*
X200495238Y-68184819D01*
X200495238Y-68184819D02*
X200209524Y-68184819D01*
X200209524Y-68184819D02*
X200114286Y-68137200D01*
X200114286Y-68137200D02*
X200066667Y-68089580D01*
X193525595Y-60879819D02*
X193525595Y-61689342D01*
X193525595Y-61689342D02*
X193573214Y-61784580D01*
X193573214Y-61784580D02*
X193620833Y-61832200D01*
X193620833Y-61832200D02*
X193716071Y-61879819D01*
X193716071Y-61879819D02*
X193906547Y-61879819D01*
X193906547Y-61879819D02*
X194001785Y-61832200D01*
X194001785Y-61832200D02*
X194049404Y-61784580D01*
X194049404Y-61784580D02*
X194097023Y-61689342D01*
X194097023Y-61689342D02*
X194097023Y-60879819D01*
X194525595Y-60975057D02*
X194573214Y-60927438D01*
X194573214Y-60927438D02*
X194668452Y-60879819D01*
X194668452Y-60879819D02*
X194906547Y-60879819D01*
X194906547Y-60879819D02*
X195001785Y-60927438D01*
X195001785Y-60927438D02*
X195049404Y-60975057D01*
X195049404Y-60975057D02*
X195097023Y-61070295D01*
X195097023Y-61070295D02*
X195097023Y-61165533D01*
X195097023Y-61165533D02*
X195049404Y-61308390D01*
X195049404Y-61308390D02*
X194477976Y-61879819D01*
X194477976Y-61879819D02*
X195097023Y-61879819D01*
X196733333Y-68189580D02*
X196685714Y-68237200D01*
X196685714Y-68237200D02*
X196542857Y-68284819D01*
X196542857Y-68284819D02*
X196447619Y-68284819D01*
X196447619Y-68284819D02*
X196304762Y-68237200D01*
X196304762Y-68237200D02*
X196209524Y-68141961D01*
X196209524Y-68141961D02*
X196161905Y-68046723D01*
X196161905Y-68046723D02*
X196114286Y-67856247D01*
X196114286Y-67856247D02*
X196114286Y-67713390D01*
X196114286Y-67713390D02*
X196161905Y-67522914D01*
X196161905Y-67522914D02*
X196209524Y-67427676D01*
X196209524Y-67427676D02*
X196304762Y-67332438D01*
X196304762Y-67332438D02*
X196447619Y-67284819D01*
X196447619Y-67284819D02*
X196542857Y-67284819D01*
X196542857Y-67284819D02*
X196685714Y-67332438D01*
X196685714Y-67332438D02*
X196733333Y-67380057D01*
X197590476Y-67618152D02*
X197590476Y-68284819D01*
X197352381Y-67237200D02*
X197114286Y-67951485D01*
X197114286Y-67951485D02*
X197733333Y-67951485D01*
X201589580Y-64141666D02*
X201637200Y-64189285D01*
X201637200Y-64189285D02*
X201684819Y-64332142D01*
X201684819Y-64332142D02*
X201684819Y-64427380D01*
X201684819Y-64427380D02*
X201637200Y-64570237D01*
X201637200Y-64570237D02*
X201541961Y-64665475D01*
X201541961Y-64665475D02*
X201446723Y-64713094D01*
X201446723Y-64713094D02*
X201256247Y-64760713D01*
X201256247Y-64760713D02*
X201113390Y-64760713D01*
X201113390Y-64760713D02*
X200922914Y-64713094D01*
X200922914Y-64713094D02*
X200827676Y-64665475D01*
X200827676Y-64665475D02*
X200732438Y-64570237D01*
X200732438Y-64570237D02*
X200684819Y-64427380D01*
X200684819Y-64427380D02*
X200684819Y-64332142D01*
X200684819Y-64332142D02*
X200732438Y-64189285D01*
X200732438Y-64189285D02*
X200780057Y-64141666D01*
X200684819Y-63236904D02*
X200684819Y-63713094D01*
X200684819Y-63713094D02*
X201161009Y-63760713D01*
X201161009Y-63760713D02*
X201113390Y-63713094D01*
X201113390Y-63713094D02*
X201065771Y-63617856D01*
X201065771Y-63617856D02*
X201065771Y-63379761D01*
X201065771Y-63379761D02*
X201113390Y-63284523D01*
X201113390Y-63284523D02*
X201161009Y-63236904D01*
X201161009Y-63236904D02*
X201256247Y-63189285D01*
X201256247Y-63189285D02*
X201494342Y-63189285D01*
X201494342Y-63189285D02*
X201589580Y-63236904D01*
X201589580Y-63236904D02*
X201637200Y-63284523D01*
X201637200Y-63284523D02*
X201684819Y-63379761D01*
X201684819Y-63379761D02*
X201684819Y-63617856D01*
X201684819Y-63617856D02*
X201637200Y-63713094D01*
X201637200Y-63713094D02*
X201589580Y-63760713D01*
X192761905Y-65824819D02*
X192761905Y-64824819D01*
X192761905Y-64824819D02*
X193000000Y-64824819D01*
X193000000Y-64824819D02*
X193142857Y-64872438D01*
X193142857Y-64872438D02*
X193238095Y-64967676D01*
X193238095Y-64967676D02*
X193285714Y-65062914D01*
X193285714Y-65062914D02*
X193333333Y-65253390D01*
X193333333Y-65253390D02*
X193333333Y-65396247D01*
X193333333Y-65396247D02*
X193285714Y-65586723D01*
X193285714Y-65586723D02*
X193238095Y-65681961D01*
X193238095Y-65681961D02*
X193142857Y-65777200D01*
X193142857Y-65777200D02*
X193000000Y-65824819D01*
X193000000Y-65824819D02*
X192761905Y-65824819D01*
X194285714Y-65824819D02*
X193714286Y-65824819D01*
X194000000Y-65824819D02*
X194000000Y-64824819D01*
X194000000Y-64824819D02*
X193904762Y-64967676D01*
X193904762Y-64967676D02*
X193809524Y-65062914D01*
X193809524Y-65062914D02*
X193714286Y-65110533D01*
X199033333Y-74929580D02*
X198985714Y-74977200D01*
X198985714Y-74977200D02*
X198842857Y-75024819D01*
X198842857Y-75024819D02*
X198747619Y-75024819D01*
X198747619Y-75024819D02*
X198604762Y-74977200D01*
X198604762Y-74977200D02*
X198509524Y-74881961D01*
X198509524Y-74881961D02*
X198461905Y-74786723D01*
X198461905Y-74786723D02*
X198414286Y-74596247D01*
X198414286Y-74596247D02*
X198414286Y-74453390D01*
X198414286Y-74453390D02*
X198461905Y-74262914D01*
X198461905Y-74262914D02*
X198509524Y-74167676D01*
X198509524Y-74167676D02*
X198604762Y-74072438D01*
X198604762Y-74072438D02*
X198747619Y-74024819D01*
X198747619Y-74024819D02*
X198842857Y-74024819D01*
X198842857Y-74024819D02*
X198985714Y-74072438D01*
X198985714Y-74072438D02*
X199033333Y-74120057D01*
X199985714Y-75024819D02*
X199414286Y-75024819D01*
X199700000Y-75024819D02*
X199700000Y-74024819D01*
X199700000Y-74024819D02*
X199604762Y-74167676D01*
X199604762Y-74167676D02*
X199509524Y-74262914D01*
X199509524Y-74262914D02*
X199414286Y-74310533D01*
X213851666Y-58984819D02*
X213851666Y-59699104D01*
X213851666Y-59699104D02*
X213804047Y-59841961D01*
X213804047Y-59841961D02*
X213708809Y-59937200D01*
X213708809Y-59937200D02*
X213565952Y-59984819D01*
X213565952Y-59984819D02*
X213470714Y-59984819D01*
X214851666Y-59984819D02*
X214280238Y-59984819D01*
X214565952Y-59984819D02*
X214565952Y-58984819D01*
X214565952Y-58984819D02*
X214470714Y-59127676D01*
X214470714Y-59127676D02*
X214375476Y-59222914D01*
X214375476Y-59222914D02*
X214280238Y-59270533D01*
X205124819Y-66166666D02*
X204648628Y-66499999D01*
X205124819Y-66738094D02*
X204124819Y-66738094D01*
X204124819Y-66738094D02*
X204124819Y-66357142D01*
X204124819Y-66357142D02*
X204172438Y-66261904D01*
X204172438Y-66261904D02*
X204220057Y-66214285D01*
X204220057Y-66214285D02*
X204315295Y-66166666D01*
X204315295Y-66166666D02*
X204458152Y-66166666D01*
X204458152Y-66166666D02*
X204553390Y-66214285D01*
X204553390Y-66214285D02*
X204601009Y-66261904D01*
X204601009Y-66261904D02*
X204648628Y-66357142D01*
X204648628Y-66357142D02*
X204648628Y-66738094D01*
X204124819Y-65309523D02*
X204124819Y-65499999D01*
X204124819Y-65499999D02*
X204172438Y-65595237D01*
X204172438Y-65595237D02*
X204220057Y-65642856D01*
X204220057Y-65642856D02*
X204362914Y-65738094D01*
X204362914Y-65738094D02*
X204553390Y-65785713D01*
X204553390Y-65785713D02*
X204934342Y-65785713D01*
X204934342Y-65785713D02*
X205029580Y-65738094D01*
X205029580Y-65738094D02*
X205077200Y-65690475D01*
X205077200Y-65690475D02*
X205124819Y-65595237D01*
X205124819Y-65595237D02*
X205124819Y-65404761D01*
X205124819Y-65404761D02*
X205077200Y-65309523D01*
X205077200Y-65309523D02*
X205029580Y-65261904D01*
X205029580Y-65261904D02*
X204934342Y-65214285D01*
X204934342Y-65214285D02*
X204696247Y-65214285D01*
X204696247Y-65214285D02*
X204601009Y-65261904D01*
X204601009Y-65261904D02*
X204553390Y-65309523D01*
X204553390Y-65309523D02*
X204505771Y-65404761D01*
X204505771Y-65404761D02*
X204505771Y-65595237D01*
X204505771Y-65595237D02*
X204553390Y-65690475D01*
X204553390Y-65690475D02*
X204601009Y-65738094D01*
X204601009Y-65738094D02*
X204696247Y-65785713D01*
X208089819Y-72073333D02*
X208804104Y-72073333D01*
X208804104Y-72073333D02*
X208946961Y-72120952D01*
X208946961Y-72120952D02*
X209042200Y-72216190D01*
X209042200Y-72216190D02*
X209089819Y-72359047D01*
X209089819Y-72359047D02*
X209089819Y-72454285D01*
X208423152Y-71168571D02*
X209089819Y-71168571D01*
X208042200Y-71406666D02*
X208756485Y-71644761D01*
X208756485Y-71644761D02*
X208756485Y-71025714D01*
X203633333Y-59424819D02*
X203300000Y-58948628D01*
X203061905Y-59424819D02*
X203061905Y-58424819D01*
X203061905Y-58424819D02*
X203442857Y-58424819D01*
X203442857Y-58424819D02*
X203538095Y-58472438D01*
X203538095Y-58472438D02*
X203585714Y-58520057D01*
X203585714Y-58520057D02*
X203633333Y-58615295D01*
X203633333Y-58615295D02*
X203633333Y-58758152D01*
X203633333Y-58758152D02*
X203585714Y-58853390D01*
X203585714Y-58853390D02*
X203538095Y-58901009D01*
X203538095Y-58901009D02*
X203442857Y-58948628D01*
X203442857Y-58948628D02*
X203061905Y-58948628D01*
X204204762Y-58853390D02*
X204109524Y-58805771D01*
X204109524Y-58805771D02*
X204061905Y-58758152D01*
X204061905Y-58758152D02*
X204014286Y-58662914D01*
X204014286Y-58662914D02*
X204014286Y-58615295D01*
X204014286Y-58615295D02*
X204061905Y-58520057D01*
X204061905Y-58520057D02*
X204109524Y-58472438D01*
X204109524Y-58472438D02*
X204204762Y-58424819D01*
X204204762Y-58424819D02*
X204395238Y-58424819D01*
X204395238Y-58424819D02*
X204490476Y-58472438D01*
X204490476Y-58472438D02*
X204538095Y-58520057D01*
X204538095Y-58520057D02*
X204585714Y-58615295D01*
X204585714Y-58615295D02*
X204585714Y-58662914D01*
X204585714Y-58662914D02*
X204538095Y-58758152D01*
X204538095Y-58758152D02*
X204490476Y-58805771D01*
X204490476Y-58805771D02*
X204395238Y-58853390D01*
X204395238Y-58853390D02*
X204204762Y-58853390D01*
X204204762Y-58853390D02*
X204109524Y-58901009D01*
X204109524Y-58901009D02*
X204061905Y-58948628D01*
X204061905Y-58948628D02*
X204014286Y-59043866D01*
X204014286Y-59043866D02*
X204014286Y-59234342D01*
X204014286Y-59234342D02*
X204061905Y-59329580D01*
X204061905Y-59329580D02*
X204109524Y-59377200D01*
X204109524Y-59377200D02*
X204204762Y-59424819D01*
X204204762Y-59424819D02*
X204395238Y-59424819D01*
X204395238Y-59424819D02*
X204490476Y-59377200D01*
X204490476Y-59377200D02*
X204538095Y-59329580D01*
X204538095Y-59329580D02*
X204585714Y-59234342D01*
X204585714Y-59234342D02*
X204585714Y-59043866D01*
X204585714Y-59043866D02*
X204538095Y-58948628D01*
X204538095Y-58948628D02*
X204490476Y-58901009D01*
X204490476Y-58901009D02*
X204395238Y-58853390D01*
X189333333Y-67684819D02*
X189000000Y-67208628D01*
X188761905Y-67684819D02*
X188761905Y-66684819D01*
X188761905Y-66684819D02*
X189142857Y-66684819D01*
X189142857Y-66684819D02*
X189238095Y-66732438D01*
X189238095Y-66732438D02*
X189285714Y-66780057D01*
X189285714Y-66780057D02*
X189333333Y-66875295D01*
X189333333Y-66875295D02*
X189333333Y-67018152D01*
X189333333Y-67018152D02*
X189285714Y-67113390D01*
X189285714Y-67113390D02*
X189238095Y-67161009D01*
X189238095Y-67161009D02*
X189142857Y-67208628D01*
X189142857Y-67208628D02*
X188761905Y-67208628D01*
X190285714Y-67684819D02*
X189714286Y-67684819D01*
X190000000Y-67684819D02*
X190000000Y-66684819D01*
X190000000Y-66684819D02*
X189904762Y-66827676D01*
X189904762Y-66827676D02*
X189809524Y-66922914D01*
X189809524Y-66922914D02*
X189714286Y-66970533D01*
X187604819Y-63466666D02*
X187604819Y-63942856D01*
X187604819Y-63942856D02*
X186604819Y-63942856D01*
X187604819Y-62609523D02*
X187604819Y-63180951D01*
X187604819Y-62895237D02*
X186604819Y-62895237D01*
X186604819Y-62895237D02*
X186747676Y-62990475D01*
X186747676Y-62990475D02*
X186842914Y-63085713D01*
X186842914Y-63085713D02*
X186890533Y-63180951D01*
X189229580Y-63666666D02*
X189277200Y-63714285D01*
X189277200Y-63714285D02*
X189324819Y-63857142D01*
X189324819Y-63857142D02*
X189324819Y-63952380D01*
X189324819Y-63952380D02*
X189277200Y-64095237D01*
X189277200Y-64095237D02*
X189181961Y-64190475D01*
X189181961Y-64190475D02*
X189086723Y-64238094D01*
X189086723Y-64238094D02*
X188896247Y-64285713D01*
X188896247Y-64285713D02*
X188753390Y-64285713D01*
X188753390Y-64285713D02*
X188562914Y-64238094D01*
X188562914Y-64238094D02*
X188467676Y-64190475D01*
X188467676Y-64190475D02*
X188372438Y-64095237D01*
X188372438Y-64095237D02*
X188324819Y-63952380D01*
X188324819Y-63952380D02*
X188324819Y-63857142D01*
X188324819Y-63857142D02*
X188372438Y-63714285D01*
X188372438Y-63714285D02*
X188420057Y-63666666D01*
X188420057Y-63285713D02*
X188372438Y-63238094D01*
X188372438Y-63238094D02*
X188324819Y-63142856D01*
X188324819Y-63142856D02*
X188324819Y-62904761D01*
X188324819Y-62904761D02*
X188372438Y-62809523D01*
X188372438Y-62809523D02*
X188420057Y-62761904D01*
X188420057Y-62761904D02*
X188515295Y-62714285D01*
X188515295Y-62714285D02*
X188610533Y-62714285D01*
X188610533Y-62714285D02*
X188753390Y-62761904D01*
X188753390Y-62761904D02*
X189324819Y-63333332D01*
X189324819Y-63333332D02*
X189324819Y-62714285D01*
X207984819Y-63066666D02*
X207508628Y-63399999D01*
X207984819Y-63638094D02*
X206984819Y-63638094D01*
X206984819Y-63638094D02*
X206984819Y-63257142D01*
X206984819Y-63257142D02*
X207032438Y-63161904D01*
X207032438Y-63161904D02*
X207080057Y-63114285D01*
X207080057Y-63114285D02*
X207175295Y-63066666D01*
X207175295Y-63066666D02*
X207318152Y-63066666D01*
X207318152Y-63066666D02*
X207413390Y-63114285D01*
X207413390Y-63114285D02*
X207461009Y-63161904D01*
X207461009Y-63161904D02*
X207508628Y-63257142D01*
X207508628Y-63257142D02*
X207508628Y-63638094D01*
X206984819Y-62733332D02*
X206984819Y-62066666D01*
X206984819Y-62066666D02*
X207984819Y-62495237D01*
X200433333Y-60524819D02*
X200100000Y-60048628D01*
X199861905Y-60524819D02*
X199861905Y-59524819D01*
X199861905Y-59524819D02*
X200242857Y-59524819D01*
X200242857Y-59524819D02*
X200338095Y-59572438D01*
X200338095Y-59572438D02*
X200385714Y-59620057D01*
X200385714Y-59620057D02*
X200433333Y-59715295D01*
X200433333Y-59715295D02*
X200433333Y-59858152D01*
X200433333Y-59858152D02*
X200385714Y-59953390D01*
X200385714Y-59953390D02*
X200338095Y-60001009D01*
X200338095Y-60001009D02*
X200242857Y-60048628D01*
X200242857Y-60048628D02*
X199861905Y-60048628D01*
X201290476Y-59858152D02*
X201290476Y-60524819D01*
X201052381Y-59477200D02*
X200814286Y-60191485D01*
X200814286Y-60191485D02*
X201433333Y-60191485D01*
X185208333Y-69384819D02*
X184875000Y-68908628D01*
X184636905Y-69384819D02*
X184636905Y-68384819D01*
X184636905Y-68384819D02*
X185017857Y-68384819D01*
X185017857Y-68384819D02*
X185113095Y-68432438D01*
X185113095Y-68432438D02*
X185160714Y-68480057D01*
X185160714Y-68480057D02*
X185208333Y-68575295D01*
X185208333Y-68575295D02*
X185208333Y-68718152D01*
X185208333Y-68718152D02*
X185160714Y-68813390D01*
X185160714Y-68813390D02*
X185113095Y-68861009D01*
X185113095Y-68861009D02*
X185017857Y-68908628D01*
X185017857Y-68908628D02*
X184636905Y-68908628D01*
X186113095Y-68384819D02*
X185636905Y-68384819D01*
X185636905Y-68384819D02*
X185589286Y-68861009D01*
X185589286Y-68861009D02*
X185636905Y-68813390D01*
X185636905Y-68813390D02*
X185732143Y-68765771D01*
X185732143Y-68765771D02*
X185970238Y-68765771D01*
X185970238Y-68765771D02*
X186065476Y-68813390D01*
X186065476Y-68813390D02*
X186113095Y-68861009D01*
X186113095Y-68861009D02*
X186160714Y-68956247D01*
X186160714Y-68956247D02*
X186160714Y-69194342D01*
X186160714Y-69194342D02*
X186113095Y-69289580D01*
X186113095Y-69289580D02*
X186065476Y-69337200D01*
X186065476Y-69337200D02*
X185970238Y-69384819D01*
X185970238Y-69384819D02*
X185732143Y-69384819D01*
X185732143Y-69384819D02*
X185636905Y-69337200D01*
X185636905Y-69337200D02*
X185589286Y-69289580D01*
X203049405Y-62824819D02*
X203049405Y-61824819D01*
X203049405Y-61824819D02*
X203287500Y-61824819D01*
X203287500Y-61824819D02*
X203430357Y-61872438D01*
X203430357Y-61872438D02*
X203525595Y-61967676D01*
X203525595Y-61967676D02*
X203573214Y-62062914D01*
X203573214Y-62062914D02*
X203620833Y-62253390D01*
X203620833Y-62253390D02*
X203620833Y-62396247D01*
X203620833Y-62396247D02*
X203573214Y-62586723D01*
X203573214Y-62586723D02*
X203525595Y-62681961D01*
X203525595Y-62681961D02*
X203430357Y-62777200D01*
X203430357Y-62777200D02*
X203287500Y-62824819D01*
X203287500Y-62824819D02*
X203049405Y-62824819D01*
X203954167Y-61824819D02*
X204573214Y-61824819D01*
X204573214Y-61824819D02*
X204239881Y-62205771D01*
X204239881Y-62205771D02*
X204382738Y-62205771D01*
X204382738Y-62205771D02*
X204477976Y-62253390D01*
X204477976Y-62253390D02*
X204525595Y-62301009D01*
X204525595Y-62301009D02*
X204573214Y-62396247D01*
X204573214Y-62396247D02*
X204573214Y-62634342D01*
X204573214Y-62634342D02*
X204525595Y-62729580D01*
X204525595Y-62729580D02*
X204477976Y-62777200D01*
X204477976Y-62777200D02*
X204382738Y-62824819D01*
X204382738Y-62824819D02*
X204097024Y-62824819D01*
X204097024Y-62824819D02*
X204001786Y-62777200D01*
X204001786Y-62777200D02*
X203954167Y-62729580D01*
X203061905Y-64624819D02*
X203061905Y-63624819D01*
X203061905Y-63624819D02*
X203300000Y-63624819D01*
X203300000Y-63624819D02*
X203442857Y-63672438D01*
X203442857Y-63672438D02*
X203538095Y-63767676D01*
X203538095Y-63767676D02*
X203585714Y-63862914D01*
X203585714Y-63862914D02*
X203633333Y-64053390D01*
X203633333Y-64053390D02*
X203633333Y-64196247D01*
X203633333Y-64196247D02*
X203585714Y-64386723D01*
X203585714Y-64386723D02*
X203538095Y-64481961D01*
X203538095Y-64481961D02*
X203442857Y-64577200D01*
X203442857Y-64577200D02*
X203300000Y-64624819D01*
X203300000Y-64624819D02*
X203061905Y-64624819D01*
X204014286Y-63720057D02*
X204061905Y-63672438D01*
X204061905Y-63672438D02*
X204157143Y-63624819D01*
X204157143Y-63624819D02*
X204395238Y-63624819D01*
X204395238Y-63624819D02*
X204490476Y-63672438D01*
X204490476Y-63672438D02*
X204538095Y-63720057D01*
X204538095Y-63720057D02*
X204585714Y-63815295D01*
X204585714Y-63815295D02*
X204585714Y-63910533D01*
X204585714Y-63910533D02*
X204538095Y-64053390D01*
X204538095Y-64053390D02*
X203966667Y-64624819D01*
X203966667Y-64624819D02*
X204585714Y-64624819D01*
X193374819Y-72261904D02*
X194184342Y-72261904D01*
X194184342Y-72261904D02*
X194279580Y-72214285D01*
X194279580Y-72214285D02*
X194327200Y-72166666D01*
X194327200Y-72166666D02*
X194374819Y-72071428D01*
X194374819Y-72071428D02*
X194374819Y-71880952D01*
X194374819Y-71880952D02*
X194327200Y-71785714D01*
X194327200Y-71785714D02*
X194279580Y-71738095D01*
X194279580Y-71738095D02*
X194184342Y-71690476D01*
X194184342Y-71690476D02*
X193374819Y-71690476D01*
X194374819Y-70690476D02*
X194374819Y-71261904D01*
X194374819Y-70976190D02*
X193374819Y-70976190D01*
X193374819Y-70976190D02*
X193517676Y-71071428D01*
X193517676Y-71071428D02*
X193612914Y-71166666D01*
X193612914Y-71166666D02*
X193660533Y-71261904D01*
D11*
%TO.C,J5*%
X183620000Y-76160000D02*
X183620000Y-76900000D01*
X183620000Y-76900000D02*
X184120000Y-76900000D01*
X183860000Y-70340000D02*
X183860000Y-76660000D01*
X183860000Y-70340000D02*
X192060000Y-70340000D01*
X183860000Y-70800000D02*
X192060000Y-70800000D01*
X183860000Y-76100000D02*
X184630000Y-76100000D01*
X183860000Y-76660000D02*
X184630000Y-76660000D01*
X186210000Y-76100000D02*
X187170000Y-76100000D01*
X186210000Y-76660000D02*
X187170000Y-76660000D01*
X188750000Y-76100000D02*
X189710000Y-76100000D01*
X188750000Y-76660000D02*
X189710000Y-76660000D01*
X191290000Y-76100000D02*
X192060000Y-76100000D01*
X191290000Y-76660000D02*
X192060000Y-76660000D01*
X192060000Y-70340000D02*
X192060000Y-76660000D01*
%TO.C,J2*%
X171167480Y-60470000D02*
X171167480Y-75830000D01*
X171167480Y-60470000D02*
X179797480Y-60470000D01*
X171167480Y-60590000D02*
X179797480Y-60590000D01*
X171167480Y-60708095D02*
X179797480Y-60708095D01*
X171167480Y-60826190D02*
X179797480Y-60826190D01*
X171167480Y-60944285D02*
X179797480Y-60944285D01*
X171167480Y-61062380D02*
X179797480Y-61062380D01*
X171167480Y-61180475D02*
X179797480Y-61180475D01*
X171167480Y-61298570D02*
X179797480Y-61298570D01*
X171167480Y-61416665D02*
X179797480Y-61416665D01*
X171167480Y-61534760D02*
X179797480Y-61534760D01*
X171167480Y-61652855D02*
X179797480Y-61652855D01*
X171167480Y-61770950D02*
X179797480Y-61770950D01*
X171167480Y-61889045D02*
X179797480Y-61889045D01*
X171167480Y-62007140D02*
X179797480Y-62007140D01*
X171167480Y-62125235D02*
X179797480Y-62125235D01*
X171167480Y-62243330D02*
X179797480Y-62243330D01*
X171167480Y-62361425D02*
X179797480Y-62361425D01*
X171167480Y-62479520D02*
X179797480Y-62479520D01*
X171167480Y-62597615D02*
X179797480Y-62597615D01*
X171167480Y-62715710D02*
X179797480Y-62715710D01*
X171167480Y-62833805D02*
X179797480Y-62833805D01*
X171167480Y-62951900D02*
X179797480Y-62951900D01*
X171167480Y-63070000D02*
X179797480Y-63070000D01*
X171167480Y-65610000D02*
X179797480Y-65610000D01*
X171167480Y-68150000D02*
X179797480Y-68150000D01*
X171167480Y-70690000D02*
X179797480Y-70690000D01*
X171167480Y-73230000D02*
X179797480Y-73230000D01*
X171167480Y-75830000D02*
X179797480Y-75830000D01*
X179797480Y-60470000D02*
X179797480Y-75830000D01*
X179797480Y-61440000D02*
X180147480Y-61440000D01*
X179797480Y-62160000D02*
X180147480Y-62160000D01*
X179797480Y-63980000D02*
X180207480Y-63980000D01*
X179797480Y-64700000D02*
X180207480Y-64700000D01*
X179797480Y-66520000D02*
X180207480Y-66520000D01*
X179797480Y-67240000D02*
X180207480Y-67240000D01*
X179797480Y-69060000D02*
X180207480Y-69060000D01*
X179797480Y-69780000D02*
X180207480Y-69780000D01*
X179797480Y-71600000D02*
X180207480Y-71600000D01*
X179797480Y-72320000D02*
X180207480Y-72320000D01*
X179797480Y-74140000D02*
X180207480Y-74140000D01*
X179797480Y-74860000D02*
X180207480Y-74860000D01*
X181257480Y-60470000D02*
X182367480Y-60470000D01*
X182367480Y-60470000D02*
X182367480Y-61800000D01*
%TO.C,C3*%
X197790000Y-63859420D02*
X197790000Y-64140580D01*
X198810000Y-63859420D02*
X198810000Y-64140580D01*
%TO.C,R2*%
X190462258Y-66770612D02*
X189987742Y-66770612D01*
X190462258Y-67815612D02*
X189987742Y-67815612D01*
%TO.C,D4*%
X202315000Y-61265000D02*
X202315000Y-62735000D01*
X202315000Y-62735000D02*
X204600000Y-62735000D01*
X204600000Y-61265000D02*
X202315000Y-61265000D01*
%TO.C,R3*%
X200137258Y-65777500D02*
X199662742Y-65777500D01*
X200137258Y-66822500D02*
X199662742Y-66822500D01*
%TO.C,U2*%
X194287500Y-62265000D02*
X192787500Y-62265000D01*
X194287500Y-62265000D02*
X195787500Y-62265000D01*
X194287500Y-65485000D02*
X192787500Y-65485000D01*
X194287500Y-65485000D02*
X195787500Y-65485000D01*
X192075000Y-62390000D02*
X191835000Y-62060000D01*
X192315000Y-62060000D01*
X192075000Y-62390000D01*
G36*
X192075000Y-62390000D02*
G01*
X191835000Y-62060000D01*
X192315000Y-62060000D01*
X192075000Y-62390000D01*
G37*
%TO.C,C4*%
X197040580Y-65890000D02*
X196759420Y-65890000D01*
X197040580Y-66910000D02*
X196759420Y-66910000D01*
%TO.C,C5*%
X199290000Y-63834420D02*
X199290000Y-64115580D01*
X200310000Y-63834420D02*
X200310000Y-64115580D01*
%TO.C,D1*%
X192015000Y-66065000D02*
X192015000Y-67535000D01*
X192015000Y-67535000D02*
X194300000Y-67535000D01*
X194300000Y-66065000D02*
X192015000Y-66065000D01*
%TO.C,C1*%
X199059420Y-75490000D02*
X199340580Y-75490000D01*
X199059420Y-76510000D02*
X199340580Y-76510000D01*
%TO.C,J1*%
X208530000Y-60530000D02*
X209800000Y-60530000D01*
X208530000Y-61800000D02*
X208530000Y-60530000D01*
X210842929Y-63960000D02*
X211240000Y-63960000D01*
X210842929Y-64720000D02*
X211240000Y-64720000D01*
X210842929Y-66500000D02*
X211240000Y-66500000D01*
X210842929Y-67260000D02*
X211240000Y-67260000D01*
X210842929Y-69040000D02*
X211240000Y-69040000D01*
X210842929Y-69800000D02*
X211240000Y-69800000D01*
X210842929Y-71580000D02*
X211240000Y-71580000D01*
X210842929Y-72340000D02*
X211240000Y-72340000D01*
X210842929Y-74120000D02*
X211240000Y-74120000D01*
X210842929Y-74880000D02*
X211240000Y-74880000D01*
X210910000Y-61420000D02*
X211240000Y-61420000D01*
X210910000Y-62180000D02*
X211240000Y-62180000D01*
X211240000Y-60470000D02*
X211240000Y-75830000D01*
X211240000Y-63070000D02*
X213900000Y-63070000D01*
X211240000Y-65610000D02*
X213900000Y-65610000D01*
X211240000Y-68150000D02*
X213900000Y-68150000D01*
X211240000Y-70690000D02*
X213900000Y-70690000D01*
X211240000Y-73230000D02*
X213900000Y-73230000D01*
X211240000Y-75830000D02*
X213900000Y-75830000D01*
X213900000Y-60470000D02*
X211240000Y-60470000D01*
X213900000Y-61420000D02*
X219900000Y-61420000D01*
X213900000Y-61480000D02*
X219900000Y-61480000D01*
X213900000Y-61600000D02*
X219900000Y-61600000D01*
X213900000Y-61720000D02*
X219900000Y-61720000D01*
X213900000Y-61840000D02*
X219900000Y-61840000D01*
X213900000Y-61960000D02*
X219900000Y-61960000D01*
X213900000Y-62080000D02*
X219900000Y-62080000D01*
X213900000Y-63960000D02*
X219900000Y-63960000D01*
X213900000Y-66500000D02*
X219900000Y-66500000D01*
X213900000Y-69040000D02*
X219900000Y-69040000D01*
X213900000Y-71580000D02*
X219900000Y-71580000D01*
X213900000Y-74120000D02*
X219900000Y-74120000D01*
X213900000Y-75830000D02*
X213900000Y-60470000D01*
X219900000Y-61420000D02*
X219900000Y-62180000D01*
X219900000Y-62180000D02*
X213900000Y-62180000D01*
X219900000Y-63960000D02*
X219900000Y-64720000D01*
X219900000Y-64720000D02*
X213900000Y-64720000D01*
X219900000Y-66500000D02*
X219900000Y-67260000D01*
X219900000Y-67260000D02*
X213900000Y-67260000D01*
X219900000Y-69040000D02*
X219900000Y-69800000D01*
X219900000Y-69800000D02*
X213900000Y-69800000D01*
X219900000Y-71580000D02*
X219900000Y-72340000D01*
X219900000Y-72340000D02*
X213900000Y-72340000D01*
X219900000Y-74120000D02*
X219900000Y-74880000D01*
X219900000Y-74880000D02*
X213900000Y-74880000D01*
%TO.C,R6*%
X205577500Y-66237258D02*
X205577500Y-65762742D01*
X206622500Y-66237258D02*
X206622500Y-65762742D01*
%TO.C,J4*%
X207205000Y-73010000D02*
X207205000Y-73645000D01*
X207205000Y-73645000D02*
X206570000Y-73645000D01*
%TO.C,R8*%
X203562742Y-59877500D02*
X204037258Y-59877500D01*
X203562742Y-60922500D02*
X204037258Y-60922500D01*
%TO.C,R1*%
X189737258Y-65277500D02*
X189262742Y-65277500D01*
X189737258Y-66322500D02*
X189262742Y-66322500D01*
%TO.C,L1*%
X188140000Y-63699622D02*
X188140000Y-62900378D01*
X189260000Y-63699622D02*
X189260000Y-62900378D01*
%TO.C,C2*%
X189790000Y-63640580D02*
X189790000Y-63359420D01*
X190810000Y-63640580D02*
X190810000Y-63359420D01*
%TO.C,R7*%
X205577500Y-62662742D02*
X205577500Y-63137258D01*
X206622500Y-62662742D02*
X206622500Y-63137258D01*
%TO.C,R4*%
X200362742Y-60977500D02*
X200837258Y-60977500D01*
X200362742Y-62022500D02*
X200837258Y-62022500D01*
%TO.C,R5*%
X185612258Y-66977500D02*
X185137742Y-66977500D01*
X185612258Y-68022500D02*
X185137742Y-68022500D01*
%TO.C,D3*%
X202302500Y-63065000D02*
X202302500Y-64535000D01*
X202302500Y-64535000D02*
X204587500Y-64535000D01*
X204587500Y-63065000D02*
X202302500Y-63065000D01*
%TO.C,D2*%
X202315000Y-64865000D02*
X202315000Y-66335000D01*
X202315000Y-66335000D02*
X204600000Y-66335000D01*
X204600000Y-64865000D02*
X202315000Y-64865000D01*
%TO.C,U1*%
X194765000Y-71500000D02*
X194765000Y-69550000D01*
X194765000Y-71500000D02*
X194765000Y-73450000D01*
X203635000Y-71500000D02*
X203635000Y-69550000D01*
X203635000Y-71500000D02*
X203635000Y-73450000D01*
X194830000Y-74200000D02*
X194500000Y-74440000D01*
X194500000Y-73960000D01*
X194830000Y-74200000D01*
G36*
X194830000Y-74200000D02*
G01*
X194500000Y-74440000D01*
X194500000Y-73960000D01*
X194830000Y-74200000D01*
G37*
%TD*%
M02*
