%TF.GenerationSoftware,KiCad,Pcbnew,8.0.8*%
%TF.CreationDate,2025-02-16T13:19:37-05:00*%
%TF.ProjectId,SI-P Pressure Transducer,53492d50-2050-4726-9573-737572652054,rev?*%
%TF.SameCoordinates,Original*%
%TF.FileFunction,Copper,L1,Top*%
%TF.FilePolarity,Positive*%
%FSLAX46Y46*%
G04 Gerber Fmt 4.6, Leading zero omitted, Abs format (unit mm)*
G04 Created by KiCad (PCBNEW 8.0.8) date 2025-02-16 13:19:37*
%MOMM*%
%LPD*%
G01*
G04 APERTURE LIST*
G04 Aperture macros list*
%AMRoundRect*
0 Rectangle with rounded corners*
0 $1 Rounding radius*
0 $2 $3 $4 $5 $6 $7 $8 $9 X,Y pos of 4 corners*
0 Add a 4 corners polygon primitive as box body*
4,1,4,$2,$3,$4,$5,$6,$7,$8,$9,$2,$3,0*
0 Add four circle primitives for the rounded corners*
1,1,$1+$1,$2,$3*
1,1,$1+$1,$4,$5*
1,1,$1+$1,$6,$7*
1,1,$1+$1,$8,$9*
0 Add four rect primitives between the rounded corners*
20,1,$1+$1,$2,$3,$4,$5,0*
20,1,$1+$1,$4,$5,$6,$7,0*
20,1,$1+$1,$6,$7,$8,$9,0*
20,1,$1+$1,$8,$9,$2,$3,0*%
G04 Aperture macros list end*
%TA.AperFunction,NonConductor*%
%ADD10C,0.200000*%
%TD*%
%ADD11C,0.150000*%
%TA.AperFunction,NonConductor*%
%ADD12C,0.150000*%
%TD*%
%TA.AperFunction,ComponentPad*%
%ADD13R,2.200000X2.200000*%
%TD*%
%TA.AperFunction,ComponentPad*%
%ADD14C,2.200000*%
%TD*%
%TA.AperFunction,ComponentPad*%
%ADD15R,1.700000X1.700000*%
%TD*%
%TA.AperFunction,ComponentPad*%
%ADD16O,1.700000X1.700000*%
%TD*%
%TA.AperFunction,SMDPad,CuDef*%
%ADD17RoundRect,0.225000X-0.250000X0.225000X-0.250000X-0.225000X0.250000X-0.225000X0.250000X0.225000X0*%
%TD*%
%TA.AperFunction,SMDPad,CuDef*%
%ADD18RoundRect,0.200000X0.200000X0.275000X-0.200000X0.275000X-0.200000X-0.275000X0.200000X-0.275000X0*%
%TD*%
%TA.AperFunction,SMDPad,CuDef*%
%ADD19RoundRect,0.218750X-0.218750X-0.256250X0.218750X-0.256250X0.218750X0.256250X-0.218750X0.256250X0*%
%TD*%
%TA.AperFunction,SMDPad,CuDef*%
%ADD20RoundRect,0.125000X-0.687500X-0.125000X0.687500X-0.125000X0.687500X0.125000X-0.687500X0.125000X0*%
%TD*%
%TA.AperFunction,SMDPad,CuDef*%
%ADD21RoundRect,0.225000X0.225000X0.250000X-0.225000X0.250000X-0.225000X-0.250000X0.225000X-0.250000X0*%
%TD*%
%TA.AperFunction,SMDPad,CuDef*%
%ADD22RoundRect,0.225000X-0.225000X-0.250000X0.225000X-0.250000X0.225000X0.250000X-0.225000X0.250000X0*%
%TD*%
%TA.AperFunction,SMDPad,CuDef*%
%ADD23RoundRect,0.200000X0.275000X-0.200000X0.275000X0.200000X-0.275000X0.200000X-0.275000X-0.200000X0*%
%TD*%
%TA.AperFunction,ConnectorPad*%
%ADD24C,0.787400*%
%TD*%
%TA.AperFunction,SMDPad,CuDef*%
%ADD25RoundRect,0.200000X-0.200000X-0.275000X0.200000X-0.275000X0.200000X0.275000X-0.200000X0.275000X0*%
%TD*%
%TA.AperFunction,SMDPad,CuDef*%
%ADD26RoundRect,0.218750X0.381250X-0.218750X0.381250X0.218750X-0.381250X0.218750X-0.381250X-0.218750X0*%
%TD*%
%TA.AperFunction,SMDPad,CuDef*%
%ADD27RoundRect,0.225000X0.250000X-0.225000X0.250000X0.225000X-0.250000X0.225000X-0.250000X-0.225000X0*%
%TD*%
%TA.AperFunction,SMDPad,CuDef*%
%ADD28RoundRect,0.200000X-0.275000X0.200000X-0.275000X-0.200000X0.275000X-0.200000X0.275000X0.200000X0*%
%TD*%
%TA.AperFunction,SMDPad,CuDef*%
%ADD29RoundRect,0.150000X0.150000X-0.825000X0.150000X0.825000X-0.150000X0.825000X-0.150000X-0.825000X0*%
%TD*%
%TA.AperFunction,ViaPad*%
%ADD30C,0.600000*%
%TD*%
%TA.AperFunction,Conductor*%
%ADD31C,0.152400*%
%TD*%
G04 APERTURE END LIST*
D10*
X191900000Y-66000000D02*
X191900000Y-67000000D01*
X192800000Y-66000000D02*
X191900000Y-66000000D01*
D11*
D12*
X182689160Y-63322200D02*
X182832017Y-63369819D01*
X182832017Y-63369819D02*
X183070112Y-63369819D01*
X183070112Y-63369819D02*
X183165350Y-63322200D01*
X183165350Y-63322200D02*
X183212969Y-63274580D01*
X183212969Y-63274580D02*
X183260588Y-63179342D01*
X183260588Y-63179342D02*
X183260588Y-63084104D01*
X183260588Y-63084104D02*
X183212969Y-62988866D01*
X183212969Y-62988866D02*
X183165350Y-62941247D01*
X183165350Y-62941247D02*
X183070112Y-62893628D01*
X183070112Y-62893628D02*
X182879636Y-62846009D01*
X182879636Y-62846009D02*
X182784398Y-62798390D01*
X182784398Y-62798390D02*
X182736779Y-62750771D01*
X182736779Y-62750771D02*
X182689160Y-62655533D01*
X182689160Y-62655533D02*
X182689160Y-62560295D01*
X182689160Y-62560295D02*
X182736779Y-62465057D01*
X182736779Y-62465057D02*
X182784398Y-62417438D01*
X182784398Y-62417438D02*
X182879636Y-62369819D01*
X182879636Y-62369819D02*
X183117731Y-62369819D01*
X183117731Y-62369819D02*
X183260588Y-62417438D01*
X183689160Y-63369819D02*
X183689160Y-62369819D01*
X184165350Y-62988866D02*
X184927255Y-62988866D01*
X185403445Y-63369819D02*
X185403445Y-62369819D01*
X185403445Y-62369819D02*
X185784397Y-62369819D01*
X185784397Y-62369819D02*
X185879635Y-62417438D01*
X185879635Y-62417438D02*
X185927254Y-62465057D01*
X185927254Y-62465057D02*
X185974873Y-62560295D01*
X185974873Y-62560295D02*
X185974873Y-62703152D01*
X185974873Y-62703152D02*
X185927254Y-62798390D01*
X185927254Y-62798390D02*
X185879635Y-62846009D01*
X185879635Y-62846009D02*
X185784397Y-62893628D01*
X185784397Y-62893628D02*
X185403445Y-62893628D01*
X186403445Y-63274580D02*
X186451064Y-63322200D01*
X186451064Y-63322200D02*
X186403445Y-63369819D01*
X186403445Y-63369819D02*
X186355826Y-63322200D01*
X186355826Y-63322200D02*
X186403445Y-63274580D01*
X186403445Y-63274580D02*
X186403445Y-63369819D01*
X187403444Y-63369819D02*
X186832016Y-63369819D01*
X187117730Y-63369819D02*
X187117730Y-62369819D01*
X187117730Y-62369819D02*
X187022492Y-62512676D01*
X187022492Y-62512676D02*
X186927254Y-62607914D01*
X186927254Y-62607914D02*
X186832016Y-62655533D01*
D13*
%TO.P,J5,1,Pin_1*%
%TO.N,/PT_OUT*%
X185420000Y-73500000D03*
D14*
%TO.P,J5,2,Pin_2*%
%TO.N,+12V*%
X187960000Y-73500000D03*
%TO.P,J5,3,Pin_3*%
X190500000Y-73500000D03*
%TD*%
D15*
%TO.P,J2,1,Pin_1*%
%TO.N,+3V3*%
X181257480Y-61800000D03*
D16*
%TO.P,J2,2,Pin_2*%
%TO.N,+5V*%
X181257480Y-64340000D03*
%TO.P,J2,3,Pin_3*%
%TO.N,/RESET*%
X181257480Y-66880000D03*
%TO.P,J2,4,Pin_4*%
%TO.N,/I2C_SCL*%
X181257480Y-69420000D03*
%TO.P,J2,5,Pin_5*%
%TO.N,/I2C_SDA*%
X181257480Y-71960000D03*
%TO.P,J2,6,Pin_6*%
%TO.N,GND*%
X181257480Y-74500000D03*
%TD*%
D17*
%TO.P,C3,1*%
%TO.N,+12V*%
X198300000Y-63225000D03*
%TO.P,C3,2*%
%TO.N,GND*%
X198300000Y-64775000D03*
%TD*%
D18*
%TO.P,R2,1*%
%TO.N,+12V*%
X191050000Y-67293112D03*
%TO.P,R2,2*%
%TO.N,Net-(U2-FB)*%
X189400000Y-67293112D03*
%TD*%
D19*
%TO.P,D4,1,K*%
%TO.N,GND*%
X203012500Y-62000000D03*
%TO.P,D4,2,A*%
%TO.N,Net-(D4-A)*%
X204587500Y-62000000D03*
%TD*%
D18*
%TO.P,R3,1*%
%TO.N,Net-(U2-VDD)*%
X200725000Y-66300000D03*
%TO.P,R3,2*%
%TO.N,Net-(U2-FREQ)*%
X199075000Y-66300000D03*
%TD*%
D20*
%TO.P,U2,1,PGND*%
%TO.N,GND*%
X192175000Y-62900000D03*
%TO.P,U2,2,EN*%
%TO.N,/BOOST_SHDN*%
X192175000Y-63550000D03*
%TO.P,U2,3,FREQ*%
%TO.N,Net-(U2-FREQ)*%
X192175000Y-64200000D03*
%TO.P,U2,4,FB*%
%TO.N,Net-(U2-FB)*%
X192175000Y-64850000D03*
%TO.P,U2,5,SGND*%
%TO.N,GND*%
X196400000Y-64850000D03*
%TO.P,U2,6,VDD*%
%TO.N,Net-(U2-VDD)*%
X196400000Y-64200000D03*
%TO.P,U2,7,BOOT*%
%TO.N,+12V*%
X196400000Y-63550000D03*
%TO.P,U2,8,SW*%
%TO.N,Net-(D1-A)*%
X196400000Y-62900000D03*
%TD*%
D21*
%TO.P,C4,1*%
%TO.N,+12V*%
X197675000Y-66400000D03*
%TO.P,C4,2*%
%TO.N,Net-(U2-FB)*%
X196125000Y-66400000D03*
%TD*%
D17*
%TO.P,C5,1*%
%TO.N,Net-(U2-VDD)*%
X199800000Y-63200000D03*
%TO.P,C5,2*%
%TO.N,GND*%
X199800000Y-64750000D03*
%TD*%
D19*
%TO.P,D1,1,K*%
%TO.N,+12V*%
X192712500Y-66800000D03*
%TO.P,D1,2,A*%
%TO.N,Net-(D1-A)*%
X194287500Y-66800000D03*
%TD*%
D22*
%TO.P,C1,1*%
%TO.N,+3V3*%
X198425000Y-76000000D03*
%TO.P,C1,2*%
%TO.N,GND*%
X199975000Y-76000000D03*
%TD*%
D15*
%TO.P,J1,1,Pin_1*%
%TO.N,+3V3*%
X209800000Y-61800000D03*
D16*
%TO.P,J1,2,Pin_2*%
%TO.N,+5V*%
X209800000Y-64340000D03*
%TO.P,J1,3,Pin_3*%
%TO.N,/RESET*%
X209800000Y-66880000D03*
%TO.P,J1,4,Pin_4*%
%TO.N,/I2C_SCL*%
X209800000Y-69420000D03*
%TO.P,J1,5,Pin_5*%
%TO.N,/I2C_SDA*%
X209800000Y-71960000D03*
%TO.P,J1,6,Pin_6*%
%TO.N,GND*%
X209800000Y-74500000D03*
%TD*%
D23*
%TO.P,R6,1*%
%TO.N,+12V*%
X206100000Y-66825000D03*
%TO.P,R6,2*%
%TO.N,Net-(D2-A)*%
X206100000Y-65175000D03*
%TD*%
D24*
%TO.P,J4,1,MISO*%
%TO.N,/SPI_MISO*%
X206570000Y-73010000D03*
%TO.P,J4,2,VCC*%
%TO.N,+3V3*%
X205300000Y-73010000D03*
%TO.P,J4,3,SCK*%
%TO.N,/SPI_SCK*%
X206570000Y-71740000D03*
%TO.P,J4,4,MOSI*%
%TO.N,/SPI_MOSI*%
X205300000Y-71740000D03*
%TO.P,J4,5,~{RST}*%
%TO.N,/RESET*%
X206570000Y-70470000D03*
%TO.P,J4,6,GND*%
%TO.N,GND*%
X205300000Y-70470000D03*
%TD*%
D25*
%TO.P,R8,1*%
%TO.N,/STATUS*%
X202975000Y-60400000D03*
%TO.P,R8,2*%
%TO.N,Net-(D4-A)*%
X204625000Y-60400000D03*
%TD*%
D18*
%TO.P,R1,1*%
%TO.N,Net-(U2-FB)*%
X190325000Y-65800000D03*
%TO.P,R1,2*%
%TO.N,GND*%
X188675000Y-65800000D03*
%TD*%
D26*
%TO.P,L1,1,1*%
%TO.N,+5V*%
X188700000Y-64362500D03*
%TO.P,L1,2,2*%
%TO.N,Net-(D1-A)*%
X188700000Y-62237500D03*
%TD*%
D27*
%TO.P,C2,1*%
%TO.N,+5V*%
X190300000Y-64275000D03*
%TO.P,C2,2*%
%TO.N,GND*%
X190300000Y-62725000D03*
%TD*%
D28*
%TO.P,R7,1*%
%TO.N,+3V3*%
X206100000Y-62075000D03*
%TO.P,R7,2*%
%TO.N,Net-(D3-A)*%
X206100000Y-63725000D03*
%TD*%
D25*
%TO.P,R4,1*%
%TO.N,Net-(U2-VDD)*%
X199775000Y-61500000D03*
%TO.P,R4,2*%
%TO.N,+12V*%
X201425000Y-61500000D03*
%TD*%
D18*
%TO.P,R5,1*%
%TO.N,/PT_OUT*%
X186200000Y-67500000D03*
%TO.P,R5,2*%
%TO.N,GND*%
X184550000Y-67500000D03*
%TD*%
D19*
%TO.P,D3,1,K*%
%TO.N,GND*%
X203000000Y-63800000D03*
%TO.P,D3,2,A*%
%TO.N,Net-(D3-A)*%
X204575000Y-63800000D03*
%TD*%
%TO.P,D2,1,K*%
%TO.N,GND*%
X203012500Y-65600000D03*
%TO.P,D2,2,A*%
%TO.N,Net-(D2-A)*%
X204587500Y-65600000D03*
%TD*%
D29*
%TO.P,U1,1,VCC*%
%TO.N,+3V3*%
X195390000Y-73975000D03*
%TO.P,U1,2,XTAL1/PB0*%
%TO.N,/STATUS*%
X196660000Y-73975000D03*
%TO.P,U1,3,XTAL2/PB1*%
%TO.N,unconnected-(U1-XTAL2{slash}PB1-Pad3)*%
X197930000Y-73975000D03*
%TO.P,U1,4,~{RESET}/PB3*%
%TO.N,/RESET*%
X199200000Y-73975000D03*
%TO.P,U1,5,PB2*%
%TO.N,unconnected-(U1-PB2-Pad5)*%
X200470000Y-73975000D03*
%TO.P,U1,6,PA7*%
%TO.N,/BOOST_SHDN*%
X201740000Y-73975000D03*
%TO.P,U1,7,PA6*%
%TO.N,/I2C_SDA*%
X203010000Y-73975000D03*
%TO.P,U1,8,PA5*%
%TO.N,/PT_OUT*%
X203010000Y-69025000D03*
%TO.P,U1,9,PA4*%
%TO.N,/I2C_SCL*%
X201740000Y-69025000D03*
%TO.P,U1,10,PA3*%
%TO.N,/SPI_SCK*%
X200470000Y-69025000D03*
%TO.P,U1,11,PA2*%
%TO.N,GND*%
X199200000Y-69025000D03*
%TO.P,U1,12,PA1*%
%TO.N,/SPI_MOSI*%
X197930000Y-69025000D03*
%TO.P,U1,13,AREF/PA0*%
%TO.N,/SPI_MISO*%
X196660000Y-69025000D03*
%TO.P,U1,14,GND*%
%TO.N,GND*%
X195390000Y-69025000D03*
%TD*%
D30*
%TO.N,+12V*%
X204100000Y-67100000D03*
X194100000Y-69000000D03*
%TO.N,/PT_OUT*%
X187800000Y-67400000D03*
X202544109Y-66734906D03*
%TO.N,/BOOST_SHDN*%
X202000000Y-75700000D03*
X194400000Y-61500000D03*
%TD*%
D31*
%TO.N,+12V*%
X190500000Y-73500000D02*
X187960000Y-73500000D01*
X190864406Y-72321293D02*
X191092850Y-72092850D01*
X191092850Y-72092850D02*
X194100000Y-69085699D01*
X190500000Y-72685700D02*
X191092850Y-72092850D01*
X190500000Y-73500000D02*
X190500000Y-72685700D01*
%TO.N,/PT_OUT*%
X186200000Y-71905699D02*
X186052850Y-72052850D01*
X186052850Y-72052850D02*
X185784406Y-72321293D01*
X185420000Y-73500000D02*
X185420000Y-72685700D01*
X185420000Y-72685700D02*
X186052850Y-72052850D01*
%TO.N,+3V3*%
X192668948Y-75500000D02*
X194193948Y-73975000D01*
X192668948Y-75500000D02*
X192332748Y-75163800D01*
X192626461Y-75542487D02*
X192668948Y-75500000D01*
X182836200Y-75163800D02*
X182000000Y-76000000D01*
X192332748Y-75163800D02*
X182836200Y-75163800D01*
X182000000Y-76000000D02*
X181232109Y-76000000D01*
X180178880Y-74946771D02*
X180178880Y-62878600D01*
X181232109Y-76000000D02*
X180178880Y-74946771D01*
X180178880Y-62878600D02*
X181257480Y-61800000D01*
X194193948Y-73975000D02*
X195390000Y-73975000D01*
%TO.N,/STATUS*%
X202975000Y-60400000D02*
X202761800Y-60186800D01*
X202761800Y-60186800D02*
X180813200Y-60186800D01*
X180813200Y-60186800D02*
X179874080Y-61125920D01*
X191683751Y-76916249D02*
X193421400Y-75178600D01*
X195721400Y-75178600D02*
X196660000Y-74240000D01*
X179874080Y-61125920D02*
X179874080Y-75774080D01*
X181016249Y-76916249D02*
X191683751Y-76916249D01*
X179874080Y-75774080D02*
X181016249Y-76916249D01*
X193421400Y-75178600D02*
X195721400Y-75178600D01*
X196660000Y-74240000D02*
X196660000Y-73975000D01*
%TO.N,GND*%
X207973800Y-76326200D02*
X209800000Y-74500000D01*
X199200000Y-68050001D02*
X199636801Y-67613200D01*
X190744122Y-64953600D02*
X191100000Y-64597722D01*
X203012500Y-62000000D02*
X203012500Y-65600000D01*
X192175000Y-62900000D02*
X194201200Y-60873800D01*
X210878600Y-71513229D02*
X210878600Y-73421400D01*
X194201200Y-60873800D02*
X194559381Y-60873800D01*
X195390000Y-69025000D02*
X195390000Y-68050001D01*
X200301200Y-76326200D02*
X207973800Y-76326200D01*
X209134629Y-71100000D02*
X209353229Y-70881400D01*
X195618601Y-67821400D02*
X199121400Y-67821400D01*
X199636801Y-67613200D02*
X200900000Y-67613200D01*
X205300000Y-70470000D02*
X205689934Y-70470000D01*
X210878600Y-73421400D02*
X209800000Y-74500000D01*
X209353229Y-70881400D02*
X210246771Y-70881400D01*
X204743225Y-70470000D02*
X204113225Y-71100000D01*
X184055806Y-71701674D02*
X181257480Y-74500000D01*
X195390000Y-68050001D02*
X195618601Y-67821400D01*
X201800000Y-71100000D02*
X200998600Y-70298600D01*
X195587501Y-64850000D02*
X196400000Y-64850000D01*
X205689934Y-70470000D02*
X206319934Y-71100000D01*
X206319934Y-71100000D02*
X209134629Y-71100000D01*
X192175000Y-62900000D02*
X190375000Y-62900000D01*
X186250000Y-65800000D02*
X188675000Y-65800000D01*
X184055806Y-67994194D02*
X184055806Y-71701674D01*
X196500000Y-64750000D02*
X196400000Y-64850000D01*
X201963200Y-66430234D02*
X202793434Y-65600000D01*
X184550000Y-67500000D02*
X184055806Y-67994194D01*
X188675000Y-65800000D02*
X189521400Y-64953600D01*
X190375000Y-62900000D02*
X190300000Y-62825000D01*
X191100000Y-64597722D02*
X191100000Y-63525000D01*
X194559381Y-60873800D02*
X195226200Y-61540619D01*
X200998600Y-67711800D02*
X200900000Y-67613200D01*
X195226200Y-61540619D02*
X195226200Y-64488699D01*
X201474299Y-67613200D02*
X201963200Y-67124299D01*
X199200000Y-67900000D02*
X199200000Y-69025000D01*
X200998600Y-70298600D02*
X200998600Y-67711800D01*
X210246771Y-70881400D02*
X210878600Y-71513229D01*
X189521400Y-64953600D02*
X190744122Y-64953600D01*
X201963200Y-67124299D02*
X201963200Y-66430234D01*
X205300000Y-70470000D02*
X204743225Y-70470000D01*
X199975000Y-76000000D02*
X200301200Y-76326200D01*
X200900000Y-67613200D02*
X201474299Y-67613200D01*
X199800000Y-64750000D02*
X196500000Y-64750000D01*
X195226200Y-64488699D02*
X195587501Y-64850000D01*
X184550000Y-67500000D02*
X186250000Y-65800000D01*
X202793434Y-65600000D02*
X203012500Y-65600000D01*
X204113225Y-71100000D02*
X201800000Y-71100000D01*
X199200000Y-69025000D02*
X199200000Y-68050001D01*
X191100000Y-63525000D02*
X190300000Y-62725000D01*
X199121400Y-67821400D02*
X199200000Y-67900000D01*
%TO.N,+3V3*%
X195390000Y-72910000D02*
X195390000Y-73975000D01*
X195700000Y-72600000D02*
X195390000Y-72910000D01*
X196970978Y-72771400D02*
X196799578Y-72600000D01*
X209525000Y-62075000D02*
X209800000Y-61800000D01*
X205300000Y-73010000D02*
X205061400Y-72771400D01*
X197188600Y-75711400D02*
X197188600Y-72989022D01*
X197477200Y-76000000D02*
X197188600Y-75711400D01*
X198425000Y-76000000D02*
X197477200Y-76000000D01*
X196799578Y-72600000D02*
X195700000Y-72600000D01*
X197188600Y-72989022D02*
X196799578Y-72600000D01*
X197188600Y-75761400D02*
X197188600Y-75711400D01*
X206100000Y-62075000D02*
X209525000Y-62075000D01*
X205061400Y-72771400D02*
X196970978Y-72771400D01*
%TO.N,+5V*%
X181292480Y-64375000D02*
X181257480Y-64340000D01*
X190300000Y-64375000D02*
X181292480Y-64375000D01*
%TO.N,+12V*%
X193512500Y-66000000D02*
X192712500Y-66800000D01*
X191056888Y-67300000D02*
X191050000Y-67293112D01*
X206100000Y-66825000D02*
X204375000Y-66825000D01*
X200721400Y-60796400D02*
X201425000Y-61500000D01*
X198278600Y-67003600D02*
X201165348Y-67003600D01*
X192700000Y-66800000D02*
X192206888Y-67293112D01*
X198300000Y-61431052D02*
X198934652Y-60796400D01*
X192206888Y-67293112D02*
X191050000Y-67293112D01*
X198300000Y-63225000D02*
X198300000Y-61431052D01*
X191050000Y-72135699D02*
X190864406Y-72321293D01*
X192712500Y-66800000D02*
X192700000Y-66800000D01*
X194100000Y-69085699D02*
X194100000Y-69000000D01*
X201353600Y-66758074D02*
X201353600Y-62046400D01*
X194601210Y-66000000D02*
X193512500Y-66000000D01*
X197675000Y-66400000D02*
X196863200Y-67211800D01*
X201165348Y-67003600D02*
X201308309Y-66860639D01*
X197675000Y-66400000D02*
X198278600Y-67003600D01*
X197975000Y-63550000D02*
X198300000Y-63225000D01*
X196400000Y-63550000D02*
X197975000Y-63550000D01*
X191050000Y-67293112D02*
X191050000Y-72135699D01*
X198934652Y-60796400D02*
X200721400Y-60796400D01*
X201308309Y-66803365D02*
X201353600Y-66758074D01*
X195813010Y-67211800D02*
X194601210Y-66000000D01*
X201308309Y-66860639D02*
X201308309Y-66803365D01*
X196863200Y-67211800D02*
X195813010Y-67211800D01*
X204375000Y-66825000D02*
X204100000Y-67100000D01*
X201425000Y-61975000D02*
X201425000Y-61500000D01*
X201353600Y-62046400D02*
X201425000Y-61975000D01*
%TO.N,Net-(U2-FB)*%
X191225000Y-65800000D02*
X192175000Y-64850000D01*
X192175000Y-64850000D02*
X194575000Y-64850000D01*
X189400000Y-67293112D02*
X189400000Y-66725000D01*
X189400000Y-66725000D02*
X190325000Y-65800000D01*
X194575000Y-64850000D02*
X196125000Y-66400000D01*
X190325000Y-65800000D02*
X191225000Y-65800000D01*
%TO.N,Net-(D1-A)*%
X201503274Y-60491600D02*
X202100000Y-61088326D01*
X198808400Y-60491600D02*
X201503274Y-60491600D01*
X196400000Y-62900000D02*
X198808400Y-60491600D01*
X201658400Y-66303982D02*
X201658400Y-66998047D01*
X190368500Y-60569000D02*
X194785633Y-60569000D01*
X197083400Y-67516600D02*
X195004100Y-67516600D01*
X196400000Y-62183367D02*
X196400000Y-62900000D01*
X195004100Y-67516600D02*
X194287500Y-66800000D01*
X194785633Y-60569000D02*
X196400000Y-62183367D01*
X197291600Y-67308400D02*
X197083400Y-67516600D01*
X201658400Y-66998047D02*
X201348047Y-67308400D01*
X202100000Y-61088326D02*
X202100000Y-65862382D01*
X202100000Y-65862382D02*
X201658400Y-66303982D01*
X188700000Y-62237500D02*
X190368500Y-60569000D01*
X201348047Y-67308400D02*
X197291600Y-67308400D01*
%TO.N,Net-(D2-A)*%
X206100000Y-65175000D02*
X205012500Y-65175000D01*
X205012500Y-65175000D02*
X204587500Y-65600000D01*
%TO.N,Net-(D3-A)*%
X204575000Y-63800000D02*
X206025000Y-63800000D01*
X206025000Y-63800000D02*
X206100000Y-63725000D01*
%TO.N,Net-(D4-A)*%
X204587500Y-60437500D02*
X204625000Y-60400000D01*
X204587500Y-62000000D02*
X204587500Y-60437500D01*
%TO.N,/RESET*%
X209800000Y-67796775D02*
X209800000Y-66880000D01*
X211183400Y-70883400D02*
X210800000Y-70500000D01*
X199200000Y-73975000D02*
X199200000Y-76347722D01*
X209200000Y-76800000D02*
X211183400Y-74816600D01*
X211183400Y-74816600D02*
X211183400Y-70883400D01*
X199652278Y-76800000D02*
X209200000Y-76800000D01*
X206570000Y-70470000D02*
X207126775Y-70470000D01*
X210800000Y-70500000D02*
X206600000Y-70500000D01*
X206600000Y-70500000D02*
X206570000Y-70470000D01*
X199200000Y-76347722D02*
X199652278Y-76800000D01*
X207126775Y-70470000D02*
X209800000Y-67796775D01*
%TO.N,/I2C_SCL*%
X202849578Y-70700000D02*
X204000000Y-69549578D01*
X209298600Y-65801400D02*
X210401400Y-65801400D01*
X205446400Y-67453600D02*
X207646400Y-67453600D01*
X201900000Y-70700000D02*
X201740000Y-70540000D01*
X204000000Y-69549578D02*
X204000000Y-68900000D01*
X210900000Y-66300000D02*
X210900000Y-68320000D01*
X210900000Y-68320000D02*
X209800000Y-69420000D01*
X210401400Y-65801400D02*
X210900000Y-66300000D01*
X201740000Y-70540000D02*
X201740000Y-69025000D01*
X207646400Y-67453600D02*
X209298600Y-65801400D01*
X201900000Y-70700000D02*
X202849578Y-70700000D01*
X204000000Y-68900000D02*
X205446400Y-67453600D01*
%TO.N,/I2C_SDA*%
X206658500Y-75101500D02*
X209800000Y-71960000D01*
X204136500Y-75101500D02*
X206658500Y-75101500D01*
X203010000Y-73975000D02*
X204136500Y-75101500D01*
%TO.N,/PT_OUT*%
X203010000Y-67200797D02*
X202544109Y-66734906D01*
X203010000Y-69025000D02*
X203010000Y-67200797D01*
X186200000Y-67500000D02*
X186200000Y-71905699D01*
X187800000Y-67400000D02*
X187700000Y-67500000D01*
X187700000Y-67500000D02*
X186200000Y-67500000D01*
%TO.N,Net-(U2-FREQ)*%
X198471400Y-65696400D02*
X195930370Y-65696400D01*
X199075000Y-66300000D02*
X198471400Y-65696400D01*
X195930370Y-65696400D02*
X194433970Y-64200000D01*
X194433970Y-64200000D02*
X192175000Y-64200000D01*
%TO.N,/SPI_MISO*%
X199778122Y-72387700D02*
X196660000Y-69269578D01*
X196660000Y-69269578D02*
X196660000Y-69025000D01*
X205947700Y-72387700D02*
X199778122Y-72387700D01*
X206570000Y-73010000D02*
X205947700Y-72387700D01*
%TO.N,/SPI_MOSI*%
X199739601Y-71809600D02*
X197930000Y-69999999D01*
X205300000Y-71740000D02*
X205230400Y-71809600D01*
X197930000Y-69999999D02*
X197930000Y-69025000D01*
X205230400Y-71809600D02*
X199739601Y-71809600D01*
%TO.N,/SPI_SCK*%
X205893682Y-71104800D02*
X204539477Y-71104800D01*
X200470000Y-70201052D02*
X200470000Y-69025000D01*
X201673748Y-71404800D02*
X200470000Y-70201052D01*
X206570000Y-71740000D02*
X206528882Y-71740000D01*
X204239477Y-71404800D02*
X201673748Y-71404800D01*
X204539477Y-71104800D02*
X204239477Y-71404800D01*
X206528882Y-71740000D02*
X205893682Y-71104800D01*
%TO.N,/BOOST_SHDN*%
X192175000Y-63550000D02*
X192987499Y-63550000D01*
X194400000Y-62137499D02*
X194400000Y-61500000D01*
X192987499Y-63550000D02*
X194400000Y-62137499D01*
X201740000Y-75440000D02*
X201740000Y-73975000D01*
X202000000Y-75700000D02*
X201740000Y-75440000D01*
%TO.N,Net-(U2-VDD)*%
X200725000Y-66300000D02*
X200725000Y-64552278D01*
X198800000Y-64028600D02*
X196571400Y-64028600D01*
X200201322Y-64028600D02*
X198800000Y-64028600D01*
X199800000Y-63200000D02*
X198971400Y-64028600D01*
X199800000Y-63200000D02*
X199800000Y-61525000D01*
X196571400Y-64028600D02*
X196400000Y-64200000D01*
X199800000Y-61525000D02*
X199775000Y-61500000D01*
X200725000Y-64552278D02*
X200201322Y-64028600D01*
X198971400Y-64028600D02*
X198800000Y-64028600D01*
X195733970Y-64200000D02*
X196400000Y-64200000D01*
%TD*%
M02*
