  0
SECTION
  2
HEADER
  9
$ANGBASE
  50
0.0
  9
$ANGDIR
  70
1
  9
$MEASUREMENT
  70
1
  0
ENDSEC
  0
SECTION
  2
TABLES
  0
TABLE
  2
LTYPE
  70
4
  0
LTYPE
  5
40F
  2
CONTINUOUS
  70
0
  3
Solid line
  72
65
  73
0
  40
0.0
  0
LTYPE
  5
410
  2
DASHDOT
 70
0
  3
Dash Dot ____ _ ____ _
 72
65
 73
4
 40
2.0
 49
1.25
 49
-0.25
 49
0.25
 49
-0.25
  0
LTYPE
  5
411
  2
DASHED
 70
0
  3
Dashed __ __ __ __ __
 72
65
 73
2
 40
0.75
 49
0.5
 49
-0.25
  0
LTYPE
  5
43B
  2
DOTTED
 70
0
  3
Dotted .  .  .  .
 72
65
 73
2
 40
0.2
 49
0.0
 49
-0.2
  0
ENDTAB
  0
TABLE
  2
STYLE
  70
4
  0
STYLE
  2
KICAD
  70
0
  40
0
  41
1
  42
1
  50
0
  71
0
  3
isocp.shx
  0
STYLE
  2
KICADB
  70
0
  40
0
  41
1
  42
1
  50
0
  71
0
  3
isocp.shx
  0
STYLE
  2
KICADI
  70
0
  40
0
  41
1
  42
1
  50
15
  71
0
  3
isocp.shx
  0
STYLE
  2
KICADBI
  70
0
  40
0
  41
1
  42
1
  50
15
  71
0
  3
isocp.shx
  0
ENDTAB
  0
TABLE
  2
LAYER
  70
1
  0
LAYER
  2
BLACK
  70
0
  62
7
  6
CONTINUOUS
  0
ENDTAB
  0
ENDSEC
  0
SECTION
  2
ENTITIES
0
LINE
8
BLACK
6
CONTINUOUS
10
198.7361039999999832
20
-75.5421269999999936
11
198.8090990000000033
21
-75.5909010000000023
0
LINE
8
BLACK
6
CONTINUOUS
10
198.8090990000000033
20
-75.5909010000000023
11
198.8578729999999837
21
-75.663895999999994
0
LINE
8
BLACK
6
CONTINUOUS
10
198.8578729999999837
20
-75.663895999999994
11
198.875
21
-75.75
0
LINE
8
BLACK
6
CONTINUOUS
10
198.875
20
-75.75
11
198.875
21
-76.25
0
LINE
8
BLACK
6
CONTINUOUS
10
198.875
20
-76.25
11
198.8578729999999837
21
-76.3361039999999917
0
LINE
8
BLACK
6
CONTINUOUS
10
198.8578729999999837
20
-76.3361039999999917
11
198.8090990000000033
21
-76.4090989999999977
0
LINE
8
BLACK
6
CONTINUOUS
10
198.8090990000000033
20
-76.4090989999999977
11
198.7361039999999832
21
-76.4578729999999922
0
LINE
8
BLACK
6
CONTINUOUS
10
198.7361039999999832
20
-76.4578729999999922
11
198.6499999999999773
21
-76.4749999999999943
0
LINE
8
BLACK
6
CONTINUOUS
10
198.6499999999999773
20
-76.4749999999999943
11
198.1999999999999886
21
-76.4749999999999943
0
LINE
8
BLACK
6
CONTINUOUS
10
198.1999999999999886
20
-76.4749999999999943
11
198.1138959999999827
21
-76.4578729999999922
0
LINE
8
BLACK
6
CONTINUOUS
10
198.1138959999999827
20
-76.4578729999999922
11
198.040900999999991
21
-76.4090989999999977
0
LINE
8
BLACK
6
CONTINUOUS
10
198.040900999999991
20
-76.4090989999999977
11
197.9921269999999822
21
-76.3361039999999917
0
LINE
8
BLACK
6
CONTINUOUS
10
197.9921269999999822
20
-76.3361039999999917
11
197.9749999999999943
21
-76.25
0
LINE
8
BLACK
6
CONTINUOUS
10
197.9749999999999943
20
-76.25
11
197.9749999999999943
21
-75.75
0
LINE
8
BLACK
6
CONTINUOUS
10
197.9749999999999943
20
-75.75
11
197.9921269999999822
21
-75.663895999999994
0
LINE
8
BLACK
6
CONTINUOUS
10
197.9921269999999822
20
-75.663895999999994
11
198.040900999999991
21
-75.5909010000000023
0
LINE
8
BLACK
6
CONTINUOUS
10
198.040900999999991
20
-75.5909010000000023
11
198.1138959999999827
21
-75.5421269999999936
0
LINE
8
BLACK
6
CONTINUOUS
10
198.1138959999999827
20
-75.5421269999999936
11
198.1999999999999886
21
-75.5249999999999915
0
LINE
8
BLACK
6
CONTINUOUS
10
198.1999999999999886
20
-75.5249999999999915
11
198.6499999999999773
21
-75.5249999999999915
0
LINE
8
BLACK
6
CONTINUOUS
10
198.6499999999999773
20
-75.5249999999999915
11
198.7361039999999832
21
-75.5421269999999936
0
LINE
8
BLACK
6
CONTINUOUS
10
200.2861039999999946
20
-75.5421269999999936
11
200.3590989999999863
21
-75.5909010000000023
0
LINE
8
BLACK
6
CONTINUOUS
10
200.3590989999999863
20
-75.5909010000000023
11
200.407872999999995
21
-75.663895999999994
0
LINE
8
BLACK
6
CONTINUOUS
10
200.407872999999995
20
-75.663895999999994
11
200.4249999999999829
21
-75.75
0
LINE
8
BLACK
6
CONTINUOUS
10
200.4249999999999829
20
-75.75
11
200.4249999999999829
21
-76.25
0
LINE
8
BLACK
6
CONTINUOUS
10
200.4249999999999829
20
-76.25
11
200.407872999999995
21
-76.3361039999999917
0
LINE
8
BLACK
6
CONTINUOUS
10
200.407872999999995
20
-76.3361039999999917
11
200.3590989999999863
21
-76.4090989999999977
0
LINE
8
BLACK
6
CONTINUOUS
10
200.3590989999999863
20
-76.4090989999999977
11
200.2861039999999946
21
-76.4578729999999922
0
LINE
8
BLACK
6
CONTINUOUS
10
200.2861039999999946
20
-76.4578729999999922
11
200.1999999999999886
21
-76.4749999999999943
0
LINE
8
BLACK
6
CONTINUOUS
10
200.1999999999999886
20
-76.4749999999999943
11
199.75
21
-76.4749999999999943
0
LINE
8
BLACK
6
CONTINUOUS
10
199.75
20
-76.4749999999999943
11
199.663895999999994
21
-76.4578729999999922
0
LINE
8
BLACK
6
CONTINUOUS
10
199.663895999999994
20
-76.4578729999999922
11
199.5909010000000023
21
-76.4090989999999977
0
LINE
8
BLACK
6
CONTINUOUS
10
199.5909010000000023
20
-76.4090989999999977
11
199.5421269999999936
21
-76.3361039999999917
0
LINE
8
BLACK
6
CONTINUOUS
10
199.5421269999999936
20
-76.3361039999999917
11
199.5249999999999773
21
-76.25
0
LINE
8
BLACK
6
CONTINUOUS
10
199.5249999999999773
20
-76.25
11
199.5249999999999773
21
-75.75
0
LINE
8
BLACK
6
CONTINUOUS
10
199.5249999999999773
20
-75.75
11
199.5421269999999936
21
-75.663895999999994
0
LINE
8
BLACK
6
CONTINUOUS
10
199.5421269999999936
20
-75.663895999999994
11
199.5909010000000023
21
-75.5909010000000023
0
LINE
8
BLACK
6
CONTINUOUS
10
199.5909010000000023
20
-75.5909010000000023
11
199.663895999999994
21
-75.5421269999999936
0
LINE
8
BLACK
6
CONTINUOUS
10
199.663895999999994
20
-75.5421269999999936
11
199.75
21
-75.5249999999999915
0
LINE
8
BLACK
6
CONTINUOUS
10
199.75
20
-75.5249999999999915
11
200.1999999999999886
21
-75.5249999999999915
0
LINE
8
BLACK
6
CONTINUOUS
10
200.1999999999999886
20
-75.5249999999999915
11
200.2861039999999946
21
-75.5421269999999936
0
LINE
8
BLACK
6
CONTINUOUS
10
195.5974029999999857
20
-73.0114179999999919
11
195.6460659999999905
21
-73.043933999999993
0
LINE
8
BLACK
6
CONTINUOUS
10
195.6460659999999905
20
-73.043933999999993
11
195.6785819999999774
21
-73.0925969999999978
0
LINE
8
BLACK
6
CONTINUOUS
10
195.6785819999999774
20
-73.0925969999999978
11
195.6899999999999977
21
-73.1499999999999915
0
LINE
8
BLACK
6
CONTINUOUS
10
195.6899999999999977
20
-73.1499999999999915
11
195.6899999999999977
21
-74.7999999999999972
0
LINE
8
BLACK
6
CONTINUOUS
10
195.6899999999999977
20
-74.7999999999999972
11
195.6785819999999774
21
-74.8574029999999908
0
LINE
8
BLACK
6
CONTINUOUS
10
195.6785819999999774
20
-74.8574029999999908
11
195.6460659999999905
21
-74.9060659999999956
0
LINE
8
BLACK
6
CONTINUOUS
10
195.6460659999999905
20
-74.9060659999999956
11
195.5974029999999857
21
-74.9385819999999967
0
LINE
8
BLACK
6
CONTINUOUS
10
195.5974029999999857
20
-74.9385819999999967
11
195.539999999999992
21
-74.9500000000000028
0
LINE
8
BLACK
6
CONTINUOUS
10
195.539999999999992
20
-74.9500000000000028
11
195.2399999999999807
21
-74.9500000000000028
0
LINE
8
BLACK
6
CONTINUOUS
10
195.2399999999999807
20
-74.9500000000000028
11
195.182596999999987
21
-74.9385819999999967
0
LINE
8
BLACK
6
CONTINUOUS
10
195.182596999999987
20
-74.9385819999999967
11
195.1339339999999822
21
-74.9060659999999956
0
LINE
8
BLACK
6
CONTINUOUS
10
195.1339339999999822
20
-74.9060659999999956
11
195.1014179999999953
21
-74.8574029999999908
0
LINE
8
BLACK
6
CONTINUOUS
10
195.1014179999999953
20
-74.8574029999999908
11
195.0900000000000034
21
-74.7999999999999972
0
LINE
8
BLACK
6
CONTINUOUS
10
195.0900000000000034
20
-74.7999999999999972
11
195.0900000000000034
21
-73.1499999999999915
0
LINE
8
BLACK
6
CONTINUOUS
10
195.0900000000000034
20
-73.1499999999999915
11
195.1014179999999953
21
-73.0925969999999978
0
LINE
8
BLACK
6
CONTINUOUS
10
195.1014179999999953
20
-73.0925969999999978
11
195.1339339999999822
21
-73.043933999999993
0
LINE
8
BLACK
6
CONTINUOUS
10
195.1339339999999822
20
-73.043933999999993
11
195.182596999999987
21
-73.0114179999999919
0
LINE
8
BLACK
6
CONTINUOUS
10
195.182596999999987
20
-73.0114179999999919
11
195.2399999999999807
21
-73.
0
LINE
8
BLACK
6
CONTINUOUS
10
195.2399999999999807
20
-73.
11
195.539999999999992
21
-73.
0
LINE
8
BLACK
6
CONTINUOUS
10
195.539999999999992
20
-73.
11
195.5974029999999857
21
-73.0114179999999919
0
LINE
8
BLACK
6
CONTINUOUS
10
196.8674029999999959
20
-73.0114179999999919
11
196.9160660000000007
21
-73.043933999999993
0
LINE
8
BLACK
6
CONTINUOUS
10
196.9160660000000007
20
-73.043933999999993
11
196.9485819999999876
21
-73.0925969999999978
0
LINE
8
BLACK
6
CONTINUOUS
10
196.9485819999999876
20
-73.0925969999999978
11
196.9599999999999795
21
-73.1499999999999915
0
LINE
8
BLACK
6
CONTINUOUS
10
196.9599999999999795
20
-73.1499999999999915
11
196.9599999999999795
21
-74.7999999999999972
0
LINE
8
BLACK
6
CONTINUOUS
10
196.9599999999999795
20
-74.7999999999999972
11
196.9485819999999876
21
-74.8574029999999908
0
LINE
8
BLACK
6
CONTINUOUS
10
196.9485819999999876
20
-74.8574029999999908
11
196.9160660000000007
21
-74.9060659999999956
0
LINE
8
BLACK
6
CONTINUOUS
10
196.9160660000000007
20
-74.9060659999999956
11
196.8674029999999959
21
-74.9385819999999967
0
LINE
8
BLACK
6
CONTINUOUS
10
196.8674029999999959
20
-74.9385819999999967
11
196.8100000000000023
21
-74.9500000000000028
0
LINE
8
BLACK
6
CONTINUOUS
10
196.8100000000000023
20
-74.9500000000000028
11
196.5099999999999909
21
-74.9500000000000028
0
LINE
8
BLACK
6
CONTINUOUS
10
196.5099999999999909
20
-74.9500000000000028
11
196.4525969999999973
21
-74.9385819999999967
0
LINE
8
BLACK
6
CONTINUOUS
10
196.4525969999999973
20
-74.9385819999999967
11
196.4039339999999925
21
-74.9060659999999956
0
LINE
8
BLACK
6
CONTINUOUS
10
196.4039339999999925
20
-74.9060659999999956
11
196.3714179999999772
21
-74.8574029999999908
0
LINE
8
BLACK
6
CONTINUOUS
10
196.3714179999999772
20
-74.8574029999999908
11
196.3599999999999852
21
-74.7999999999999972
0
LINE
8
BLACK
6
CONTINUOUS
10
196.3599999999999852
20
-74.7999999999999972
11
196.3599999999999852
21
-73.1499999999999915
0
LINE
8
BLACK
6
CONTINUOUS
10
196.3599999999999852
20
-73.1499999999999915
11
196.3714179999999772
21
-73.0925969999999978
0
LINE
8
BLACK
6
CONTINUOUS
10
196.3714179999999772
20
-73.0925969999999978
11
196.4039339999999925
21
-73.043933999999993
0
LINE
8
BLACK
6
CONTINUOUS
10
196.4039339999999925
20
-73.043933999999993
11
196.4525969999999973
21
-73.0114179999999919
0
LINE
8
BLACK
6
CONTINUOUS
10
196.4525969999999973
20
-73.0114179999999919
11
196.5099999999999909
21
-73.
0
LINE
8
BLACK
6
CONTINUOUS
10
196.5099999999999909
20
-73.
11
196.8100000000000023
21
-73.
0
LINE
8
BLACK
6
CONTINUOUS
10
196.8100000000000023
20
-73.
11
196.8674029999999959
21
-73.0114179999999919
0
LINE
8
BLACK
6
CONTINUOUS
10
198.1374029999999777
20
-73.0114179999999919
11
198.1860659999999825
21
-73.043933999999993
0
LINE
8
BLACK
6
CONTINUOUS
10
198.1860659999999825
20
-73.043933999999993
11
198.2185819999999978
21
-73.0925969999999978
0
LINE
8
BLACK
6
CONTINUOUS
10
198.2185819999999978
20
-73.0925969999999978
11
198.2299999999999898
21
-73.1499999999999915
0
LINE
8
BLACK
6
CONTINUOUS
10
198.2299999999999898
20
-73.1499999999999915
11
198.2299999999999898
21
-74.7999999999999972
0
LINE
8
BLACK
6
CONTINUOUS
10
198.2299999999999898
20
-74.7999999999999972
11
198.2185819999999978
21
-74.8574029999999908
0
LINE
8
BLACK
6
CONTINUOUS
10
198.2185819999999978
20
-74.8574029999999908
11
198.1860659999999825
21
-74.9060659999999956
0
LINE
8
BLACK
6
CONTINUOUS
10
198.1860659999999825
20
-74.9060659999999956
11
198.1374029999999777
21
-74.9385819999999967
0
LINE
8
BLACK
6
CONTINUOUS
10
198.1374029999999777
20
-74.9385819999999967
11
198.0799999999999841
21
-74.9500000000000028
0
LINE
8
BLACK
6
CONTINUOUS
10
198.0799999999999841
20
-74.9500000000000028
11
197.7800000000000011
21
-74.9500000000000028
0
LINE
8
BLACK
6
CONTINUOUS
10
197.7800000000000011
20
-74.9500000000000028
11
197.7225969999999791
21
-74.9385819999999967
0
LINE
8
BLACK
6
CONTINUOUS
10
197.7225969999999791
20
-74.9385819999999967
11
197.6739340000000027
21
-74.9060659999999956
0
LINE
8
BLACK
6
CONTINUOUS
10
197.6739340000000027
20
-74.9060659999999956
11
197.6414179999999874
21
-74.8574029999999908
0
LINE
8
BLACK
6
CONTINUOUS
10
197.6414179999999874
20
-74.8574029999999908
11
197.6299999999999955
21
-74.7999999999999972
0
LINE
8
BLACK
6
CONTINUOUS
10
197.6299999999999955
20
-74.7999999999999972
11
197.6299999999999955
21
-73.1499999999999915
0
LINE
8
BLACK
6
CONTINUOUS
10
197.6299999999999955
20
-73.1499999999999915
11
197.6414179999999874
21
-73.0925969999999978
0
LINE
8
BLACK
6
CONTINUOUS
10
197.6414179999999874
20
-73.0925969999999978
11
197.6739340000000027
21
-73.043933999999993
0
LINE
8
BLACK
6
CONTINUOUS
10
197.6739340000000027
20
-73.043933999999993
11
197.7225969999999791
21
-73.0114179999999919
0
LINE
8
BLACK
6
CONTINUOUS
10
197.7225969999999791
20
-73.0114179999999919
11
197.7800000000000011
21
-73.
0
LINE
8
BLACK
6
CONTINUOUS
10
197.7800000000000011
20
-73.
11
198.0799999999999841
21
-73.
0
LINE
8
BLACK
6
CONTINUOUS
10
198.0799999999999841
20
-73.
11
198.1374029999999777
21
-73.0114179999999919
0
LINE
8
BLACK
6
CONTINUOUS
10
199.407402999999988
20
-73.0114179999999919
11
199.4560659999999928
21
-73.043933999999993
0
LINE
8
BLACK
6
CONTINUOUS
10
199.4560659999999928
20
-73.043933999999993
11
199.4885819999999796
21
-73.0925969999999978
0
LINE
8
BLACK
6
CONTINUOUS
10
199.4885819999999796
20
-73.0925969999999978
11
199.5
21
-73.1499999999999915
0
LINE
8
BLACK
6
CONTINUOUS
10
199.5
20
-73.1499999999999915
11
199.5
21
-74.7999999999999972
0
LINE
8
BLACK
6
CONTINUOUS
10
199.5
20
-74.7999999999999972
11
199.4885819999999796
21
-74.8574029999999908
0
LINE
8
BLACK
6
CONTINUOUS
10
199.4885819999999796
20
-74.8574029999999908
11
199.4560659999999928
21
-74.9060659999999956
0
LINE
8
BLACK
6
CONTINUOUS
10
199.4560659999999928
20
-74.9060659999999956
11
199.407402999999988
21
-74.9385819999999967
0
LINE
8
BLACK
6
CONTINUOUS
10
199.407402999999988
20
-74.9385819999999967
11
199.3499999999999943
21
-74.9500000000000028
0
LINE
8
BLACK
6
CONTINUOUS
10
199.3499999999999943
20
-74.9500000000000028
11
199.0499999999999829
21
-74.9500000000000028
0
LINE
8
BLACK
6
CONTINUOUS
10
199.0499999999999829
20
-74.9500000000000028
11
198.9925969999999893
21
-74.9385819999999967
0
LINE
8
BLACK
6
CONTINUOUS
10
198.9925969999999893
20
-74.9385819999999967
11
198.9439339999999845
21
-74.9060659999999956
0
LINE
8
BLACK
6
CONTINUOUS
10
198.9439339999999845
20
-74.9060659999999956
11
198.9114179999999976
21
-74.8574029999999908
0
LINE
8
BLACK
6
CONTINUOUS
10
198.9114179999999976
20
-74.8574029999999908
11
198.8999999999999773
21
-74.7999999999999972
0
LINE
8
BLACK
6
CONTINUOUS
10
198.8999999999999773
20
-74.7999999999999972
11
198.8999999999999773
21
-73.1499999999999915
0
LINE
8
BLACK
6
CONTINUOUS
10
198.8999999999999773
20
-73.1499999999999915
11
198.9114179999999976
21
-73.0925969999999978
0
LINE
8
BLACK
6
CONTINUOUS
10
198.9114179999999976
20
-73.0925969999999978
11
198.9439339999999845
21
-73.043933999999993
0
LINE
8
BLACK
6
CONTINUOUS
10
198.9439339999999845
20
-73.043933999999993
11
198.9925969999999893
21
-73.0114179999999919
0
LINE
8
BLACK
6
CONTINUOUS
10
198.9925969999999893
20
-73.0114179999999919
11
199.0499999999999829
21
-73.
0
LINE
8
BLACK
6
CONTINUOUS
10
199.0499999999999829
20
-73.
11
199.3499999999999943
21
-73.
0
LINE
8
BLACK
6
CONTINUOUS
10
199.3499999999999943
20
-73.
11
199.407402999999988
21
-73.0114179999999919
0
LINE
8
BLACK
6
CONTINUOUS
10
200.6774029999999982
20
-73.0114179999999919
11
200.726066000000003
21
-73.043933999999993
0
LINE
8
BLACK
6
CONTINUOUS
10
200.726066000000003
20
-73.043933999999993
11
200.7585819999999899
21
-73.0925969999999978
0
LINE
8
BLACK
6
CONTINUOUS
10
200.7585819999999899
20
-73.0925969999999978
11
200.7699999999999818
21
-73.1499999999999915
0
LINE
8
BLACK
6
CONTINUOUS
10
200.7699999999999818
20
-73.1499999999999915
11
200.7699999999999818
21
-74.7999999999999972
0
LINE
8
BLACK
6
CONTINUOUS
10
200.7699999999999818
20
-74.7999999999999972
11
200.7585819999999899
21
-74.8574029999999908
0
LINE
8
BLACK
6
CONTINUOUS
10
200.7585819999999899
20
-74.8574029999999908
11
200.726066000000003
21
-74.9060659999999956
0
LINE
8
BLACK
6
CONTINUOUS
10
200.726066000000003
20
-74.9060659999999956
11
200.6774029999999982
21
-74.9385819999999967
0
LINE
8
BLACK
6
CONTINUOUS
10
200.6774029999999982
20
-74.9385819999999967
11
200.6200000000000045
21
-74.9500000000000028
0
LINE
8
BLACK
6
CONTINUOUS
10
200.6200000000000045
20
-74.9500000000000028
11
200.3199999999999932
21
-74.9500000000000028
0
LINE
8
BLACK
6
CONTINUOUS
10
200.3199999999999932
20
-74.9500000000000028
11
200.2625969999999995
21
-74.9385819999999967
0
LINE
8
BLACK
6
CONTINUOUS
10
200.2625969999999995
20
-74.9385819999999967
11
200.2139339999999947
21
-74.9060659999999956
0
LINE
8
BLACK
6
CONTINUOUS
10
200.2139339999999947
20
-74.9060659999999956
11
200.1814179999999794
21
-74.8574029999999908
0
LINE
8
BLACK
6
CONTINUOUS
10
200.1814179999999794
20
-74.8574029999999908
11
200.1699999999999875
21
-74.7999999999999972
0
LINE
8
BLACK
6
CONTINUOUS
10
200.1699999999999875
20
-74.7999999999999972
11
200.1699999999999875
21
-73.1499999999999915
0
LINE
8
BLACK
6
CONTINUOUS
10
200.1699999999999875
20
-73.1499999999999915
11
200.1814179999999794
21
-73.0925969999999978
0
LINE
8
BLACK
6
CONTINUOUS
10
200.1814179999999794
20
-73.0925969999999978
11
200.2139339999999947
21
-73.043933999999993
0
LINE
8
BLACK
6
CONTINUOUS
10
200.2139339999999947
20
-73.043933999999993
11
200.2625969999999995
21
-73.0114179999999919
0
LINE
8
BLACK
6
CONTINUOUS
10
200.2625969999999995
20
-73.0114179999999919
11
200.3199999999999932
21
-73.
0
LINE
8
BLACK
6
CONTINUOUS
10
200.3199999999999932
20
-73.
11
200.6200000000000045
21
-73.
0
LINE
8
BLACK
6
CONTINUOUS
10
200.6200000000000045
20
-73.
11
200.6774029999999982
21
-73.0114179999999919
0
LINE
8
BLACK
6
CONTINUOUS
10
201.94740299999998
20
-73.0114179999999919
11
201.9960659999999848
21
-73.043933999999993
0
LINE
8
BLACK
6
CONTINUOUS
10
201.9960659999999848
20
-73.043933999999993
11
202.0285820000000001
21
-73.0925969999999978
0
LINE
8
BLACK
6
CONTINUOUS
10
202.0285820000000001
20
-73.0925969999999978
11
202.039999999999992
21
-73.1499999999999915
0
LINE
8
BLACK
6
CONTINUOUS
10
202.039999999999992
20
-73.1499999999999915
11
202.039999999999992
21
-74.7999999999999972
0
LINE
8
BLACK
6
CONTINUOUS
10
202.039999999999992
20
-74.7999999999999972
11
202.0285820000000001
21
-74.8574029999999908
0
LINE
8
BLACK
6
CONTINUOUS
10
202.0285820000000001
20
-74.8574029999999908
11
201.9960659999999848
21
-74.9060659999999956
0
LINE
8
BLACK
6
CONTINUOUS
10
201.9960659999999848
20
-74.9060659999999956
11
201.94740299999998
21
-74.9385819999999967
0
LINE
8
BLACK
6
CONTINUOUS
10
201.94740299999998
20
-74.9385819999999967
11
201.8899999999999864
21
-74.9500000000000028
0
LINE
8
BLACK
6
CONTINUOUS
10
201.8899999999999864
20
-74.9500000000000028
11
201.5900000000000034
21
-74.9500000000000028
0
LINE
8
BLACK
6
CONTINUOUS
10
201.5900000000000034
20
-74.9500000000000028
11
201.5325969999999813
21
-74.9385819999999967
0
LINE
8
BLACK
6
CONTINUOUS
10
201.5325969999999813
20
-74.9385819999999967
11
201.483934000000005
21
-74.9060659999999956
0
LINE
8
BLACK
6
CONTINUOUS
10
201.483934000000005
20
-74.9060659999999956
11
201.4514179999999897
21
-74.8574029999999908
0
LINE
8
BLACK
6
CONTINUOUS
10
201.4514179999999897
20
-74.8574029999999908
11
201.4399999999999977
21
-74.7999999999999972
0
LINE
8
BLACK
6
CONTINUOUS
10
201.4399999999999977
20
-74.7999999999999972
11
201.4399999999999977
21
-73.1499999999999915
0
LINE
8
BLACK
6
CONTINUOUS
10
201.4399999999999977
20
-73.1499999999999915
11
201.4514179999999897
21
-73.0925969999999978
0
LINE
8
BLACK
6
CONTINUOUS
10
201.4514179999999897
20
-73.0925969999999978
11
201.483934000000005
21
-73.043933999999993
0
LINE
8
BLACK
6
CONTINUOUS
10
201.483934000000005
20
-73.043933999999993
11
201.5325969999999813
21
-73.0114179999999919
0
LINE
8
BLACK
6
CONTINUOUS
10
201.5325969999999813
20
-73.0114179999999919
11
201.5900000000000034
21
-73.
0
LINE
8
BLACK
6
CONTINUOUS
10
201.5900000000000034
20
-73.
11
201.8899999999999864
21
-73.
0
LINE
8
BLACK
6
CONTINUOUS
10
201.8899999999999864
20
-73.
11
201.94740299999998
21
-73.0114179999999919
0
LINE
8
BLACK
6
CONTINUOUS
10
203.2174029999999902
20
-73.0114179999999919
11
203.266065999999995
21
-73.043933999999993
0
LINE
8
BLACK
6
CONTINUOUS
10
203.266065999999995
20
-73.043933999999993
11
203.2985819999999819
21
-73.0925969999999978
0
LINE
8
BLACK
6
CONTINUOUS
10
203.2985819999999819
20
-73.0925969999999978
11
203.3100000000000023
21
-73.1499999999999915
0
LINE
8
BLACK
6
CONTINUOUS
10
203.3100000000000023
20
-73.1499999999999915
11
203.3100000000000023
21
-74.7999999999999972
0
LINE
8
BLACK
6
CONTINUOUS
10
203.3100000000000023
20
-74.7999999999999972
11
203.2985819999999819
21
-74.8574029999999908
0
LINE
8
BLACK
6
CONTINUOUS
10
203.2985819999999819
20
-74.8574029999999908
11
203.266065999999995
21
-74.9060659999999956
0
LINE
8
BLACK
6
CONTINUOUS
10
203.266065999999995
20
-74.9060659999999956
11
203.2174029999999902
21
-74.9385819999999967
0
LINE
8
BLACK
6
CONTINUOUS
10
203.2174029999999902
20
-74.9385819999999967
11
203.1599999999999966
21
-74.9500000000000028
0
LINE
8
BLACK
6
CONTINUOUS
10
203.1599999999999966
20
-74.9500000000000028
11
202.8599999999999852
21
-74.9500000000000028
0
LINE
8
BLACK
6
CONTINUOUS
10
202.8599999999999852
20
-74.9500000000000028
11
202.8025969999999916
21
-74.9385819999999967
0
LINE
8
BLACK
6
CONTINUOUS
10
202.8025969999999916
20
-74.9385819999999967
11
202.7539339999999868
21
-74.9060659999999956
0
LINE
8
BLACK
6
CONTINUOUS
10
202.7539339999999868
20
-74.9060659999999956
11
202.7214179999999999
21
-74.8574029999999908
0
LINE
8
BLACK
6
CONTINUOUS
10
202.7214179999999999
20
-74.8574029999999908
11
202.7099999999999795
21
-74.7999999999999972
0
LINE
8
BLACK
6
CONTINUOUS
10
202.7099999999999795
20
-74.7999999999999972
11
202.7099999999999795
21
-73.1499999999999915
0
LINE
8
BLACK
6
CONTINUOUS
10
202.7099999999999795
20
-73.1499999999999915
11
202.7214179999999999
21
-73.0925969999999978
0
LINE
8
BLACK
6
CONTINUOUS
10
202.7214179999999999
20
-73.0925969999999978
11
202.7539339999999868
21
-73.043933999999993
0
LINE
8
BLACK
6
CONTINUOUS
10
202.7539339999999868
20
-73.043933999999993
11
202.8025969999999916
21
-73.0114179999999919
0
LINE
8
BLACK
6
CONTINUOUS
10
202.8025969999999916
20
-73.0114179999999919
11
202.8599999999999852
21
-73.
0
LINE
8
BLACK
6
CONTINUOUS
10
202.8599999999999852
20
-73.
11
203.1599999999999966
21
-73.
0
LINE
8
BLACK
6
CONTINUOUS
10
203.1599999999999966
20
-73.
11
203.2174029999999902
21
-73.0114179999999919
0
LINE
8
BLACK
6
CONTINUOUS
10
195.5974029999999857
20
-68.0614180000000033
11
195.6460659999999905
21
-68.0939339999999902
0
LINE
8
BLACK
6
CONTINUOUS
10
195.6460659999999905
20
-68.0939339999999902
11
195.6785819999999774
21
-68.142596999999995
0
LINE
8
BLACK
6
CONTINUOUS
10
195.6785819999999774
20
-68.142596999999995
11
195.6899999999999977
21
-68.2000000000000028
0
LINE
8
BLACK
6
CONTINUOUS
10
195.6899999999999977
20
-68.2000000000000028
11
195.6899999999999977
21
-69.8499999999999943
0
LINE
8
BLACK
6
CONTINUOUS
10
195.6899999999999977
20
-69.8499999999999943
11
195.6785819999999774
21
-69.9074030000000022
0
LINE
8
BLACK
6
CONTINUOUS
10
195.6785819999999774
20
-69.9074030000000022
11
195.6460659999999905
21
-69.9560659999999928
0
LINE
8
BLACK
6
CONTINUOUS
10
195.6460659999999905
20
-69.9560659999999928
11
195.5974029999999857
21
-69.9885819999999939
0
LINE
8
BLACK
6
CONTINUOUS
10
195.5974029999999857
20
-69.9885819999999939
11
195.539999999999992
21
-70.
0
LINE
8
BLACK
6
CONTINUOUS
10
195.539999999999992
20
-70.
11
195.2399999999999807
21
-70.
0
LINE
8
BLACK
6
CONTINUOUS
10
195.2399999999999807
20
-70.
11
195.182596999999987
21
-69.9885819999999939
0
LINE
8
BLACK
6
CONTINUOUS
10
195.182596999999987
20
-69.9885819999999939
11
195.1339339999999822
21
-69.9560659999999928
0
LINE
8
BLACK
6
CONTINUOUS
10
195.1339339999999822
20
-69.9560659999999928
11
195.1014179999999953
21
-69.9074030000000022
0
LINE
8
BLACK
6
CONTINUOUS
10
195.1014179999999953
20
-69.9074030000000022
11
195.0900000000000034
21
-69.8499999999999943
0
LINE
8
BLACK
6
CONTINUOUS
10
195.0900000000000034
20
-69.8499999999999943
11
195.0900000000000034
21
-68.2000000000000028
0
LINE
8
BLACK
6
CONTINUOUS
10
195.0900000000000034
20
-68.2000000000000028
11
195.1014179999999953
21
-68.142596999999995
0
LINE
8
BLACK
6
CONTINUOUS
10
195.1014179999999953
20
-68.142596999999995
11
195.1339339999999822
21
-68.0939339999999902
0
LINE
8
BLACK
6
CONTINUOUS
10
195.1339339999999822
20
-68.0939339999999902
11
195.182596999999987
21
-68.0614180000000033
0
LINE
8
BLACK
6
CONTINUOUS
10
195.182596999999987
20
-68.0614180000000033
11
195.2399999999999807
21
-68.0499999999999972
0
LINE
8
BLACK
6
CONTINUOUS
10
195.2399999999999807
20
-68.0499999999999972
11
195.539999999999992
21
-68.0499999999999972
0
LINE
8
BLACK
6
CONTINUOUS
10
195.539999999999992
20
-68.0499999999999972
11
195.5974029999999857
21
-68.0614180000000033
0
LINE
8
BLACK
6
CONTINUOUS
10
196.8674029999999959
20
-68.0614180000000033
11
196.9160660000000007
21
-68.0939339999999902
0
LINE
8
BLACK
6
CONTINUOUS
10
196.9160660000000007
20
-68.0939339999999902
11
196.9485819999999876
21
-68.142596999999995
0
LINE
8
BLACK
6
CONTINUOUS
10
196.9485819999999876
20
-68.142596999999995
11
196.9599999999999795
21
-68.2000000000000028
0
LINE
8
BLACK
6
CONTINUOUS
10
196.9599999999999795
20
-68.2000000000000028
11
196.9599999999999795
21
-69.8499999999999943
0
LINE
8
BLACK
6
CONTINUOUS
10
196.9599999999999795
20
-69.8499999999999943
11
196.9485819999999876
21
-69.9074030000000022
0
LINE
8
BLACK
6
CONTINUOUS
10
196.9485819999999876
20
-69.9074030000000022
11
196.9160660000000007
21
-69.9560659999999928
0
LINE
8
BLACK
6
CONTINUOUS
10
196.9160660000000007
20
-69.9560659999999928
11
196.8674029999999959
21
-69.9885819999999939
0
LINE
8
BLACK
6
CONTINUOUS
10
196.8674029999999959
20
-69.9885819999999939
11
196.8100000000000023
21
-70.
0
LINE
8
BLACK
6
CONTINUOUS
10
196.8100000000000023
20
-70.
11
196.5099999999999909
21
-70.
0
LINE
8
BLACK
6
CONTINUOUS
10
196.5099999999999909
20
-70.
11
196.4525969999999973
21
-69.9885819999999939
0
LINE
8
BLACK
6
CONTINUOUS
10
196.4525969999999973
20
-69.9885819999999939
11
196.4039339999999925
21
-69.9560659999999928
0
LINE
8
BLACK
6
CONTINUOUS
10
196.4039339999999925
20
-69.9560659999999928
11
196.3714179999999772
21
-69.9074030000000022
0
LINE
8
BLACK
6
CONTINUOUS
10
196.3714179999999772
20
-69.9074030000000022
11
196.3599999999999852
21
-69.8499999999999943
0
LINE
8
BLACK
6
CONTINUOUS
10
196.3599999999999852
20
-69.8499999999999943
11
196.3599999999999852
21
-68.2000000000000028
0
LINE
8
BLACK
6
CONTINUOUS
10
196.3599999999999852
20
-68.2000000000000028
11
196.3714179999999772
21
-68.142596999999995
0
LINE
8
BLACK
6
CONTINUOUS
10
196.3714179999999772
20
-68.142596999999995
11
196.4039339999999925
21
-68.0939339999999902
0
LINE
8
BLACK
6
CONTINUOUS
10
196.4039339999999925
20
-68.0939339999999902
11
196.4525969999999973
21
-68.0614180000000033
0
LINE
8
BLACK
6
CONTINUOUS
10
196.4525969999999973
20
-68.0614180000000033
11
196.5099999999999909
21
-68.0499999999999972
0
LINE
8
BLACK
6
CONTINUOUS
10
196.5099999999999909
20
-68.0499999999999972
11
196.8100000000000023
21
-68.0499999999999972
0
LINE
8
BLACK
6
CONTINUOUS
10
196.8100000000000023
20
-68.0499999999999972
11
196.8674029999999959
21
-68.0614180000000033
0
LINE
8
BLACK
6
CONTINUOUS
10
198.1374029999999777
20
-68.0614180000000033
11
198.1860659999999825
21
-68.0939339999999902
0
LINE
8
BLACK
6
CONTINUOUS
10
198.1860659999999825
20
-68.0939339999999902
11
198.2185819999999978
21
-68.142596999999995
0
LINE
8
BLACK
6
CONTINUOUS
10
198.2185819999999978
20
-68.142596999999995
11
198.2299999999999898
21
-68.2000000000000028
0
LINE
8
BLACK
6
CONTINUOUS
10
198.2299999999999898
20
-68.2000000000000028
11
198.2299999999999898
21
-69.8499999999999943
0
LINE
8
BLACK
6
CONTINUOUS
10
198.2299999999999898
20
-69.8499999999999943
11
198.2185819999999978
21
-69.9074030000000022
0
LINE
8
BLACK
6
CONTINUOUS
10
198.2185819999999978
20
-69.9074030000000022
11
198.1860659999999825
21
-69.9560659999999928
0
LINE
8
BLACK
6
CONTINUOUS
10
198.1860659999999825
20
-69.9560659999999928
11
198.1374029999999777
21
-69.9885819999999939
0
LINE
8
BLACK
6
CONTINUOUS
10
198.1374029999999777
20
-69.9885819999999939
11
198.0799999999999841
21
-70.
0
LINE
8
BLACK
6
CONTINUOUS
10
198.0799999999999841
20
-70.
11
197.7800000000000011
21
-70.
0
LINE
8
BLACK
6
CONTINUOUS
10
197.7800000000000011
20
-70.
11
197.7225969999999791
21
-69.9885819999999939
0
LINE
8
BLACK
6
CONTINUOUS
10
197.7225969999999791
20
-69.9885819999999939
11
197.6739340000000027
21
-69.9560659999999928
0
LINE
8
BLACK
6
CONTINUOUS
10
197.6739340000000027
20
-69.9560659999999928
11
197.6414179999999874
21
-69.9074030000000022
0
LINE
8
BLACK
6
CONTINUOUS
10
197.6414179999999874
20
-69.9074030000000022
11
197.6299999999999955
21
-69.8499999999999943
0
LINE
8
BLACK
6
CONTINUOUS
10
197.6299999999999955
20
-69.8499999999999943
11
197.6299999999999955
21
-68.2000000000000028
0
LINE
8
BLACK
6
CONTINUOUS
10
197.6299999999999955
20
-68.2000000000000028
11
197.6414179999999874
21
-68.142596999999995
0
LINE
8
BLACK
6
CONTINUOUS
10
197.6414179999999874
20
-68.142596999999995
11
197.6739340000000027
21
-68.0939339999999902
0
LINE
8
BLACK
6
CONTINUOUS
10
197.6739340000000027
20
-68.0939339999999902
11
197.7225969999999791
21
-68.0614180000000033
0
LINE
8
BLACK
6
CONTINUOUS
10
197.7225969999999791
20
-68.0614180000000033
11
197.7800000000000011
21
-68.0499999999999972
0
LINE
8
BLACK
6
CONTINUOUS
10
197.7800000000000011
20
-68.0499999999999972
11
198.0799999999999841
21
-68.0499999999999972
0
LINE
8
BLACK
6
CONTINUOUS
10
198.0799999999999841
20
-68.0499999999999972
11
198.1374029999999777
21
-68.0614180000000033
0
LINE
8
BLACK
6
CONTINUOUS
10
199.407402999999988
20
-68.0614180000000033
11
199.4560659999999928
21
-68.0939339999999902
0
LINE
8
BLACK
6
CONTINUOUS
10
199.4560659999999928
20
-68.0939339999999902
11
199.4885819999999796
21
-68.142596999999995
0
LINE
8
BLACK
6
CONTINUOUS
10
199.4885819999999796
20
-68.142596999999995
11
199.5
21
-68.2000000000000028
0
LINE
8
BLACK
6
CONTINUOUS
10
199.5
20
-68.2000000000000028
11
199.5
21
-69.8499999999999943
0
LINE
8
BLACK
6
CONTINUOUS
10
199.5
20
-69.8499999999999943
11
199.4885819999999796
21
-69.9074030000000022
0
LINE
8
BLACK
6
CONTINUOUS
10
199.4885819999999796
20
-69.9074030000000022
11
199.4560659999999928
21
-69.9560659999999928
0
LINE
8
BLACK
6
CONTINUOUS
10
199.4560659999999928
20
-69.9560659999999928
11
199.407402999999988
21
-69.9885819999999939
0
LINE
8
BLACK
6
CONTINUOUS
10
199.407402999999988
20
-69.9885819999999939
11
199.3499999999999943
21
-70.
0
LINE
8
BLACK
6
CONTINUOUS
10
199.3499999999999943
20
-70.
11
199.0499999999999829
21
-70.
0
LINE
8
BLACK
6
CONTINUOUS
10
199.0499999999999829
20
-70.
11
198.9925969999999893
21
-69.9885819999999939
0
LINE
8
BLACK
6
CONTINUOUS
10
198.9925969999999893
20
-69.9885819999999939
11
198.9439339999999845
21
-69.9560659999999928
0
LINE
8
BLACK
6
CONTINUOUS
10
198.9439339999999845
20
-69.9560659999999928
11
198.9114179999999976
21
-69.9074030000000022
0
LINE
8
BLACK
6
CONTINUOUS
10
198.9114179999999976
20
-69.9074030000000022
11
198.8999999999999773
21
-69.8499999999999943
0
LINE
8
BLACK
6
CONTINUOUS
10
198.8999999999999773
20
-69.8499999999999943
11
198.8999999999999773
21
-68.2000000000000028
0
LINE
8
BLACK
6
CONTINUOUS
10
198.8999999999999773
20
-68.2000000000000028
11
198.9114179999999976
21
-68.142596999999995
0
LINE
8
BLACK
6
CONTINUOUS
10
198.9114179999999976
20
-68.142596999999995
11
198.9439339999999845
21
-68.0939339999999902
0
LINE
8
BLACK
6
CONTINUOUS
10
198.9439339999999845
20
-68.0939339999999902
11
198.9925969999999893
21
-68.0614180000000033
0
LINE
8
BLACK
6
CONTINUOUS
10
198.9925969999999893
20
-68.0614180000000033
11
199.0499999999999829
21
-68.0499999999999972
0
LINE
8
BLACK
6
CONTINUOUS
10
199.0499999999999829
20
-68.0499999999999972
11
199.3499999999999943
21
-68.0499999999999972
0
LINE
8
BLACK
6
CONTINUOUS
10
199.3499999999999943
20
-68.0499999999999972
11
199.407402999999988
21
-68.0614180000000033
0
LINE
8
BLACK
6
CONTINUOUS
10
200.6774029999999982
20
-68.0614180000000033
11
200.726066000000003
21
-68.0939339999999902
0
LINE
8
BLACK
6
CONTINUOUS
10
200.726066000000003
20
-68.0939339999999902
11
200.7585819999999899
21
-68.142596999999995
0
LINE
8
BLACK
6
CONTINUOUS
10
200.7585819999999899
20
-68.142596999999995
11
200.7699999999999818
21
-68.2000000000000028
0
LINE
8
BLACK
6
CONTINUOUS
10
200.7699999999999818
20
-68.2000000000000028
11
200.7699999999999818
21
-69.8499999999999943
0
LINE
8
BLACK
6
CONTINUOUS
10
200.7699999999999818
20
-69.8499999999999943
11
200.7585819999999899
21
-69.9074030000000022
0
LINE
8
BLACK
6
CONTINUOUS
10
200.7585819999999899
20
-69.9074030000000022
11
200.726066000000003
21
-69.9560659999999928
0
LINE
8
BLACK
6
CONTINUOUS
10
200.726066000000003
20
-69.9560659999999928
11
200.6774029999999982
21
-69.9885819999999939
0
LINE
8
BLACK
6
CONTINUOUS
10
200.6774029999999982
20
-69.9885819999999939
11
200.6200000000000045
21
-70.
0
LINE
8
BLACK
6
CONTINUOUS
10
200.6200000000000045
20
-70.
11
200.3199999999999932
21
-70.
0
LINE
8
BLACK
6
CONTINUOUS
10
200.3199999999999932
20
-70.
11
200.2625969999999995
21
-69.9885819999999939
0
LINE
8
BLACK
6
CONTINUOUS
10
200.2625969999999995
20
-69.9885819999999939
11
200.2139339999999947
21
-69.9560659999999928
0
LINE
8
BLACK
6
CONTINUOUS
10
200.2139339999999947
20
-69.9560659999999928
11
200.1814179999999794
21
-69.9074030000000022
0
LINE
8
BLACK
6
CONTINUOUS
10
200.1814179999999794
20
-69.9074030000000022
11
200.1699999999999875
21
-69.8499999999999943
0
LINE
8
BLACK
6
CONTINUOUS
10
200.1699999999999875
20
-69.8499999999999943
11
200.1699999999999875
21
-68.2000000000000028
0
LINE
8
BLACK
6
CONTINUOUS
10
200.1699999999999875
20
-68.2000000000000028
11
200.1814179999999794
21
-68.142596999999995
0
LINE
8
BLACK
6
CONTINUOUS
10
200.1814179999999794
20
-68.142596999999995
11
200.2139339999999947
21
-68.0939339999999902
0
LINE
8
BLACK
6
CONTINUOUS
10
200.2139339999999947
20
-68.0939339999999902
11
200.2625969999999995
21
-68.0614180000000033
0
LINE
8
BLACK
6
CONTINUOUS
10
200.2625969999999995
20
-68.0614180000000033
11
200.3199999999999932
21
-68.0499999999999972
0
LINE
8
BLACK
6
CONTINUOUS
10
200.3199999999999932
20
-68.0499999999999972
11
200.6200000000000045
21
-68.0499999999999972
0
LINE
8
BLACK
6
CONTINUOUS
10
200.6200000000000045
20
-68.0499999999999972
11
200.6774029999999982
21
-68.0614180000000033
0
LINE
8
BLACK
6
CONTINUOUS
10
201.94740299999998
20
-68.0614180000000033
11
201.9960659999999848
21
-68.0939339999999902
0
LINE
8
BLACK
6
CONTINUOUS
10
201.9960659999999848
20
-68.0939339999999902
11
202.0285820000000001
21
-68.142596999999995
0
LINE
8
BLACK
6
CONTINUOUS
10
202.0285820000000001
20
-68.142596999999995
11
202.039999999999992
21
-68.2000000000000028
0
LINE
8
BLACK
6
CONTINUOUS
10
202.039999999999992
20
-68.2000000000000028
11
202.039999999999992
21
-69.8499999999999943
0
LINE
8
BLACK
6
CONTINUOUS
10
202.039999999999992
20
-69.8499999999999943
11
202.0285820000000001
21
-69.9074030000000022
0
LINE
8
BLACK
6
CONTINUOUS
10
202.0285820000000001
20
-69.9074030000000022
11
201.9960659999999848
21
-69.9560659999999928
0
LINE
8
BLACK
6
CONTINUOUS
10
201.9960659999999848
20
-69.9560659999999928
11
201.94740299999998
21
-69.9885819999999939
0
LINE
8
BLACK
6
CONTINUOUS
10
201.94740299999998
20
-69.9885819999999939
11
201.8899999999999864
21
-70.
0
LINE
8
BLACK
6
CONTINUOUS
10
201.8899999999999864
20
-70.
11
201.5900000000000034
21
-70.
0
LINE
8
BLACK
6
CONTINUOUS
10
201.5900000000000034
20
-70.
11
201.5325969999999813
21
-69.9885819999999939
0
LINE
8
BLACK
6
CONTINUOUS
10
201.5325969999999813
20
-69.9885819999999939
11
201.483934000000005
21
-69.9560659999999928
0
LINE
8
BLACK
6
CONTINUOUS
10
201.483934000000005
20
-69.9560659999999928
11
201.4514179999999897
21
-69.9074030000000022
0
LINE
8
BLACK
6
CONTINUOUS
10
201.4514179999999897
20
-69.9074030000000022
11
201.4399999999999977
21
-69.8499999999999943
0
LINE
8
BLACK
6
CONTINUOUS
10
201.4399999999999977
20
-69.8499999999999943
11
201.4399999999999977
21
-68.2000000000000028
0
LINE
8
BLACK
6
CONTINUOUS
10
201.4399999999999977
20
-68.2000000000000028
11
201.4514179999999897
21
-68.142596999999995
0
LINE
8
BLACK
6
CONTINUOUS
10
201.4514179999999897
20
-68.142596999999995
11
201.483934000000005
21
-68.0939339999999902
0
LINE
8
BLACK
6
CONTINUOUS
10
201.483934000000005
20
-68.0939339999999902
11
201.5325969999999813
21
-68.0614180000000033
0
LINE
8
BLACK
6
CONTINUOUS
10
201.5325969999999813
20
-68.0614180000000033
11
201.5900000000000034
21
-68.0499999999999972
0
LINE
8
BLACK
6
CONTINUOUS
10
201.5900000000000034
20
-68.0499999999999972
11
201.8899999999999864
21
-68.0499999999999972
0
LINE
8
BLACK
6
CONTINUOUS
10
201.8899999999999864
20
-68.0499999999999972
11
201.94740299999998
21
-68.0614180000000033
0
LINE
8
BLACK
6
CONTINUOUS
10
203.2174029999999902
20
-68.0614180000000033
11
203.266065999999995
21
-68.0939339999999902
0
LINE
8
BLACK
6
CONTINUOUS
10
203.266065999999995
20
-68.0939339999999902
11
203.2985819999999819
21
-68.142596999999995
0
LINE
8
BLACK
6
CONTINUOUS
10
203.2985819999999819
20
-68.142596999999995
11
203.3100000000000023
21
-68.2000000000000028
0
LINE
8
BLACK
6
CONTINUOUS
10
203.3100000000000023
20
-68.2000000000000028
11
203.3100000000000023
21
-69.8499999999999943
0
LINE
8
BLACK
6
CONTINUOUS
10
203.3100000000000023
20
-69.8499999999999943
11
203.2985819999999819
21
-69.9074030000000022
0
LINE
8
BLACK
6
CONTINUOUS
10
203.2985819999999819
20
-69.9074030000000022
11
203.266065999999995
21
-69.9560659999999928
0
LINE
8
BLACK
6
CONTINUOUS
10
203.266065999999995
20
-69.9560659999999928
11
203.2174029999999902
21
-69.9885819999999939
0
LINE
8
BLACK
6
CONTINUOUS
10
203.2174029999999902
20
-69.9885819999999939
11
203.1599999999999966
21
-70.
0
LINE
8
BLACK
6
CONTINUOUS
10
203.1599999999999966
20
-70.
11
202.8599999999999852
21
-70.
0
LINE
8
BLACK
6
CONTINUOUS
10
202.8599999999999852
20
-70.
11
202.8025969999999916
21
-69.9885819999999939
0
LINE
8
BLACK
6
CONTINUOUS
10
202.8025969999999916
20
-69.9885819999999939
11
202.7539339999999868
21
-69.9560659999999928
0
LINE
8
BLACK
6
CONTINUOUS
10
202.7539339999999868
20
-69.9560659999999928
11
202.7214179999999999
21
-69.9074030000000022
0
LINE
8
BLACK
6
CONTINUOUS
10
202.7214179999999999
20
-69.9074030000000022
11
202.7099999999999795
21
-69.8499999999999943
0
LINE
8
BLACK
6
CONTINUOUS
10
202.7099999999999795
20
-69.8499999999999943
11
202.7099999999999795
21
-68.2000000000000028
0
LINE
8
BLACK
6
CONTINUOUS
10
202.7099999999999795
20
-68.2000000000000028
11
202.7214179999999999
21
-68.142596999999995
0
LINE
8
BLACK
6
CONTINUOUS
10
202.7214179999999999
20
-68.142596999999995
11
202.7539339999999868
21
-68.0939339999999902
0
LINE
8
BLACK
6
CONTINUOUS
10
202.7539339999999868
20
-68.0939339999999902
11
202.8025969999999916
21
-68.0614180000000033
0
LINE
8
BLACK
6
CONTINUOUS
10
202.8025969999999916
20
-68.0614180000000033
11
202.8599999999999852
21
-68.0499999999999972
0
LINE
8
BLACK
6
CONTINUOUS
10
202.8599999999999852
20
-68.0499999999999972
11
203.1599999999999966
21
-68.0499999999999972
0
LINE
8
BLACK
6
CONTINUOUS
10
203.1599999999999966
20
-68.0499999999999972
11
203.2174029999999902
21
-68.0614180000000033
0
LINE
8
BLACK
6
CONTINUOUS
10
184.8265370000000019
20
-67.0402239999999949
11
184.8914209999999798
21
-67.0835790000000003
0
LINE
8
BLACK
6
CONTINUOUS
10
184.8914209999999798
20
-67.0835790000000003
11
184.9347759999999994
21
-67.1484629999999925
0
LINE
8
BLACK
6
CONTINUOUS
10
184.9347759999999994
20
-67.1484629999999925
11
184.9499999999999886
21
-67.2249999999999943
0
LINE
8
BLACK
6
CONTINUOUS
10
184.9499999999999886
20
-67.2249999999999943
11
184.9499999999999886
21
-67.7749999999999915
0
LINE
8
BLACK
6
CONTINUOUS
10
184.9499999999999886
20
-67.7749999999999915
11
184.9347759999999994
21
-67.8515369999999933
0
LINE
8
BLACK
6
CONTINUOUS
10
184.9347759999999994
20
-67.8515369999999933
11
184.8914209999999798
21
-67.9164209999999997
0
LINE
8
BLACK
6
CONTINUOUS
10
184.8914209999999798
20
-67.9164209999999997
11
184.8265370000000019
21
-67.9597759999999909
0
LINE
8
BLACK
6
CONTINUOUS
10
184.8265370000000019
20
-67.9597759999999909
11
184.75
21
-67.9749999999999943
0
LINE
8
BLACK
6
CONTINUOUS
10
184.75
20
-67.9749999999999943
11
184.3499999999999943
21
-67.9749999999999943
0
LINE
8
BLACK
6
CONTINUOUS
10
184.3499999999999943
20
-67.9749999999999943
11
184.2734629999999925
21
-67.9597759999999909
0
LINE
8
BLACK
6
CONTINUOUS
10
184.2734629999999925
20
-67.9597759999999909
11
184.2085789999999861
21
-67.9164209999999997
0
LINE
8
BLACK
6
CONTINUOUS
10
184.2085789999999861
20
-67.9164209999999997
11
184.1652239999999949
21
-67.8515369999999933
0
LINE
8
BLACK
6
CONTINUOUS
10
184.1652239999999949
20
-67.8515369999999933
11
184.1500000000000057
21
-67.7749999999999915
0
LINE
8
BLACK
6
CONTINUOUS
10
184.1500000000000057
20
-67.7749999999999915
11
184.1500000000000057
21
-67.2249999999999943
0
LINE
8
BLACK
6
CONTINUOUS
10
184.1500000000000057
20
-67.2249999999999943
11
184.1652239999999949
21
-67.1484629999999925
0
LINE
8
BLACK
6
CONTINUOUS
10
184.1652239999999949
20
-67.1484629999999925
11
184.2085789999999861
21
-67.0835790000000003
0
LINE
8
BLACK
6
CONTINUOUS
10
184.2085789999999861
20
-67.0835790000000003
11
184.2734629999999925
21
-67.0402239999999949
0
LINE
8
BLACK
6
CONTINUOUS
10
184.2734629999999925
20
-67.0402239999999949
11
184.3499999999999943
21
-67.0249999999999915
0
LINE
8
BLACK
6
CONTINUOUS
10
184.3499999999999943
20
-67.0249999999999915
11
184.75
21
-67.0249999999999915
0
LINE
8
BLACK
6
CONTINUOUS
10
184.75
20
-67.0249999999999915
11
184.8265370000000019
21
-67.0402239999999949
0
LINE
8
BLACK
6
CONTINUOUS
10
186.4765369999999791
20
-67.0402239999999949
11
186.5414209999999855
21
-67.0835790000000003
0
LINE
8
BLACK
6
CONTINUOUS
10
186.5414209999999855
20
-67.0835790000000003
11
186.5847760000000051
21
-67.1484629999999925
0
LINE
8
BLACK
6
CONTINUOUS
10
186.5847760000000051
20
-67.1484629999999925
11
186.5999999999999943
21
-67.2249999999999943
0
LINE
8
BLACK
6
CONTINUOUS
10
186.5999999999999943
20
-67.2249999999999943
11
186.5999999999999943
21
-67.7749999999999915
0
LINE
8
BLACK
6
CONTINUOUS
10
186.5999999999999943
20
-67.7749999999999915
11
186.5847760000000051
21
-67.8515369999999933
0
LINE
8
BLACK
6
CONTINUOUS
10
186.5847760000000051
20
-67.8515369999999933
11
186.5414209999999855
21
-67.9164209999999997
0
LINE
8
BLACK
6
CONTINUOUS
10
186.5414209999999855
20
-67.9164209999999997
11
186.4765369999999791
21
-67.9597759999999909
0
LINE
8
BLACK
6
CONTINUOUS
10
186.4765369999999791
20
-67.9597759999999909
11
186.4000000000000057
21
-67.9749999999999943
0
LINE
8
BLACK
6
CONTINUOUS
10
186.4000000000000057
20
-67.9749999999999943
11
186.
21
-67.9749999999999943
0
LINE
8
BLACK
6
CONTINUOUS
10
186.
20
-67.9749999999999943
11
185.9234629999999981
21
-67.9597759999999909
0
LINE
8
BLACK
6
CONTINUOUS
10
185.9234629999999981
20
-67.9597759999999909
11
185.8585789999999918
21
-67.9164209999999997
0
LINE
8
BLACK
6
CONTINUOUS
10
185.8585789999999918
20
-67.9164209999999997
11
185.8152240000000006
21
-67.8515369999999933
0
LINE
8
BLACK
6
CONTINUOUS
10
185.8152240000000006
20
-67.8515369999999933
11
185.7999999999999829
21
-67.7749999999999915
0
LINE
8
BLACK
6
CONTINUOUS
10
185.7999999999999829
20
-67.7749999999999915
11
185.7999999999999829
21
-67.2249999999999943
0
LINE
8
BLACK
6
CONTINUOUS
10
185.7999999999999829
20
-67.2249999999999943
11
185.8152240000000006
21
-67.1484629999999925
0
LINE
8
BLACK
6
CONTINUOUS
10
185.8152240000000006
20
-67.1484629999999925
11
185.8585789999999918
21
-67.0835790000000003
0
LINE
8
BLACK
6
CONTINUOUS
10
185.8585789999999918
20
-67.0835790000000003
11
185.9234629999999981
21
-67.0402239999999949
0
LINE
8
BLACK
6
CONTINUOUS
10
185.9234629999999981
20
-67.0402239999999949
11
186.
21
-67.0249999999999915
0
LINE
8
BLACK
6
CONTINUOUS
10
186.
20
-67.0249999999999915
11
186.4000000000000057
21
-67.0249999999999915
0
LINE
8
BLACK
6
CONTINUOUS
10
186.4000000000000057
20
-67.0249999999999915
11
186.4765369999999791
21
-67.0402239999999949
0
LINE
8
BLACK
6
CONTINUOUS
10
189.6765369999999962
20
-66.8333360000000027
11
189.7414210000000026
21
-66.8766909999999939
0
LINE
8
BLACK
6
CONTINUOUS
10
189.7414210000000026
20
-66.8766909999999939
11
189.7847759999999937
21
-66.9415750000000003
0
LINE
8
BLACK
6
CONTINUOUS
10
189.7847759999999937
20
-66.9415750000000003
11
189.7999999999999829
21
-67.0181120000000021
0
LINE
8
BLACK
6
CONTINUOUS
10
189.7999999999999829
20
-67.0181120000000021
11
189.7999999999999829
21
-67.5681119999999993
0
LINE
8
BLACK
6
CONTINUOUS
10
189.7999999999999829
20
-67.5681119999999993
11
189.7847759999999937
21
-67.6446490000000011
0
LINE
8
BLACK
6
CONTINUOUS
10
189.7847759999999937
20
-67.6446490000000011
11
189.7414210000000026
21
-67.7095329999999933
0
LINE
8
BLACK
6
CONTINUOUS
10
189.7414210000000026
20
-67.7095329999999933
11
189.6765369999999962
21
-67.7528879999999987
0
LINE
8
BLACK
6
CONTINUOUS
10
189.6765369999999962
20
-67.7528879999999987
11
189.5999999999999943
21
-67.7681120000000021
0
LINE
8
BLACK
6
CONTINUOUS
10
189.5999999999999943
20
-67.7681120000000021
11
189.1999999999999886
21
-67.7681120000000021
0
LINE
8
BLACK
6
CONTINUOUS
10
189.1999999999999886
20
-67.7681120000000021
11
189.1234629999999868
21
-67.7528879999999987
0
LINE
8
BLACK
6
CONTINUOUS
10
189.1234629999999868
20
-67.7528879999999987
11
189.0585789999999804
21
-67.7095329999999933
0
LINE
8
BLACK
6
CONTINUOUS
10
189.0585789999999804
20
-67.7095329999999933
11
189.0152239999999892
21
-67.6446490000000011
0
LINE
8
BLACK
6
CONTINUOUS
10
189.0152239999999892
20
-67.6446490000000011
11
189.
21
-67.5681119999999993
0
LINE
8
BLACK
6
CONTINUOUS
10
189.
20
-67.5681119999999993
11
189.
21
-67.0181120000000021
0
LINE
8
BLACK
6
CONTINUOUS
10
189.
20
-67.0181120000000021
11
189.0152239999999892
21
-66.9415750000000003
0
LINE
8
BLACK
6
CONTINUOUS
10
189.0152239999999892
20
-66.9415750000000003
11
189.0585789999999804
21
-66.8766909999999939
0
LINE
8
BLACK
6
CONTINUOUS
10
189.0585789999999804
20
-66.8766909999999939
11
189.1234629999999868
21
-66.8333360000000027
0
LINE
8
BLACK
6
CONTINUOUS
10
189.1234629999999868
20
-66.8333360000000027
11
189.1999999999999886
21
-66.8181119999999993
0
LINE
8
BLACK
6
CONTINUOUS
10
189.1999999999999886
20
-66.8181119999999993
11
189.5999999999999943
21
-66.8181119999999993
0
LINE
8
BLACK
6
CONTINUOUS
10
189.5999999999999943
20
-66.8181119999999993
11
189.6765369999999962
21
-66.8333360000000027
0
LINE
8
BLACK
6
CONTINUOUS
10
191.3265370000000019
20
-66.8333360000000027
11
191.3914209999999798
21
-66.8766909999999939
0
LINE
8
BLACK
6
CONTINUOUS
10
191.3914209999999798
20
-66.8766909999999939
11
191.4347759999999994
21
-66.9415750000000003
0
LINE
8
BLACK
6
CONTINUOUS
10
191.4347759999999994
20
-66.9415750000000003
11
191.4499999999999886
21
-67.0181120000000021
0
LINE
8
BLACK
6
CONTINUOUS
10
191.4499999999999886
20
-67.0181120000000021
11
191.4499999999999886
21
-67.5681119999999993
0
LINE
8
BLACK
6
CONTINUOUS
10
191.4499999999999886
20
-67.5681119999999993
11
191.4347759999999994
21
-67.6446490000000011
0
LINE
8
BLACK
6
CONTINUOUS
10
191.4347759999999994
20
-67.6446490000000011
11
191.3914209999999798
21
-67.7095329999999933
0
LINE
8
BLACK
6
CONTINUOUS
10
191.3914209999999798
20
-67.7095329999999933
11
191.3265370000000019
21
-67.7528879999999987
0
LINE
8
BLACK
6
CONTINUOUS
10
191.3265370000000019
20
-67.7528879999999987
11
191.25
21
-67.7681120000000021
0
LINE
8
BLACK
6
CONTINUOUS
10
191.25
20
-67.7681120000000021
11
190.8499999999999943
21
-67.7681120000000021
0
LINE
8
BLACK
6
CONTINUOUS
10
190.8499999999999943
20
-67.7681120000000021
11
190.7734629999999925
21
-67.7528879999999987
0
LINE
8
BLACK
6
CONTINUOUS
10
190.7734629999999925
20
-67.7528879999999987
11
190.7085789999999861
21
-67.7095329999999933
0
LINE
8
BLACK
6
CONTINUOUS
10
190.7085789999999861
20
-67.7095329999999933
11
190.6652239999999949
21
-67.6446490000000011
0
LINE
8
BLACK
6
CONTINUOUS
10
190.6652239999999949
20
-67.6446490000000011
11
190.6499999999999773
21
-67.5681119999999993
0
LINE
8
BLACK
6
CONTINUOUS
10
190.6499999999999773
20
-67.5681119999999993
11
190.6499999999999773
21
-67.0181120000000021
0
LINE
8
BLACK
6
CONTINUOUS
10
190.6499999999999773
20
-67.0181120000000021
11
190.6652239999999949
21
-66.9415750000000003
0
LINE
8
BLACK
6
CONTINUOUS
10
190.6652239999999949
20
-66.9415750000000003
11
190.7085789999999861
21
-66.8766909999999939
0
LINE
8
BLACK
6
CONTINUOUS
10
190.7085789999999861
20
-66.8766909999999939
11
190.7734629999999925
21
-66.8333360000000027
0
LINE
8
BLACK
6
CONTINUOUS
10
190.7734629999999925
20
-66.8333360000000027
11
190.8499999999999943
21
-66.8181119999999993
0
LINE
8
BLACK
6
CONTINUOUS
10
190.8499999999999943
20
-66.8181119999999993
11
191.25
21
-66.8181119999999993
0
LINE
8
BLACK
6
CONTINUOUS
10
191.25
20
-66.8181119999999993
11
191.3265370000000019
21
-66.8333360000000027
0
LINE
8
BLACK
6
CONTINUOUS
10
193.014961999999997
20
-66.3416509999999988
11
193.0859299999999905
21
-66.3890700000000038
0
LINE
8
BLACK
6
CONTINUOUS
10
193.0859299999999905
20
-66.3890700000000038
11
193.1333489999999813
21
-66.4600379999999973
0
LINE
8
BLACK
6
CONTINUOUS
10
193.1333489999999813
20
-66.4600379999999973
11
193.1499999999999773
21
-66.5437500000000028
0
LINE
8
BLACK
6
CONTINUOUS
10
193.1499999999999773
20
-66.5437500000000028
11
193.1499999999999773
21
-67.0562499999999915
0
LINE
8
BLACK
6
CONTINUOUS
10
193.1499999999999773
20
-67.0562499999999915
11
193.1333489999999813
21
-67.139961999999997
0
LINE
8
BLACK
6
CONTINUOUS
10
193.1333489999999813
20
-67.139961999999997
11
193.0859299999999905
21
-67.2109299999999905
0
LINE
8
BLACK
6
CONTINUOUS
10
193.0859299999999905
20
-67.2109299999999905
11
193.014961999999997
21
-67.2583489999999955
0
LINE
8
BLACK
6
CONTINUOUS
10
193.014961999999997
20
-67.2583489999999955
11
192.9312499999999773
21
-67.2749999999999915
0
LINE
8
BLACK
6
CONTINUOUS
10
192.9312499999999773
20
-67.2749999999999915
11
192.4937499999999773
21
-67.2749999999999915
0
LINE
8
BLACK
6
CONTINUOUS
10
192.4937499999999773
20
-67.2749999999999915
11
192.4100379999999859
21
-67.2583489999999955
0
LINE
8
BLACK
6
CONTINUOUS
10
192.4100379999999859
20
-67.2583489999999955
11
192.3390699999999924
21
-67.2109299999999905
0
LINE
8
BLACK
6
CONTINUOUS
10
192.3390699999999924
20
-67.2109299999999905
11
192.2916510000000017
21
-67.139961999999997
0
LINE
8
BLACK
6
CONTINUOUS
10
192.2916510000000017
20
-67.139961999999997
11
192.2749999999999773
21
-67.0562499999999915
0
LINE
8
BLACK
6
CONTINUOUS
10
192.2749999999999773
20
-67.0562499999999915
11
192.2749999999999773
21
-66.5437500000000028
0
LINE
8
BLACK
6
CONTINUOUS
10
192.2749999999999773
20
-66.5437500000000028
11
192.2916510000000017
21
-66.4600379999999973
0
LINE
8
BLACK
6
CONTINUOUS
10
192.2916510000000017
20
-66.4600379999999973
11
192.3390699999999924
21
-66.3890700000000038
0
LINE
8
BLACK
6
CONTINUOUS
10
192.3390699999999924
20
-66.3890700000000038
11
192.4100379999999859
21
-66.3416509999999988
0
LINE
8
BLACK
6
CONTINUOUS
10
192.4100379999999859
20
-66.3416509999999988
11
192.4937499999999773
21
-66.3250000000000028
0
LINE
8
BLACK
6
CONTINUOUS
10
192.4937499999999773
20
-66.3250000000000028
11
192.9312499999999773
21
-66.3250000000000028
0
LINE
8
BLACK
6
CONTINUOUS
10
192.9312499999999773
20
-66.3250000000000028
11
193.014961999999997
21
-66.3416509999999988
0
LINE
8
BLACK
6
CONTINUOUS
10
194.5899619999999857
20
-66.3416509999999988
11
194.6609299999999791
21
-66.3890700000000038
0
LINE
8
BLACK
6
CONTINUOUS
10
194.6609299999999791
20
-66.3890700000000038
11
194.7083489999999983
21
-66.4600379999999973
0
LINE
8
BLACK
6
CONTINUOUS
10
194.7083489999999983
20
-66.4600379999999973
11
194.7249999999999943
21
-66.5437500000000028
0
LINE
8
BLACK
6
CONTINUOUS
10
194.7249999999999943
20
-66.5437500000000028
11
194.7249999999999943
21
-67.0562499999999915
0
LINE
8
BLACK
6
CONTINUOUS
10
194.7249999999999943
20
-67.0562499999999915
11
194.7083489999999983
21
-67.139961999999997
0
LINE
8
BLACK
6
CONTINUOUS
10
194.7083489999999983
20
-67.139961999999997
11
194.6609299999999791
21
-67.2109299999999905
0
LINE
8
BLACK
6
CONTINUOUS
10
194.6609299999999791
20
-67.2109299999999905
11
194.5899619999999857
21
-67.2583489999999955
0
LINE
8
BLACK
6
CONTINUOUS
10
194.5899619999999857
20
-67.2583489999999955
11
194.5062499999999943
21
-67.2749999999999915
0
LINE
8
BLACK
6
CONTINUOUS
10
194.5062499999999943
20
-67.2749999999999915
11
194.0687499999999943
21
-67.2749999999999915
0
LINE
8
BLACK
6
CONTINUOUS
10
194.0687499999999943
20
-67.2749999999999915
11
193.985038000000003
21
-67.2583489999999955
0
LINE
8
BLACK
6
CONTINUOUS
10
193.985038000000003
20
-67.2583489999999955
11
193.9140699999999811
21
-67.2109299999999905
0
LINE
8
BLACK
6
CONTINUOUS
10
193.9140699999999811
20
-67.2109299999999905
11
193.8666509999999903
21
-67.139961999999997
0
LINE
8
BLACK
6
CONTINUOUS
10
193.8666509999999903
20
-67.139961999999997
11
193.8499999999999943
21
-67.0562499999999915
0
LINE
8
BLACK
6
CONTINUOUS
10
193.8499999999999943
20
-67.0562499999999915
11
193.8499999999999943
21
-66.5437500000000028
0
LINE
8
BLACK
6
CONTINUOUS
10
193.8499999999999943
20
-66.5437500000000028
11
193.8666509999999903
21
-66.4600379999999973
0
LINE
8
BLACK
6
CONTINUOUS
10
193.8666509999999903
20
-66.4600379999999973
11
193.9140699999999811
21
-66.3890700000000038
0
LINE
8
BLACK
6
CONTINUOUS
10
193.9140699999999811
20
-66.3890700000000038
11
193.985038000000003
21
-66.3416509999999988
0
LINE
8
BLACK
6
CONTINUOUS
10
193.985038000000003
20
-66.3416509999999988
11
194.0687499999999943
21
-66.3250000000000028
0
LINE
8
BLACK
6
CONTINUOUS
10
194.0687499999999943
20
-66.3250000000000028
11
194.5062499999999943
21
-66.3250000000000028
0
LINE
8
BLACK
6
CONTINUOUS
10
194.5062499999999943
20
-66.3250000000000028
11
194.5899619999999857
21
-66.3416509999999988
0
LINE
8
BLACK
6
CONTINUOUS
10
206.4515370000000019
20
-66.4402240000000006
11
206.5164209999999798
21
-66.4835789999999918
0
LINE
8
BLACK
6
CONTINUOUS
10
206.5164209999999798
20
-66.4835789999999918
11
206.5597759999999994
21
-66.5484629999999981
0
LINE
8
BLACK
6
CONTINUOUS
10
206.5597759999999994
20
-66.5484629999999981
11
206.5749999999999886
21
-66.625
0
LINE
8
BLACK
6
CONTINUOUS
10
206.5749999999999886
20
-66.625
11
206.5749999999999886
21
-67.0249999999999915
0
LINE
8
BLACK
6
CONTINUOUS
10
206.5749999999999886
20
-67.0249999999999915
11
206.5597759999999994
21
-67.1015369999999933
0
LINE
8
BLACK
6
CONTINUOUS
10
206.5597759999999994
20
-67.1015369999999933
11
206.5164209999999798
21
-67.1664209999999997
0
LINE
8
BLACK
6
CONTINUOUS
10
206.5164209999999798
20
-67.1664209999999997
11
206.4515370000000019
21
-67.2097759999999909
0
LINE
8
BLACK
6
CONTINUOUS
10
206.4515370000000019
20
-67.2097759999999909
11
206.375
21
-67.2249999999999943
0
LINE
8
BLACK
6
CONTINUOUS
10
206.375
20
-67.2249999999999943
11
205.8249999999999886
21
-67.2249999999999943
0
LINE
8
BLACK
6
CONTINUOUS
10
205.8249999999999886
20
-67.2249999999999943
11
205.7484629999999868
21
-67.2097759999999909
0
LINE
8
BLACK
6
CONTINUOUS
10
205.7484629999999868
20
-67.2097759999999909
11
205.6835789999999804
21
-67.1664209999999997
0
LINE
8
BLACK
6
CONTINUOUS
10
205.6835789999999804
20
-67.1664209999999997
11
205.6402239999999892
21
-67.1015369999999933
0
LINE
8
BLACK
6
CONTINUOUS
10
205.6402239999999892
20
-67.1015369999999933
11
205.625
21
-67.0249999999999915
0
LINE
8
BLACK
6
CONTINUOUS
10
205.625
20
-67.0249999999999915
11
205.625
21
-66.625
0
LINE
8
BLACK
6
CONTINUOUS
10
205.625
20
-66.625
11
205.6402239999999892
21
-66.5484629999999981
0
LINE
8
BLACK
6
CONTINUOUS
10
205.6402239999999892
20
-66.5484629999999981
11
205.6835789999999804
21
-66.4835789999999918
0
LINE
8
BLACK
6
CONTINUOUS
10
205.6835789999999804
20
-66.4835789999999918
11
205.7484629999999868
21
-66.4402240000000006
0
LINE
8
BLACK
6
CONTINUOUS
10
205.7484629999999868
20
-66.4402240000000006
11
205.8249999999999886
21
-66.4249999999999972
0
LINE
8
BLACK
6
CONTINUOUS
10
205.8249999999999886
20
-66.4249999999999972
11
206.375
21
-66.4249999999999972
0
LINE
8
BLACK
6
CONTINUOUS
10
206.375
20
-66.4249999999999972
11
206.4515370000000019
21
-66.4402240000000006
0
LINE
8
BLACK
6
CONTINUOUS
10
196.4361040000000003
20
-65.9421269999999993
11
196.509098999999992
21
-65.9909009999999938
0
LINE
8
BLACK
6
CONTINUOUS
10
196.509098999999992
20
-65.9909009999999938
11
196.5578730000000007
21
-66.0638959999999997
0
LINE
8
BLACK
6
CONTINUOUS
10
196.5578730000000007
20
-66.0638959999999997
11
196.5749999999999886
21
-66.1499999999999915
0
LINE
8
BLACK
6
CONTINUOUS
10
196.5749999999999886
20
-66.1499999999999915
11
196.5749999999999886
21
-66.6499999999999915
0
LINE
8
BLACK
6
CONTINUOUS
10
196.5749999999999886
20
-66.6499999999999915
11
196.5578730000000007
21
-66.7361039999999974
0
LINE
8
BLACK
6
CONTINUOUS
10
196.5578730000000007
20
-66.7361039999999974
11
196.509098999999992
21
-66.8090990000000033
0
LINE
8
BLACK
6
CONTINUOUS
10
196.509098999999992
20
-66.8090990000000033
11
196.4361040000000003
21
-66.8578729999999979
0
LINE
8
BLACK
6
CONTINUOUS
10
196.4361040000000003
20
-66.8578729999999979
11
196.3499999999999943
21
-66.875
0
LINE
8
BLACK
6
CONTINUOUS
10
196.3499999999999943
20
-66.875
11
195.8999999999999773
21
-66.875
0
LINE
8
BLACK
6
CONTINUOUS
10
195.8999999999999773
20
-66.875
11
195.8138959999999997
21
-66.8578729999999979
0
LINE
8
BLACK
6
CONTINUOUS
10
195.8138959999999997
20
-66.8578729999999979
11
195.7409009999999796
21
-66.8090990000000033
0
LINE
8
BLACK
6
CONTINUOUS
10
195.7409009999999796
20
-66.8090990000000033
11
195.6921269999999993
21
-66.7361039999999974
0
LINE
8
BLACK
6
CONTINUOUS
10
195.6921269999999993
20
-66.7361039999999974
11
195.6749999999999829
21
-66.6499999999999915
0
LINE
8
BLACK
6
CONTINUOUS
10
195.6749999999999829
20
-66.6499999999999915
11
195.6749999999999829
21
-66.1499999999999915
0
LINE
8
BLACK
6
CONTINUOUS
10
195.6749999999999829
20
-66.1499999999999915
11
195.6921269999999993
21
-66.0638959999999997
0
LINE
8
BLACK
6
CONTINUOUS
10
195.6921269999999993
20
-66.0638959999999997
11
195.7409009999999796
21
-65.9909009999999938
0
LINE
8
BLACK
6
CONTINUOUS
10
195.7409009999999796
20
-65.9909009999999938
11
195.8138959999999997
21
-65.9421269999999993
0
LINE
8
BLACK
6
CONTINUOUS
10
195.8138959999999997
20
-65.9421269999999993
11
195.8999999999999773
21
-65.9249999999999972
0
LINE
8
BLACK
6
CONTINUOUS
10
195.8999999999999773
20
-65.9249999999999972
11
196.3499999999999943
21
-65.9249999999999972
0
LINE
8
BLACK
6
CONTINUOUS
10
196.3499999999999943
20
-65.9249999999999972
11
196.4361040000000003
21
-65.9421269999999993
0
LINE
8
BLACK
6
CONTINUOUS
10
197.9861039999999832
20
-65.9421269999999993
11
198.0590990000000033
21
-65.9909009999999938
0
LINE
8
BLACK
6
CONTINUOUS
10
198.0590990000000033
20
-65.9909009999999938
11
198.1078729999999837
21
-66.0638959999999997
0
LINE
8
BLACK
6
CONTINUOUS
10
198.1078729999999837
20
-66.0638959999999997
11
198.125
21
-66.1499999999999915
0
LINE
8
BLACK
6
CONTINUOUS
10
198.125
20
-66.1499999999999915
11
198.125
21
-66.6499999999999915
0
LINE
8
BLACK
6
CONTINUOUS
10
198.125
20
-66.6499999999999915
11
198.1078729999999837
21
-66.7361039999999974
0
LINE
8
BLACK
6
CONTINUOUS
10
198.1078729999999837
20
-66.7361039999999974
11
198.0590990000000033
21
-66.8090990000000033
0
LINE
8
BLACK
6
CONTINUOUS
10
198.0590990000000033
20
-66.8090990000000033
11
197.9861039999999832
21
-66.8578729999999979
0
LINE
8
BLACK
6
CONTINUOUS
10
197.9861039999999832
20
-66.8578729999999979
11
197.8999999999999773
21
-66.875
0
LINE
8
BLACK
6
CONTINUOUS
10
197.8999999999999773
20
-66.875
11
197.4499999999999886
21
-66.875
0
LINE
8
BLACK
6
CONTINUOUS
10
197.4499999999999886
20
-66.875
11
197.3638959999999827
21
-66.8578729999999979
0
LINE
8
BLACK
6
CONTINUOUS
10
197.3638959999999827
20
-66.8578729999999979
11
197.290900999999991
21
-66.8090990000000033
0
LINE
8
BLACK
6
CONTINUOUS
10
197.290900999999991
20
-66.8090990000000033
11
197.2421269999999822
21
-66.7361039999999974
0
LINE
8
BLACK
6
CONTINUOUS
10
197.2421269999999822
20
-66.7361039999999974
11
197.2249999999999943
21
-66.6499999999999915
0
LINE
8
BLACK
6
CONTINUOUS
10
197.2249999999999943
20
-66.6499999999999915
11
197.2249999999999943
21
-66.1499999999999915
0
LINE
8
BLACK
6
CONTINUOUS
10
197.2249999999999943
20
-66.1499999999999915
11
197.2421269999999822
21
-66.0638959999999997
0
LINE
8
BLACK
6
CONTINUOUS
10
197.2421269999999822
20
-66.0638959999999997
11
197.290900999999991
21
-65.9909009999999938
0
LINE
8
BLACK
6
CONTINUOUS
10
197.290900999999991
20
-65.9909009999999938
11
197.3638959999999827
21
-65.9421269999999993
0
LINE
8
BLACK
6
CONTINUOUS
10
197.3638959999999827
20
-65.9421269999999993
11
197.4499999999999886
21
-65.9249999999999972
0
LINE
8
BLACK
6
CONTINUOUS
10
197.4499999999999886
20
-65.9249999999999972
11
197.8999999999999773
21
-65.9249999999999972
0
LINE
8
BLACK
6
CONTINUOUS
10
197.8999999999999773
20
-65.9249999999999972
11
197.9861039999999832
21
-65.9421269999999993
0
LINE
8
BLACK
6
CONTINUOUS
10
199.3515369999999791
20
-65.8402239999999921
11
199.4164209999999855
21
-65.8835789999999974
0
LINE
8
BLACK
6
CONTINUOUS
10
199.4164209999999855
20
-65.8835789999999974
11
199.4597760000000051
21
-65.9484630000000038
0
LINE
8
BLACK
6
CONTINUOUS
10
199.4597760000000051
20
-65.9484630000000038
11
199.4749999999999943
21
-66.0249999999999915
0
LINE
8
BLACK
6
CONTINUOUS
10
199.4749999999999943
20
-66.0249999999999915
11
199.4749999999999943
21
-66.5750000000000028
0
LINE
8
BLACK
6
CONTINUOUS
10
199.4749999999999943
20
-66.5750000000000028
11
199.4597760000000051
21
-66.6515369999999905
0
LINE
8
BLACK
6
CONTINUOUS
10
199.4597760000000051
20
-66.6515369999999905
11
199.4164209999999855
21
-66.7164209999999969
0
LINE
8
BLACK
6
CONTINUOUS
10
199.4164209999999855
20
-66.7164209999999969
11
199.3515369999999791
21
-66.7597760000000022
0
LINE
8
BLACK
6
CONTINUOUS
10
199.3515369999999791
20
-66.7597760000000022
11
199.2749999999999773
21
-66.7749999999999915
0
LINE
8
BLACK
6
CONTINUOUS
10
199.2749999999999773
20
-66.7749999999999915
11
198.875
21
-66.7749999999999915
0
LINE
8
BLACK
6
CONTINUOUS
10
198.875
20
-66.7749999999999915
11
198.7984629999999981
21
-66.7597760000000022
0
LINE
8
BLACK
6
CONTINUOUS
10
198.7984629999999981
20
-66.7597760000000022
11
198.7335789999999918
21
-66.7164209999999969
0
LINE
8
BLACK
6
CONTINUOUS
10
198.7335789999999918
20
-66.7164209999999969
11
198.6902240000000006
21
-66.6515369999999905
0
LINE
8
BLACK
6
CONTINUOUS
10
198.6902240000000006
20
-66.6515369999999905
11
198.6749999999999829
21
-66.5750000000000028
0
LINE
8
BLACK
6
CONTINUOUS
10
198.6749999999999829
20
-66.5750000000000028
11
198.6749999999999829
21
-66.0249999999999915
0
LINE
8
BLACK
6
CONTINUOUS
10
198.6749999999999829
20
-66.0249999999999915
11
198.6902240000000006
21
-65.9484630000000038
0
LINE
8
BLACK
6
CONTINUOUS
10
198.6902240000000006
20
-65.9484630000000038
11
198.7335789999999918
21
-65.8835789999999974
0
LINE
8
BLACK
6
CONTINUOUS
10
198.7335789999999918
20
-65.8835789999999974
11
198.7984629999999981
21
-65.8402239999999921
0
LINE
8
BLACK
6
CONTINUOUS
10
198.7984629999999981
20
-65.8402239999999921
11
198.875
21
-65.8250000000000028
0
LINE
8
BLACK
6
CONTINUOUS
10
198.875
20
-65.8250000000000028
11
199.2749999999999773
21
-65.8250000000000028
0
LINE
8
BLACK
6
CONTINUOUS
10
199.2749999999999773
20
-65.8250000000000028
11
199.3515369999999791
21
-65.8402239999999921
0
LINE
8
BLACK
6
CONTINUOUS
10
201.0015369999999848
20
-65.8402239999999921
11
201.0664209999999912
21
-65.8835789999999974
0
LINE
8
BLACK
6
CONTINUOUS
10
201.0664209999999912
20
-65.8835789999999974
11
201.1097759999999823
21
-65.9484630000000038
0
LINE
8
BLACK
6
CONTINUOUS
10
201.1097759999999823
20
-65.9484630000000038
11
201.125
21
-66.0249999999999915
0
LINE
8
BLACK
6
CONTINUOUS
10
201.125
20
-66.0249999999999915
11
201.125
21
-66.5750000000000028
0
LINE
8
BLACK
6
CONTINUOUS
10
201.125
20
-66.5750000000000028
11
201.1097759999999823
21
-66.6515369999999905
0
LINE
8
BLACK
6
CONTINUOUS
10
201.1097759999999823
20
-66.6515369999999905
11
201.0664209999999912
21
-66.7164209999999969
0
LINE
8
BLACK
6
CONTINUOUS
10
201.0664209999999912
20
-66.7164209999999969
11
201.0015369999999848
21
-66.7597760000000022
0
LINE
8
BLACK
6
CONTINUOUS
10
201.0015369999999848
20
-66.7597760000000022
11
200.9249999999999829
21
-66.7749999999999915
0
LINE
8
BLACK
6
CONTINUOUS
10
200.9249999999999829
20
-66.7749999999999915
11
200.5249999999999773
21
-66.7749999999999915
0
LINE
8
BLACK
6
CONTINUOUS
10
200.5249999999999773
20
-66.7749999999999915
11
200.4484630000000038
21
-66.7597760000000022
0
LINE
8
BLACK
6
CONTINUOUS
10
200.4484630000000038
20
-66.7597760000000022
11
200.3835789999999974
21
-66.7164209999999969
0
LINE
8
BLACK
6
CONTINUOUS
10
200.3835789999999974
20
-66.7164209999999969
11
200.3402239999999779
21
-66.6515369999999905
0
LINE
8
BLACK
6
CONTINUOUS
10
200.3402239999999779
20
-66.6515369999999905
11
200.3249999999999886
21
-66.5750000000000028
0
LINE
8
BLACK
6
CONTINUOUS
10
200.3249999999999886
20
-66.5750000000000028
11
200.3249999999999886
21
-66.0249999999999915
0
LINE
8
BLACK
6
CONTINUOUS
10
200.3249999999999886
20
-66.0249999999999915
11
200.3402239999999779
21
-65.9484630000000038
0
LINE
8
BLACK
6
CONTINUOUS
10
200.3402239999999779
20
-65.9484630000000038
11
200.3835789999999974
21
-65.8835789999999974
0
LINE
8
BLACK
6
CONTINUOUS
10
200.3835789999999974
20
-65.8835789999999974
11
200.4484630000000038
21
-65.8402239999999921
0
LINE
8
BLACK
6
CONTINUOUS
10
200.4484630000000038
20
-65.8402239999999921
11
200.5249999999999773
21
-65.8250000000000028
0
LINE
8
BLACK
6
CONTINUOUS
10
200.5249999999999773
20
-65.8250000000000028
11
200.9249999999999829
21
-65.8250000000000028
0
LINE
8
BLACK
6
CONTINUOUS
10
200.9249999999999829
20
-65.8250000000000028
11
201.0015369999999848
21
-65.8402239999999921
0
LINE
8
BLACK
6
CONTINUOUS
10
188.9515370000000019
20
-65.3402239999999921
11
189.0164209999999798
21
-65.3835789999999974
0
LINE
8
BLACK
6
CONTINUOUS
10
189.0164209999999798
20
-65.3835789999999974
11
189.0597759999999994
21
-65.4484630000000038
0
LINE
8
BLACK
6
CONTINUOUS
10
189.0597759999999994
20
-65.4484630000000038
11
189.0749999999999886
21
-65.5249999999999915
0
LINE
8
BLACK
6
CONTINUOUS
10
189.0749999999999886
20
-65.5249999999999915
11
189.0749999999999886
21
-66.0750000000000028
0
LINE
8
BLACK
6
CONTINUOUS
10
189.0749999999999886
20
-66.0750000000000028
11
189.0597759999999994
21
-66.1515369999999905
0
LINE
8
BLACK
6
CONTINUOUS
10
189.0597759999999994
20
-66.1515369999999905
11
189.0164209999999798
21
-66.2164209999999969
0
LINE
8
BLACK
6
CONTINUOUS
10
189.0164209999999798
20
-66.2164209999999969
11
188.9515370000000019
21
-66.2597760000000022
0
LINE
8
BLACK
6
CONTINUOUS
10
188.9515370000000019
20
-66.2597760000000022
11
188.875
21
-66.2749999999999915
0
LINE
8
BLACK
6
CONTINUOUS
10
188.875
20
-66.2749999999999915
11
188.4749999999999943
21
-66.2749999999999915
0
LINE
8
BLACK
6
CONTINUOUS
10
188.4749999999999943
20
-66.2749999999999915
11
188.3984629999999925
21
-66.2597760000000022
0
LINE
8
BLACK
6
CONTINUOUS
10
188.3984629999999925
20
-66.2597760000000022
11
188.3335789999999861
21
-66.2164209999999969
0
LINE
8
BLACK
6
CONTINUOUS
10
188.3335789999999861
20
-66.2164209999999969
11
188.2902239999999949
21
-66.1515369999999905
0
LINE
8
BLACK
6
CONTINUOUS
10
188.2902239999999949
20
-66.1515369999999905
11
188.2750000000000057
21
-66.0750000000000028
0
LINE
8
BLACK
6
CONTINUOUS
10
188.2750000000000057
20
-66.0750000000000028
11
188.2750000000000057
21
-65.5249999999999915
0
LINE
8
BLACK
6
CONTINUOUS
10
188.2750000000000057
20
-65.5249999999999915
11
188.2902239999999949
21
-65.4484630000000038
0
LINE
8
BLACK
6
CONTINUOUS
10
188.2902239999999949
20
-65.4484630000000038
11
188.3335789999999861
21
-65.3835789999999974
0
LINE
8
BLACK
6
CONTINUOUS
10
188.3335789999999861
20
-65.3835789999999974
11
188.3984629999999925
21
-65.3402239999999921
0
LINE
8
BLACK
6
CONTINUOUS
10
188.3984629999999925
20
-65.3402239999999921
11
188.4749999999999943
21
-65.3250000000000028
0
LINE
8
BLACK
6
CONTINUOUS
10
188.4749999999999943
20
-65.3250000000000028
11
188.875
21
-65.3250000000000028
0
LINE
8
BLACK
6
CONTINUOUS
10
188.875
20
-65.3250000000000028
11
188.9515370000000019
21
-65.3402239999999921
0
LINE
8
BLACK
6
CONTINUOUS
10
190.6015369999999791
20
-65.3402239999999921
11
190.6664209999999855
21
-65.3835789999999974
0
LINE
8
BLACK
6
CONTINUOUS
10
190.6664209999999855
20
-65.3835789999999974
11
190.7097760000000051
21
-65.4484630000000038
0
LINE
8
BLACK
6
CONTINUOUS
10
190.7097760000000051
20
-65.4484630000000038
11
190.7249999999999943
21
-65.5249999999999915
0
LINE
8
BLACK
6
CONTINUOUS
10
190.7249999999999943
20
-65.5249999999999915
11
190.7249999999999943
21
-66.0750000000000028
0
LINE
8
BLACK
6
CONTINUOUS
10
190.7249999999999943
20
-66.0750000000000028
11
190.7097760000000051
21
-66.1515369999999905
0
LINE
8
BLACK
6
CONTINUOUS
10
190.7097760000000051
20
-66.1515369999999905
11
190.6664209999999855
21
-66.2164209999999969
0
LINE
8
BLACK
6
CONTINUOUS
10
190.6664209999999855
20
-66.2164209999999969
11
190.6015369999999791
21
-66.2597760000000022
0
LINE
8
BLACK
6
CONTINUOUS
10
190.6015369999999791
20
-66.2597760000000022
11
190.5249999999999773
21
-66.2749999999999915
0
LINE
8
BLACK
6
CONTINUOUS
10
190.5249999999999773
20
-66.2749999999999915
11
190.125
21
-66.2749999999999915
0
LINE
8
BLACK
6
CONTINUOUS
10
190.125
20
-66.2749999999999915
11
190.0484629999999981
21
-66.2597760000000022
0
LINE
8
BLACK
6
CONTINUOUS
10
190.0484629999999981
20
-66.2597760000000022
11
189.9835789999999918
21
-66.2164209999999969
0
LINE
8
BLACK
6
CONTINUOUS
10
189.9835789999999918
20
-66.2164209999999969
11
189.9402240000000006
21
-66.1515369999999905
0
LINE
8
BLACK
6
CONTINUOUS
10
189.9402240000000006
20
-66.1515369999999905
11
189.9249999999999829
21
-66.0750000000000028
0
LINE
8
BLACK
6
CONTINUOUS
10
189.9249999999999829
20
-66.0750000000000028
11
189.9249999999999829
21
-65.5249999999999915
0
LINE
8
BLACK
6
CONTINUOUS
10
189.9249999999999829
20
-65.5249999999999915
11
189.9402240000000006
21
-65.4484630000000038
0
LINE
8
BLACK
6
CONTINUOUS
10
189.9402240000000006
20
-65.4484630000000038
11
189.9835789999999918
21
-65.3835789999999974
0
LINE
8
BLACK
6
CONTINUOUS
10
189.9835789999999918
20
-65.3835789999999974
11
190.0484629999999981
21
-65.3402239999999921
0
LINE
8
BLACK
6
CONTINUOUS
10
190.0484629999999981
20
-65.3402239999999921
11
190.125
21
-65.3250000000000028
0
LINE
8
BLACK
6
CONTINUOUS
10
190.125
20
-65.3250000000000028
11
190.5249999999999773
21
-65.3250000000000028
0
LINE
8
BLACK
6
CONTINUOUS
10
190.5249999999999773
20
-65.3250000000000028
11
190.6015369999999791
21
-65.3402239999999921
0
LINE
8
BLACK
6
CONTINUOUS
10
203.31496199999998
20
-65.141650999999996
11
203.3859300000000019
21
-65.189070000000001
0
LINE
8
BLACK
6
CONTINUOUS
10
203.3859300000000019
20
-65.189070000000001
11
203.4333489999999927
21
-65.2600379999999944
0
LINE
8
BLACK
6
CONTINUOUS
10
203.4333489999999927
20
-65.2600379999999944
11
203.4499999999999886
21
-65.34375
0
LINE
8
BLACK
6
CONTINUOUS
10
203.4499999999999886
20
-65.34375
11
203.4499999999999886
21
-65.8562500000000028
0
LINE
8
BLACK
6
CONTINUOUS
10
203.4499999999999886
20
-65.8562500000000028
11
203.4333489999999927
21
-65.9399619999999942
0
LINE
8
BLACK
6
CONTINUOUS
10
203.4333489999999927
20
-65.9399619999999942
11
203.3859300000000019
21
-66.0109300000000019
0
LINE
8
BLACK
6
CONTINUOUS
10
203.3859300000000019
20
-66.0109300000000019
11
203.31496199999998
21
-66.0583489999999927
0
LINE
8
BLACK
6
CONTINUOUS
10
203.31496199999998
20
-66.0583489999999927
11
203.2312499999999886
21
-66.0750000000000028
0
LINE
8
BLACK
6
CONTINUOUS
10
203.2312499999999886
20
-66.0750000000000028
11
202.7937499999999886
21
-66.0750000000000028
0
LINE
8
BLACK
6
CONTINUOUS
10
202.7937499999999886
20
-66.0750000000000028
11
202.7100379999999973
21
-66.0583489999999927
0
LINE
8
BLACK
6
CONTINUOUS
10
202.7100379999999973
20
-66.0583489999999927
11
202.6390700000000038
21
-66.0109300000000019
0
LINE
8
BLACK
6
CONTINUOUS
10
202.6390700000000038
20
-66.0109300000000019
11
202.5916509999999846
21
-65.9399619999999942
0
LINE
8
BLACK
6
CONTINUOUS
10
202.5916509999999846
20
-65.9399619999999942
11
202.5749999999999886
21
-65.8562500000000028
0
LINE
8
BLACK
6
CONTINUOUS
10
202.5749999999999886
20
-65.8562500000000028
11
202.5749999999999886
21
-65.34375
0
LINE
8
BLACK
6
CONTINUOUS
10
202.5749999999999886
20
-65.34375
11
202.5916509999999846
21
-65.2600379999999944
0
LINE
8
BLACK
6
CONTINUOUS
10
202.5916509999999846
20
-65.2600379999999944
11
202.6390700000000038
21
-65.189070000000001
0
LINE
8
BLACK
6
CONTINUOUS
10
202.6390700000000038
20
-65.189070000000001
11
202.7100379999999973
21
-65.141650999999996
0
LINE
8
BLACK
6
CONTINUOUS
10
202.7100379999999973
20
-65.141650999999996
11
202.7937499999999886
21
-65.125
0
LINE
8
BLACK
6
CONTINUOUS
10
202.7937499999999886
20
-65.125
11
203.2312499999999886
21
-65.125
0
LINE
8
BLACK
6
CONTINUOUS
10
203.2312499999999886
20
-65.125
11
203.31496199999998
21
-65.141650999999996
0
LINE
8
BLACK
6
CONTINUOUS
10
204.889961999999997
20
-65.141650999999996
11
204.9609299999999905
21
-65.189070000000001
0
LINE
8
BLACK
6
CONTINUOUS
10
204.9609299999999905
20
-65.189070000000001
11
205.0083489999999813
21
-65.2600379999999944
0
LINE
8
BLACK
6
CONTINUOUS
10
205.0083489999999813
20
-65.2600379999999944
11
205.0249999999999773
21
-65.34375
0
LINE
8
BLACK
6
CONTINUOUS
10
205.0249999999999773
20
-65.34375
11
205.0249999999999773
21
-65.8562500000000028
0
LINE
8
BLACK
6
CONTINUOUS
10
205.0249999999999773
20
-65.8562500000000028
11
205.0083489999999813
21
-65.9399619999999942
0
LINE
8
BLACK
6
CONTINUOUS
10
205.0083489999999813
20
-65.9399619999999942
11
204.9609299999999905
21
-66.0109300000000019
0
LINE
8
BLACK
6
CONTINUOUS
10
204.9609299999999905
20
-66.0109300000000019
11
204.889961999999997
21
-66.0583489999999927
0
LINE
8
BLACK
6
CONTINUOUS
10
204.889961999999997
20
-66.0583489999999927
11
204.8062499999999773
21
-66.0750000000000028
0
LINE
8
BLACK
6
CONTINUOUS
10
204.8062499999999773
20
-66.0750000000000028
11
204.3687499999999773
21
-66.0750000000000028
0
LINE
8
BLACK
6
CONTINUOUS
10
204.3687499999999773
20
-66.0750000000000028
11
204.2850379999999859
21
-66.0583489999999927
0
LINE
8
BLACK
6
CONTINUOUS
10
204.2850379999999859
20
-66.0583489999999927
11
204.2140699999999924
21
-66.0109300000000019
0
LINE
8
BLACK
6
CONTINUOUS
10
204.2140699999999924
20
-66.0109300000000019
11
204.1666510000000017
21
-65.9399619999999942
0
LINE
8
BLACK
6
CONTINUOUS
10
204.1666510000000017
20
-65.9399619999999942
11
204.1499999999999773
21
-65.8562500000000028
0
LINE
8
BLACK
6
CONTINUOUS
10
204.1499999999999773
20
-65.8562500000000028
11
204.1499999999999773
21
-65.34375
0
LINE
8
BLACK
6
CONTINUOUS
10
204.1499999999999773
20
-65.34375
11
204.1666510000000017
21
-65.2600379999999944
0
LINE
8
BLACK
6
CONTINUOUS
10
204.1666510000000017
20
-65.2600379999999944
11
204.2140699999999924
21
-65.189070000000001
0
LINE
8
BLACK
6
CONTINUOUS
10
204.2140699999999924
20
-65.189070000000001
11
204.2850379999999859
21
-65.141650999999996
0
LINE
8
BLACK
6
CONTINUOUS
10
204.2850379999999859
20
-65.141650999999996
11
204.3687499999999773
21
-65.125
0
LINE
8
BLACK
6
CONTINUOUS
10
204.3687499999999773
20
-65.125
11
204.8062499999999773
21
-65.125
0
LINE
8
BLACK
6
CONTINUOUS
10
204.8062499999999773
20
-65.125
11
204.889961999999997
21
-65.141650999999996
0
LINE
8
BLACK
6
CONTINUOUS
10
206.4515370000000019
20
-64.7902239999999949
11
206.5164209999999798
21
-64.8335790000000003
0
LINE
8
BLACK
6
CONTINUOUS
10
206.5164209999999798
20
-64.8335790000000003
11
206.5597759999999994
21
-64.8984629999999925
0
LINE
8
BLACK
6
CONTINUOUS
10
206.5597759999999994
20
-64.8984629999999925
11
206.5749999999999886
21
-64.9749999999999943
0
LINE
8
BLACK
6
CONTINUOUS
10
206.5749999999999886
20
-64.9749999999999943
11
206.5749999999999886
21
-65.375
0
LINE
8
BLACK
6
CONTINUOUS
10
206.5749999999999886
20
-65.375
11
206.5597759999999994
21
-65.4515370000000019
0
LINE
8
BLACK
6
CONTINUOUS
10
206.5597759999999994
20
-65.4515370000000019
11
206.5164209999999798
21
-65.516420999999994
0
LINE
8
BLACK
6
CONTINUOUS
10
206.5164209999999798
20
-65.516420999999994
11
206.4515370000000019
21
-65.5597759999999994
0
LINE
8
BLACK
6
CONTINUOUS
10
206.4515370000000019
20
-65.5597759999999994
11
206.375
21
-65.5750000000000028
0
LINE
8
BLACK
6
CONTINUOUS
10
206.375
20
-65.5750000000000028
11
205.8249999999999886
21
-65.5750000000000028
0
LINE
8
BLACK
6
CONTINUOUS
10
205.8249999999999886
20
-65.5750000000000028
11
205.7484629999999868
21
-65.5597759999999994
0
LINE
8
BLACK
6
CONTINUOUS
10
205.7484629999999868
20
-65.5597759999999994
11
205.6835789999999804
21
-65.516420999999994
0
LINE
8
BLACK
6
CONTINUOUS
10
205.6835789999999804
20
-65.516420999999994
11
205.6402239999999892
21
-65.4515370000000019
0
LINE
8
BLACK
6
CONTINUOUS
10
205.6402239999999892
20
-65.4515370000000019
11
205.625
21
-65.375
0
LINE
8
BLACK
6
CONTINUOUS
10
205.625
20
-65.375
11
205.625
21
-64.9749999999999943
0
LINE
8
BLACK
6
CONTINUOUS
10
205.625
20
-64.9749999999999943
11
205.6402239999999892
21
-64.8984629999999925
0
LINE
8
BLACK
6
CONTINUOUS
10
205.6402239999999892
20
-64.8984629999999925
11
205.6835789999999804
21
-64.8335790000000003
0
LINE
8
BLACK
6
CONTINUOUS
10
205.6835789999999804
20
-64.8335790000000003
11
205.7484629999999868
21
-64.7902239999999949
0
LINE
8
BLACK
6
CONTINUOUS
10
205.7484629999999868
20
-64.7902239999999949
11
205.8249999999999886
21
-64.7749999999999915
0
LINE
8
BLACK
6
CONTINUOUS
10
205.8249999999999886
20
-64.7749999999999915
11
206.375
21
-64.7749999999999915
0
LINE
8
BLACK
6
CONTINUOUS
10
206.375
20
-64.7749999999999915
11
206.4515370000000019
21
-64.7902239999999949
0
LINE
8
BLACK
6
CONTINUOUS
10
198.6361039999999889
20
-64.3421269999999907
11
198.7090989999999806
21
-64.3909009999999995
0
LINE
8
BLACK
6
CONTINUOUS
10
198.7090989999999806
20
-64.3909009999999995
11
198.7578729999999894
21
-64.4638959999999912
0
LINE
8
BLACK
6
CONTINUOUS
10
198.7578729999999894
20
-64.4638959999999912
11
198.7749999999999773
21
-64.5499999999999972
0
LINE
8
BLACK
6
CONTINUOUS
10
198.7749999999999773
20
-64.5499999999999972
11
198.7749999999999773
21
-65.
0
LINE
8
BLACK
6
CONTINUOUS
10
198.7749999999999773
20
-65.
11
198.7578729999999894
21
-65.0861039999999917
0
LINE
8
BLACK
6
CONTINUOUS
10
198.7578729999999894
20
-65.0861039999999917
11
198.7090989999999806
21
-65.1590989999999977
0
LINE
8
BLACK
6
CONTINUOUS
10
198.7090989999999806
20
-65.1590989999999977
11
198.6361039999999889
21
-65.2078729999999922
0
LINE
8
BLACK
6
CONTINUOUS
10
198.6361039999999889
20
-65.2078729999999922
11
198.5499999999999829
21
-65.2249999999999943
0
LINE
8
BLACK
6
CONTINUOUS
10
198.5499999999999829
20
-65.2249999999999943
11
198.0499999999999829
21
-65.2249999999999943
0
LINE
8
BLACK
6
CONTINUOUS
10
198.0499999999999829
20
-65.2249999999999943
11
197.963895999999977
21
-65.2078729999999922
0
LINE
8
BLACK
6
CONTINUOUS
10
197.963895999999977
20
-65.2078729999999922
11
197.8909009999999853
21
-65.1590989999999977
0
LINE
8
BLACK
6
CONTINUOUS
10
197.8909009999999853
20
-65.1590989999999977
11
197.842127000000005
21
-65.0861039999999917
0
LINE
8
BLACK
6
CONTINUOUS
10
197.842127000000005
20
-65.0861039999999917
11
197.8249999999999886
21
-65.
0
LINE
8
BLACK
6
CONTINUOUS
10
197.8249999999999886
20
-65.
11
197.8249999999999886
21
-64.5499999999999972
0
LINE
8
BLACK
6
CONTINUOUS
10
197.8249999999999886
20
-64.5499999999999972
11
197.842127000000005
21
-64.4638959999999912
0
LINE
8
BLACK
6
CONTINUOUS
10
197.842127000000005
20
-64.4638959999999912
11
197.8909009999999853
21
-64.3909009999999995
0
LINE
8
BLACK
6
CONTINUOUS
10
197.8909009999999853
20
-64.3909009999999995
11
197.963895999999977
21
-64.3421269999999907
0
LINE
8
BLACK
6
CONTINUOUS
10
197.963895999999977
20
-64.3421269999999907
11
198.0499999999999829
21
-64.3250000000000028
0
LINE
8
BLACK
6
CONTINUOUS
10
198.0499999999999829
20
-64.3250000000000028
11
198.5499999999999829
21
-64.3250000000000028
0
LINE
8
BLACK
6
CONTINUOUS
10
198.5499999999999829
20
-64.3250000000000028
11
198.6361039999999889
21
-64.3421269999999907
0
LINE
8
BLACK
6
CONTINUOUS
10
200.1361039999999889
20
-64.3171269999999993
11
200.2090989999999806
21
-64.3659009999999938
0
LINE
8
BLACK
6
CONTINUOUS
10
200.2090989999999806
20
-64.3659009999999938
11
200.2578729999999894
21
-64.4388959999999997
0
LINE
8
BLACK
6
CONTINUOUS
10
200.2578729999999894
20
-64.4388959999999997
11
200.2749999999999773
21
-64.5249999999999915
0
LINE
8
BLACK
6
CONTINUOUS
10
200.2749999999999773
20
-64.5249999999999915
11
200.2749999999999773
21
-64.9749999999999943
0
LINE
8
BLACK
6
CONTINUOUS
10
200.2749999999999773
20
-64.9749999999999943
11
200.2578729999999894
21
-65.0611040000000003
0
LINE
8
BLACK
6
CONTINUOUS
10
200.2578729999999894
20
-65.0611040000000003
11
200.2090989999999806
21
-65.134098999999992
0
LINE
8
BLACK
6
CONTINUOUS
10
200.2090989999999806
20
-65.134098999999992
11
200.1361039999999889
21
-65.1828730000000007
0
LINE
8
BLACK
6
CONTINUOUS
10
200.1361039999999889
20
-65.1828730000000007
11
200.0499999999999829
21
-65.2000000000000028
0
LINE
8
BLACK
6
CONTINUOUS
10
200.0499999999999829
20
-65.2000000000000028
11
199.5499999999999829
21
-65.2000000000000028
0
LINE
8
BLACK
6
CONTINUOUS
10
199.5499999999999829
20
-65.2000000000000028
11
199.463895999999977
21
-65.1828730000000007
0
LINE
8
BLACK
6
CONTINUOUS
10
199.463895999999977
20
-65.1828730000000007
11
199.3909009999999853
21
-65.134098999999992
0
LINE
8
BLACK
6
CONTINUOUS
10
199.3909009999999853
20
-65.134098999999992
11
199.342127000000005
21
-65.0611040000000003
0
LINE
8
BLACK
6
CONTINUOUS
10
199.342127000000005
20
-65.0611040000000003
11
199.3249999999999886
21
-64.9749999999999943
0
LINE
8
BLACK
6
CONTINUOUS
10
199.3249999999999886
20
-64.9749999999999943
11
199.3249999999999886
21
-64.5249999999999915
0
LINE
8
BLACK
6
CONTINUOUS
10
199.3249999999999886
20
-64.5249999999999915
11
199.342127000000005
21
-64.4388959999999997
0
LINE
8
BLACK
6
CONTINUOUS
10
199.342127000000005
20
-64.4388959999999997
11
199.3909009999999853
21
-64.3659009999999938
0
LINE
8
BLACK
6
CONTINUOUS
10
199.3909009999999853
20
-64.3659009999999938
11
199.463895999999977
21
-64.3171269999999993
0
LINE
8
BLACK
6
CONTINUOUS
10
199.463895999999977
20
-64.3171269999999993
11
199.5499999999999829
21
-64.2999999999999972
0
LINE
8
BLACK
6
CONTINUOUS
10
199.5499999999999829
20
-64.2999999999999972
11
200.0499999999999829
21
-64.2999999999999972
0
LINE
8
BLACK
6
CONTINUOUS
10
200.0499999999999829
20
-64.2999999999999972
11
200.1361039999999889
21
-64.3171269999999993
0
LINE
8
BLACK
6
CONTINUOUS
10
192.9103350000000034
20
-64.6095150000000018
11
192.950887999999992
21
-64.6366119999999995
0
LINE
8
BLACK
6
CONTINUOUS
10
192.950887999999992
20
-64.6366119999999995
11
192.9779849999999897
21
-64.6771650000000022
0
LINE
8
BLACK
6
CONTINUOUS
10
192.9779849999999897
20
-64.6771650000000022
11
192.9874999999999829
21
-64.7249999999999943
0
LINE
8
BLACK
6
CONTINUOUS
10
192.9874999999999829
20
-64.7249999999999943
11
192.9874999999999829
21
-64.9749999999999943
0
LINE
8
BLACK
6
CONTINUOUS
10
192.9874999999999829
20
-64.9749999999999943
11
192.9779849999999897
21
-65.0228350000000006
0
LINE
8
BLACK
6
CONTINUOUS
10
192.9779849999999897
20
-65.0228350000000006
11
192.950887999999992
21
-65.0633880000000033
0
LINE
8
BLACK
6
CONTINUOUS
10
192.950887999999992
20
-65.0633880000000033
11
192.9103350000000034
21
-65.090485000000001
0
LINE
8
BLACK
6
CONTINUOUS
10
192.9103350000000034
20
-65.090485000000001
11
192.8624999999999829
21
-65.0999999999999943
0
LINE
8
BLACK
6
CONTINUOUS
10
192.8624999999999829
20
-65.0999999999999943
11
191.4874999999999829
21
-65.0999999999999943
0
LINE
8
BLACK
6
CONTINUOUS
10
191.4874999999999829
20
-65.0999999999999943
11
191.4396649999999909
21
-65.090485000000001
0
LINE
8
BLACK
6
CONTINUOUS
10
191.4396649999999909
20
-65.090485000000001
11
191.3991120000000024
21
-65.0633880000000033
0
LINE
8
BLACK
6
CONTINUOUS
10
191.3991120000000024
20
-65.0633880000000033
11
191.3720150000000046
21
-65.0228350000000006
0
LINE
8
BLACK
6
CONTINUOUS
10
191.3720150000000046
20
-65.0228350000000006
11
191.3624999999999829
21
-64.9749999999999943
0
LINE
8
BLACK
6
CONTINUOUS
10
191.3624999999999829
20
-64.9749999999999943
11
191.3624999999999829
21
-64.7249999999999943
0
LINE
8
BLACK
6
CONTINUOUS
10
191.3624999999999829
20
-64.7249999999999943
11
191.3720150000000046
21
-64.6771650000000022
0
LINE
8
BLACK
6
CONTINUOUS
10
191.3720150000000046
20
-64.6771650000000022
11
191.3991120000000024
21
-64.6366119999999995
0
LINE
8
BLACK
6
CONTINUOUS
10
191.3991120000000024
20
-64.6366119999999995
11
191.4396649999999909
21
-64.6095150000000018
0
LINE
8
BLACK
6
CONTINUOUS
10
191.4396649999999909
20
-64.6095150000000018
11
191.4874999999999829
21
-64.5999999999999943
0
LINE
8
BLACK
6
CONTINUOUS
10
191.4874999999999829
20
-64.5999999999999943
11
192.8624999999999829
21
-64.5999999999999943
0
LINE
8
BLACK
6
CONTINUOUS
10
192.8624999999999829
20
-64.5999999999999943
11
192.9103350000000034
21
-64.6095150000000018
0
LINE
8
BLACK
6
CONTINUOUS
10
197.1353349999999978
20
-64.6095150000000018
11
197.1758879999999863
21
-64.6366119999999995
0
LINE
8
BLACK
6
CONTINUOUS
10
197.1758879999999863
20
-64.6366119999999995
11
197.202984999999984
21
-64.6771650000000022
0
LINE
8
BLACK
6
CONTINUOUS
10
197.202984999999984
20
-64.6771650000000022
11
197.2124999999999773
21
-64.7249999999999943
0
LINE
8
BLACK
6
CONTINUOUS
10
197.2124999999999773
20
-64.7249999999999943
11
197.2124999999999773
21
-64.9749999999999943
0
LINE
8
BLACK
6
CONTINUOUS
10
197.2124999999999773
20
-64.9749999999999943
11
197.202984999999984
21
-65.0228350000000006
0
LINE
8
BLACK
6
CONTINUOUS
10
197.202984999999984
20
-65.0228350000000006
11
197.1758879999999863
21
-65.0633880000000033
0
LINE
8
BLACK
6
CONTINUOUS
10
197.1758879999999863
20
-65.0633880000000033
11
197.1353349999999978
21
-65.090485000000001
0
LINE
8
BLACK
6
CONTINUOUS
10
197.1353349999999978
20
-65.090485000000001
11
197.0874999999999773
21
-65.0999999999999943
0
LINE
8
BLACK
6
CONTINUOUS
10
197.0874999999999773
20
-65.0999999999999943
11
195.7124999999999773
21
-65.0999999999999943
0
LINE
8
BLACK
6
CONTINUOUS
10
195.7124999999999773
20
-65.0999999999999943
11
195.6646649999999852
21
-65.090485000000001
0
LINE
8
BLACK
6
CONTINUOUS
10
195.6646649999999852
20
-65.090485000000001
11
195.6241119999999967
21
-65.0633880000000033
0
LINE
8
BLACK
6
CONTINUOUS
10
195.6241119999999967
20
-65.0633880000000033
11
195.597014999999999
21
-65.0228350000000006
0
LINE
8
BLACK
6
CONTINUOUS
10
195.597014999999999
20
-65.0228350000000006
11
195.5874999999999773
21
-64.9749999999999943
0
LINE
8
BLACK
6
CONTINUOUS
10
195.5874999999999773
20
-64.9749999999999943
11
195.5874999999999773
21
-64.7249999999999943
0
LINE
8
BLACK
6
CONTINUOUS
10
195.5874999999999773
20
-64.7249999999999943
11
195.597014999999999
21
-64.6771650000000022
0
LINE
8
BLACK
6
CONTINUOUS
10
195.597014999999999
20
-64.6771650000000022
11
195.6241119999999967
21
-64.6366119999999995
0
LINE
8
BLACK
6
CONTINUOUS
10
195.6241119999999967
20
-64.6366119999999995
11
195.6646649999999852
21
-64.6095150000000018
0
LINE
8
BLACK
6
CONTINUOUS
10
195.6646649999999852
20
-64.6095150000000018
11
195.7124999999999773
21
-64.5999999999999943
0
LINE
8
BLACK
6
CONTINUOUS
10
195.7124999999999773
20
-64.5999999999999943
11
197.0874999999999773
21
-64.5999999999999943
0
LINE
8
BLACK
6
CONTINUOUS
10
197.0874999999999773
20
-64.5999999999999943
11
197.1353349999999978
21
-64.6095150000000018
0
LINE
8
BLACK
6
CONTINUOUS
10
189.1649620000000027
20
-63.9416510000000002
11
189.2359299999999962
21
-63.9890699999999981
0
LINE
8
BLACK
6
CONTINUOUS
10
189.2359299999999962
20
-63.9890699999999981
11
189.283348999999987
21
-64.0600379999999916
0
LINE
8
BLACK
6
CONTINUOUS
10
189.283348999999987
20
-64.0600379999999916
11
189.2999999999999829
21
-64.1437499999999972
0
LINE
8
BLACK
6
CONTINUOUS
10
189.2999999999999829
20
-64.1437499999999972
11
189.2999999999999829
21
-64.5812499999999972
0
LINE
8
BLACK
6
CONTINUOUS
10
189.2999999999999829
20
-64.5812499999999972
11
189.283348999999987
21
-64.6649620000000027
0
LINE
8
BLACK
6
CONTINUOUS
10
189.283348999999987
20
-64.6649620000000027
11
189.2359299999999962
21
-64.7359299999999962
0
LINE
8
BLACK
6
CONTINUOUS
10
189.2359299999999962
20
-64.7359299999999962
11
189.1649620000000027
21
-64.7833490000000012
0
LINE
8
BLACK
6
CONTINUOUS
10
189.1649620000000027
20
-64.7833490000000012
11
189.0812499999999829
21
-64.7999999999999972
0
LINE
8
BLACK
6
CONTINUOUS
10
189.0812499999999829
20
-64.7999999999999972
11
188.3187499999999943
21
-64.7999999999999972
0
LINE
8
BLACK
6
CONTINUOUS
10
188.3187499999999943
20
-64.7999999999999972
11
188.235038000000003
21
-64.7833490000000012
0
LINE
8
BLACK
6
CONTINUOUS
10
188.235038000000003
20
-64.7833490000000012
11
188.1640699999999811
21
-64.7359299999999962
0
LINE
8
BLACK
6
CONTINUOUS
10
188.1640699999999811
20
-64.7359299999999962
11
188.1166509999999903
21
-64.6649620000000027
0
LINE
8
BLACK
6
CONTINUOUS
10
188.1166509999999903
20
-64.6649620000000027
11
188.0999999999999943
21
-64.5812499999999972
0
LINE
8
BLACK
6
CONTINUOUS
10
188.0999999999999943
20
-64.5812499999999972
11
188.0999999999999943
21
-64.1437499999999972
0
LINE
8
BLACK
6
CONTINUOUS
10
188.0999999999999943
20
-64.1437499999999972
11
188.1166509999999903
21
-64.0600379999999916
0
LINE
8
BLACK
6
CONTINUOUS
10
188.1166509999999903
20
-64.0600379999999916
11
188.1640699999999811
21
-63.9890699999999981
0
LINE
8
BLACK
6
CONTINUOUS
10
188.1640699999999811
20
-63.9890699999999981
11
188.235038000000003
21
-63.9416510000000002
0
LINE
8
BLACK
6
CONTINUOUS
10
188.235038000000003
20
-63.9416510000000002
11
188.3187499999999943
21
-63.9249999999999972
0
LINE
8
BLACK
6
CONTINUOUS
10
188.3187499999999943
20
-63.9249999999999972
11
189.0812499999999829
21
-63.9249999999999972
0
LINE
8
BLACK
6
CONTINUOUS
10
189.0812499999999829
20
-63.9249999999999972
11
189.1649620000000027
21
-63.9416510000000002
0
LINE
8
BLACK
6
CONTINUOUS
10
190.6361039999999889
20
-63.8421269999999978
11
190.7090989999999806
21
-63.8909009999999995
0
LINE
8
BLACK
6
CONTINUOUS
10
190.7090989999999806
20
-63.8909009999999995
11
190.7578729999999894
21
-63.9638959999999983
0
LINE
8
BLACK
6
CONTINUOUS
10
190.7578729999999894
20
-63.9638959999999983
11
190.7749999999999773
21
-64.0499999999999972
0
LINE
8
BLACK
6
CONTINUOUS
10
190.7749999999999773
20
-64.0499999999999972
11
190.7749999999999773
21
-64.5
0
LINE
8
BLACK
6
CONTINUOUS
10
190.7749999999999773
20
-64.5
11
190.7578729999999894
21
-64.5861039999999917
0
LINE
8
BLACK
6
CONTINUOUS
10
190.7578729999999894
20
-64.5861039999999917
11
190.7090989999999806
21
-64.6590989999999977
0
LINE
8
BLACK
6
CONTINUOUS
10
190.7090989999999806
20
-64.6590989999999977
11
190.6361039999999889
21
-64.7078729999999922
0
LINE
8
BLACK
6
CONTINUOUS
10
190.6361039999999889
20
-64.7078729999999922
11
190.5499999999999829
21
-64.7249999999999943
0
LINE
8
BLACK
6
CONTINUOUS
10
190.5499999999999829
20
-64.7249999999999943
11
190.0499999999999829
21
-64.7249999999999943
0
LINE
8
BLACK
6
CONTINUOUS
10
190.0499999999999829
20
-64.7249999999999943
11
189.9638960000000054
21
-64.7078729999999922
0
LINE
8
BLACK
6
CONTINUOUS
10
189.9638960000000054
20
-64.7078729999999922
11
189.8909009999999853
21
-64.6590989999999977
0
LINE
8
BLACK
6
CONTINUOUS
10
189.8909009999999853
20
-64.6590989999999977
11
189.842127000000005
21
-64.5861039999999917
0
LINE
8
BLACK
6
CONTINUOUS
10
189.842127000000005
20
-64.5861039999999917
11
189.8249999999999886
21
-64.5
0
LINE
8
BLACK
6
CONTINUOUS
10
189.8249999999999886
20
-64.5
11
189.8249999999999886
21
-64.0499999999999972
0
LINE
8
BLACK
6
CONTINUOUS
10
189.8249999999999886
20
-64.0499999999999972
11
189.842127000000005
21
-63.9638959999999983
0
LINE
8
BLACK
6
CONTINUOUS
10
189.842127000000005
20
-63.9638959999999983
11
189.8909009999999853
21
-63.8909009999999995
0
LINE
8
BLACK
6
CONTINUOUS
10
189.8909009999999853
20
-63.8909009999999995
11
189.9638960000000054
21
-63.8421269999999978
0
LINE
8
BLACK
6
CONTINUOUS
10
189.9638960000000054
20
-63.8421269999999978
11
190.0499999999999829
21
-63.8249999999999957
0
LINE
8
BLACK
6
CONTINUOUS
10
190.0499999999999829
20
-63.8249999999999957
11
190.5499999999999829
21
-63.8249999999999957
0
LINE
8
BLACK
6
CONTINUOUS
10
190.5499999999999829
20
-63.8249999999999957
11
190.6361039999999889
21
-63.8421269999999978
0
LINE
8
BLACK
6
CONTINUOUS
10
192.9103350000000034
20
-63.9595149999999961
11
192.950887999999992
21
-63.9866119999999938
0
LINE
8
BLACK
6
CONTINUOUS
10
192.950887999999992
20
-63.9866119999999938
11
192.9779849999999897
21
-64.0271649999999966
0
LINE
8
BLACK
6
CONTINUOUS
10
192.9779849999999897
20
-64.0271649999999966
11
192.9874999999999829
21
-64.0750000000000028
0
LINE
8
BLACK
6
CONTINUOUS
10
192.9874999999999829
20
-64.0750000000000028
11
192.9874999999999829
21
-64.3250000000000028
0
LINE
8
BLACK
6
CONTINUOUS
10
192.9874999999999829
20
-64.3250000000000028
11
192.9779849999999897
21
-64.3728349999999949
0
LINE
8
BLACK
6
CONTINUOUS
10
192.9779849999999897
20
-64.3728349999999949
11
192.950887999999992
21
-64.4133879999999976
0
LINE
8
BLACK
6
CONTINUOUS
10
192.950887999999992
20
-64.4133879999999976
11
192.9103350000000034
21
-64.4404849999999954
0
LINE
8
BLACK
6
CONTINUOUS
10
192.9103350000000034
20
-64.4404849999999954
11
192.8624999999999829
21
-64.4500000000000028
0
LINE
8
BLACK
6
CONTINUOUS
10
192.8624999999999829
20
-64.4500000000000028
11
191.4874999999999829
21
-64.4500000000000028
0
LINE
8
BLACK
6
CONTINUOUS
10
191.4874999999999829
20
-64.4500000000000028
11
191.4396649999999909
21
-64.4404849999999954
0
LINE
8
BLACK
6
CONTINUOUS
10
191.4396649999999909
20
-64.4404849999999954
11
191.3991120000000024
21
-64.4133879999999976
0
LINE
8
BLACK
6
CONTINUOUS
10
191.3991120000000024
20
-64.4133879999999976
11
191.3720150000000046
21
-64.3728349999999949
0
LINE
8
BLACK
6
CONTINUOUS
10
191.3720150000000046
20
-64.3728349999999949
11
191.3624999999999829
21
-64.3250000000000028
0
LINE
8
BLACK
6
CONTINUOUS
10
191.3624999999999829
20
-64.3250000000000028
11
191.3624999999999829
21
-64.0750000000000028
0
LINE
8
BLACK
6
CONTINUOUS
10
191.3624999999999829
20
-64.0750000000000028
11
191.3720150000000046
21
-64.0271649999999966
0
LINE
8
BLACK
6
CONTINUOUS
10
191.3720150000000046
20
-64.0271649999999966
11
191.3991120000000024
21
-63.9866119999999938
0
LINE
8
BLACK
6
CONTINUOUS
10
191.3991120000000024
20
-63.9866119999999938
11
191.4396649999999909
21
-63.9595149999999961
0
LINE
8
BLACK
6
CONTINUOUS
10
191.4396649999999909
20
-63.9595149999999961
11
191.4874999999999829
21
-63.9499999999999957
0
LINE
8
BLACK
6
CONTINUOUS
10
191.4874999999999829
20
-63.9499999999999957
11
192.8624999999999829
21
-63.9499999999999957
0
LINE
8
BLACK
6
CONTINUOUS
10
192.8624999999999829
20
-63.9499999999999957
11
192.9103350000000034
21
-63.9595149999999961
0
LINE
8
BLACK
6
CONTINUOUS
10
197.1353349999999978
20
-63.9595149999999961
11
197.1758879999999863
21
-63.9866119999999938
0
LINE
8
BLACK
6
CONTINUOUS
10
197.1758879999999863
20
-63.9866119999999938
11
197.202984999999984
21
-64.0271649999999966
0
LINE
8
BLACK
6
CONTINUOUS
10
197.202984999999984
20
-64.0271649999999966
11
197.2124999999999773
21
-64.0750000000000028
0
LINE
8
BLACK
6
CONTINUOUS
10
197.2124999999999773
20
-64.0750000000000028
11
197.2124999999999773
21
-64.3250000000000028
0
LINE
8
BLACK
6
CONTINUOUS
10
197.2124999999999773
20
-64.3250000000000028
11
197.202984999999984
21
-64.3728349999999949
0
LINE
8
BLACK
6
CONTINUOUS
10
197.202984999999984
20
-64.3728349999999949
11
197.1758879999999863
21
-64.4133879999999976
0
LINE
8
BLACK
6
CONTINUOUS
10
197.1758879999999863
20
-64.4133879999999976
11
197.1353349999999978
21
-64.4404849999999954
0
LINE
8
BLACK
6
CONTINUOUS
10
197.1353349999999978
20
-64.4404849999999954
11
197.0874999999999773
21
-64.4500000000000028
0
LINE
8
BLACK
6
CONTINUOUS
10
197.0874999999999773
20
-64.4500000000000028
11
195.7124999999999773
21
-64.4500000000000028
0
LINE
8
BLACK
6
CONTINUOUS
10
195.7124999999999773
20
-64.4500000000000028
11
195.6646649999999852
21
-64.4404849999999954
0
LINE
8
BLACK
6
CONTINUOUS
10
195.6646649999999852
20
-64.4404849999999954
11
195.6241119999999967
21
-64.4133879999999976
0
LINE
8
BLACK
6
CONTINUOUS
10
195.6241119999999967
20
-64.4133879999999976
11
195.597014999999999
21
-64.3728349999999949
0
LINE
8
BLACK
6
CONTINUOUS
10
195.597014999999999
20
-64.3728349999999949
11
195.5874999999999773
21
-64.3250000000000028
0
LINE
8
BLACK
6
CONTINUOUS
10
195.5874999999999773
20
-64.3250000000000028
11
195.5874999999999773
21
-64.0750000000000028
0
LINE
8
BLACK
6
CONTINUOUS
10
195.5874999999999773
20
-64.0750000000000028
11
195.597014999999999
21
-64.0271649999999966
0
LINE
8
BLACK
6
CONTINUOUS
10
195.597014999999999
20
-64.0271649999999966
11
195.6241119999999967
21
-63.9866119999999938
0
LINE
8
BLACK
6
CONTINUOUS
10
195.6241119999999967
20
-63.9866119999999938
11
195.6646649999999852
21
-63.9595149999999961
0
LINE
8
BLACK
6
CONTINUOUS
10
195.6646649999999852
20
-63.9595149999999961
11
195.7124999999999773
21
-63.9499999999999957
0
LINE
8
BLACK
6
CONTINUOUS
10
195.7124999999999773
20
-63.9499999999999957
11
197.0874999999999773
21
-63.9499999999999957
0
LINE
8
BLACK
6
CONTINUOUS
10
197.0874999999999773
20
-63.9499999999999957
11
197.1353349999999978
21
-63.9595149999999961
0
LINE
8
BLACK
6
CONTINUOUS
10
203.3024619999999913
20
-63.3416509999999988
11
203.3734299999999848
21
-63.3890699999999967
0
LINE
8
BLACK
6
CONTINUOUS
10
203.3734299999999848
20
-63.3890699999999967
11
203.420849000000004
21
-63.4600379999999973
0
LINE
8
BLACK
6
CONTINUOUS
10
203.420849000000004
20
-63.4600379999999973
11
203.4375
21
-63.5437499999999957
0
LINE
8
BLACK
6
CONTINUOUS
10
203.4375
20
-63.5437499999999957
11
203.4375
21
-64.0562499999999915
0
LINE
8
BLACK
6
CONTINUOUS
10
203.4375
20
-64.0562499999999915
11
203.420849000000004
21
-64.139961999999997
0
LINE
8
BLACK
6
CONTINUOUS
10
203.420849000000004
20
-64.139961999999997
11
203.3734299999999848
21
-64.2109299999999905
0
LINE
8
BLACK
6
CONTINUOUS
10
203.3734299999999848
20
-64.2109299999999905
11
203.3024619999999913
21
-64.2583489999999955
0
LINE
8
BLACK
6
CONTINUOUS
10
203.3024619999999913
20
-64.2583489999999955
11
203.21875
21
-64.2749999999999915
0
LINE
8
BLACK
6
CONTINUOUS
10
203.21875
20
-64.2749999999999915
11
202.78125
21
-64.2749999999999915
0
LINE
8
BLACK
6
CONTINUOUS
10
202.78125
20
-64.2749999999999915
11
202.6975379999999802
21
-64.2583489999999955
0
LINE
8
BLACK
6
CONTINUOUS
10
202.6975379999999802
20
-64.2583489999999955
11
202.6265699999999867
21
-64.2109299999999905
0
LINE
8
BLACK
6
CONTINUOUS
10
202.6265699999999867
20
-64.2109299999999905
11
202.579150999999996
21
-64.139961999999997
0
LINE
8
BLACK
6
CONTINUOUS
10
202.579150999999996
20
-64.139961999999997
11
202.5625
21
-64.0562499999999915
0
LINE
8
BLACK
6
CONTINUOUS
10
202.5625
20
-64.0562499999999915
11
202.5625
21
-63.5437499999999957
0
LINE
8
BLACK
6
CONTINUOUS
10
202.5625
20
-63.5437499999999957
11
202.579150999999996
21
-63.4600379999999973
0
LINE
8
BLACK
6
CONTINUOUS
10
202.579150999999996
20
-63.4600379999999973
11
202.6265699999999867
21
-63.3890699999999967
0
LINE
8
BLACK
6
CONTINUOUS
10
202.6265699999999867
20
-63.3890699999999967
11
202.6975379999999802
21
-63.3416509999999988
0
LINE
8
BLACK
6
CONTINUOUS
10
202.6975379999999802
20
-63.3416509999999988
11
202.78125
21
-63.3249999999999957
0
LINE
8
BLACK
6
CONTINUOUS
10
202.78125
20
-63.3249999999999957
11
203.21875
21
-63.3249999999999957
0
LINE
8
BLACK
6
CONTINUOUS
10
203.21875
20
-63.3249999999999957
11
203.3024619999999913
21
-63.3416509999999988
0
LINE
8
BLACK
6
CONTINUOUS
10
204.87746199999998
20
-63.3416509999999988
11
204.9484300000000019
21
-63.3890699999999967
0
LINE
8
BLACK
6
CONTINUOUS
10
204.9484300000000019
20
-63.3890699999999967
11
204.9958489999999927
21
-63.4600379999999973
0
LINE
8
BLACK
6
CONTINUOUS
10
204.9958489999999927
20
-63.4600379999999973
11
205.0124999999999886
21
-63.5437499999999957
0
LINE
8
BLACK
6
CONTINUOUS
10
205.0124999999999886
20
-63.5437499999999957
11
205.0124999999999886
21
-64.0562499999999915
0
LINE
8
BLACK
6
CONTINUOUS
10
205.0124999999999886
20
-64.0562499999999915
11
204.9958489999999927
21
-64.139961999999997
0
LINE
8
BLACK
6
CONTINUOUS
10
204.9958489999999927
20
-64.139961999999997
11
204.9484300000000019
21
-64.2109299999999905
0
LINE
8
BLACK
6
CONTINUOUS
10
204.9484300000000019
20
-64.2109299999999905
11
204.87746199999998
21
-64.2583489999999955
0
LINE
8
BLACK
6
CONTINUOUS
10
204.87746199999998
20
-64.2583489999999955
11
204.7937499999999886
21
-64.2749999999999915
0
LINE
8
BLACK
6
CONTINUOUS
10
204.7937499999999886
20
-64.2749999999999915
11
204.3562499999999886
21
-64.2749999999999915
0
LINE
8
BLACK
6
CONTINUOUS
10
204.3562499999999886
20
-64.2749999999999915
11
204.2725379999999973
21
-64.2583489999999955
0
LINE
8
BLACK
6
CONTINUOUS
10
204.2725379999999973
20
-64.2583489999999955
11
204.2015700000000038
21
-64.2109299999999905
0
LINE
8
BLACK
6
CONTINUOUS
10
204.2015700000000038
20
-64.2109299999999905
11
204.1541509999999846
21
-64.139961999999997
0
LINE
8
BLACK
6
CONTINUOUS
10
204.1541509999999846
20
-64.139961999999997
11
204.1374999999999886
21
-64.0562499999999915
0
LINE
8
BLACK
6
CONTINUOUS
10
204.1374999999999886
20
-64.0562499999999915
11
204.1374999999999886
21
-63.5437499999999957
0
LINE
8
BLACK
6
CONTINUOUS
10
204.1374999999999886
20
-63.5437499999999957
11
204.1541509999999846
21
-63.4600379999999973
0
LINE
8
BLACK
6
CONTINUOUS
10
204.1541509999999846
20
-63.4600379999999973
11
204.2015700000000038
21
-63.3890699999999967
0
LINE
8
BLACK
6
CONTINUOUS
10
204.2015700000000038
20
-63.3890699999999967
11
204.2725379999999973
21
-63.3416509999999988
0
LINE
8
BLACK
6
CONTINUOUS
10
204.2725379999999973
20
-63.3416509999999988
11
204.3562499999999886
21
-63.3249999999999957
0
LINE
8
BLACK
6
CONTINUOUS
10
204.3562499999999886
20
-63.3249999999999957
11
204.7937499999999886
21
-63.3249999999999957
0
LINE
8
BLACK
6
CONTINUOUS
10
204.7937499999999886
20
-63.3249999999999957
11
204.87746199999998
21
-63.3416509999999988
0
LINE
8
BLACK
6
CONTINUOUS
10
206.4515370000000019
20
-63.3402239999999992
11
206.5164209999999798
21
-63.3835789999999974
0
LINE
8
BLACK
6
CONTINUOUS
10
206.5164209999999798
20
-63.3835789999999974
11
206.5597759999999994
21
-63.4484629999999967
0
LINE
8
BLACK
6
CONTINUOUS
10
206.5597759999999994
20
-63.4484629999999967
11
206.5749999999999886
21
-63.5249999999999986
0
LINE
8
BLACK
6
CONTINUOUS
10
206.5749999999999886
20
-63.5249999999999986
11
206.5749999999999886
21
-63.9249999999999972
0
LINE
8
BLACK
6
CONTINUOUS
10
206.5749999999999886
20
-63.9249999999999972
11
206.5597759999999994
21
-64.001536999999999
0
LINE
8
BLACK
6
CONTINUOUS
10
206.5597759999999994
20
-64.001536999999999
11
206.5164209999999798
21
-64.0664209999999912
0
LINE
8
BLACK
6
CONTINUOUS
10
206.5164209999999798
20
-64.0664209999999912
11
206.4515370000000019
21
-64.1097759999999965
0
LINE
8
BLACK
6
CONTINUOUS
10
206.4515370000000019
20
-64.1097759999999965
11
206.375
21
-64.125
0
LINE
8
BLACK
6
CONTINUOUS
10
206.375
20
-64.125
11
205.8249999999999886
21
-64.125
0
LINE
8
BLACK
6
CONTINUOUS
10
205.8249999999999886
20
-64.125
11
205.7484629999999868
21
-64.1097759999999965
0
LINE
8
BLACK
6
CONTINUOUS
10
205.7484629999999868
20
-64.1097759999999965
11
205.6835789999999804
21
-64.0664209999999912
0
LINE
8
BLACK
6
CONTINUOUS
10
205.6835789999999804
20
-64.0664209999999912
11
205.6402239999999892
21
-64.001536999999999
0
LINE
8
BLACK
6
CONTINUOUS
10
205.6402239999999892
20
-64.001536999999999
11
205.625
21
-63.9249999999999972
0
LINE
8
BLACK
6
CONTINUOUS
10
205.625
20
-63.9249999999999972
11
205.625
21
-63.5249999999999986
0
LINE
8
BLACK
6
CONTINUOUS
10
205.625
20
-63.5249999999999986
11
205.6402239999999892
21
-63.4484629999999967
0
LINE
8
BLACK
6
CONTINUOUS
10
205.6402239999999892
20
-63.4484629999999967
11
205.6835789999999804
21
-63.3835789999999974
0
LINE
8
BLACK
6
CONTINUOUS
10
205.6835789999999804
20
-63.3835789999999974
11
205.7484629999999868
21
-63.3402239999999992
0
LINE
8
BLACK
6
CONTINUOUS
10
205.7484629999999868
20
-63.3402239999999992
11
205.8249999999999886
21
-63.3249999999999957
0
LINE
8
BLACK
6
CONTINUOUS
10
205.8249999999999886
20
-63.3249999999999957
11
206.375
21
-63.3249999999999957
0
LINE
8
BLACK
6
CONTINUOUS
10
206.375
20
-63.3249999999999957
11
206.4515370000000019
21
-63.3402239999999992
0
LINE
8
BLACK
6
CONTINUOUS
10
192.9103350000000034
20
-63.3095149999999975
11
192.950887999999992
21
-63.3366119999999952
0
LINE
8
BLACK
6
CONTINUOUS
10
192.950887999999992
20
-63.3366119999999952
11
192.9779849999999897
21
-63.377164999999998
0
LINE
8
BLACK
6
CONTINUOUS
10
192.9779849999999897
20
-63.377164999999998
11
192.9874999999999829
21
-63.4249999999999972
0
LINE
8
BLACK
6
CONTINUOUS
10
192.9874999999999829
20
-63.4249999999999972
11
192.9874999999999829
21
-63.6749999999999972
0
LINE
8
BLACK
6
CONTINUOUS
10
192.9874999999999829
20
-63.6749999999999972
11
192.9779849999999897
21
-63.7228349999999963
0
LINE
8
BLACK
6
CONTINUOUS
10
192.9779849999999897
20
-63.7228349999999963
11
192.950887999999992
21
-63.7633879999999991
0
LINE
8
BLACK
6
CONTINUOUS
10
192.950887999999992
20
-63.7633879999999991
11
192.9103350000000034
21
-63.7904849999999968
0
LINE
8
BLACK
6
CONTINUOUS
10
192.9103350000000034
20
-63.7904849999999968
11
192.8624999999999829
21
-63.7999999999999972
0
LINE
8
BLACK
6
CONTINUOUS
10
192.8624999999999829
20
-63.7999999999999972
11
191.4874999999999829
21
-63.7999999999999972
0
LINE
8
BLACK
6
CONTINUOUS
10
191.4874999999999829
20
-63.7999999999999972
11
191.4396649999999909
21
-63.7904849999999968
0
LINE
8
BLACK
6
CONTINUOUS
10
191.4396649999999909
20
-63.7904849999999968
11
191.3991120000000024
21
-63.7633879999999991
0
LINE
8
BLACK
6
CONTINUOUS
10
191.3991120000000024
20
-63.7633879999999991
11
191.3720150000000046
21
-63.7228349999999963
0
LINE
8
BLACK
6
CONTINUOUS
10
191.3720150000000046
20
-63.7228349999999963
11
191.3624999999999829
21
-63.6749999999999972
0
LINE
8
BLACK
6
CONTINUOUS
10
191.3624999999999829
20
-63.6749999999999972
11
191.3624999999999829
21
-63.4249999999999972
0
LINE
8
BLACK
6
CONTINUOUS
10
191.3624999999999829
20
-63.4249999999999972
11
191.3720150000000046
21
-63.377164999999998
0
LINE
8
BLACK
6
CONTINUOUS
10
191.3720150000000046
20
-63.377164999999998
11
191.3991120000000024
21
-63.3366119999999952
0
LINE
8
BLACK
6
CONTINUOUS
10
191.3991120000000024
20
-63.3366119999999952
11
191.4396649999999909
21
-63.3095149999999975
0
LINE
8
BLACK
6
CONTINUOUS
10
191.4396649999999909
20
-63.3095149999999975
11
191.4874999999999829
21
-63.2999999999999972
0
LINE
8
BLACK
6
CONTINUOUS
10
191.4874999999999829
20
-63.2999999999999972
11
192.8624999999999829
21
-63.2999999999999972
0
LINE
8
BLACK
6
CONTINUOUS
10
192.8624999999999829
20
-63.2999999999999972
11
192.9103350000000034
21
-63.3095149999999975
0
LINE
8
BLACK
6
CONTINUOUS
10
197.1353349999999978
20
-63.3095149999999975
11
197.1758879999999863
21
-63.3366119999999952
0
LINE
8
BLACK
6
CONTINUOUS
10
197.1758879999999863
20
-63.3366119999999952
11
197.202984999999984
21
-63.377164999999998
0
LINE
8
BLACK
6
CONTINUOUS
10
197.202984999999984
20
-63.377164999999998
11
197.2124999999999773
21
-63.4249999999999972
0
LINE
8
BLACK
6
CONTINUOUS
10
197.2124999999999773
20
-63.4249999999999972
11
197.2124999999999773
21
-63.6749999999999972
0
LINE
8
BLACK
6
CONTINUOUS
10
197.2124999999999773
20
-63.6749999999999972
11
197.202984999999984
21
-63.7228349999999963
0
LINE
8
BLACK
6
CONTINUOUS
10
197.202984999999984
20
-63.7228349999999963
11
197.1758879999999863
21
-63.7633879999999991
0
LINE
8
BLACK
6
CONTINUOUS
10
197.1758879999999863
20
-63.7633879999999991
11
197.1353349999999978
21
-63.7904849999999968
0
LINE
8
BLACK
6
CONTINUOUS
10
197.1353349999999978
20
-63.7904849999999968
11
197.0874999999999773
21
-63.7999999999999972
0
LINE
8
BLACK
6
CONTINUOUS
10
197.0874999999999773
20
-63.7999999999999972
11
195.7124999999999773
21
-63.7999999999999972
0
LINE
8
BLACK
6
CONTINUOUS
10
195.7124999999999773
20
-63.7999999999999972
11
195.6646649999999852
21
-63.7904849999999968
0
LINE
8
BLACK
6
CONTINUOUS
10
195.6646649999999852
20
-63.7904849999999968
11
195.6241119999999967
21
-63.7633879999999991
0
LINE
8
BLACK
6
CONTINUOUS
10
195.6241119999999967
20
-63.7633879999999991
11
195.597014999999999
21
-63.7228349999999963
0
LINE
8
BLACK
6
CONTINUOUS
10
195.597014999999999
20
-63.7228349999999963
11
195.5874999999999773
21
-63.6749999999999972
0
LINE
8
BLACK
6
CONTINUOUS
10
195.5874999999999773
20
-63.6749999999999972
11
195.5874999999999773
21
-63.4249999999999972
0
LINE
8
BLACK
6
CONTINUOUS
10
195.5874999999999773
20
-63.4249999999999972
11
195.597014999999999
21
-63.377164999999998
0
LINE
8
BLACK
6
CONTINUOUS
10
195.597014999999999
20
-63.377164999999998
11
195.6241119999999967
21
-63.3366119999999952
0
LINE
8
BLACK
6
CONTINUOUS
10
195.6241119999999967
20
-63.3366119999999952
11
195.6646649999999852
21
-63.3095149999999975
0
LINE
8
BLACK
6
CONTINUOUS
10
195.6646649999999852
20
-63.3095149999999975
11
195.7124999999999773
21
-63.2999999999999972
0
LINE
8
BLACK
6
CONTINUOUS
10
195.7124999999999773
20
-63.2999999999999972
11
197.0874999999999773
21
-63.2999999999999972
0
LINE
8
BLACK
6
CONTINUOUS
10
197.0874999999999773
20
-63.2999999999999972
11
197.1353349999999978
21
-63.3095149999999975
0
LINE
8
BLACK
6
CONTINUOUS
10
198.6361039999999889
20
-62.7921270000000007
11
198.7090989999999806
21
-62.8409009999999952
0
LINE
8
BLACK
6
CONTINUOUS
10
198.7090989999999806
20
-62.8409009999999952
11
198.7578729999999894
21
-62.913895999999994
0
LINE
8
BLACK
6
CONTINUOUS
10
198.7578729999999894
20
-62.913895999999994
11
198.7749999999999773
21
-63.
0
LINE
8
BLACK
6
CONTINUOUS
10
198.7749999999999773
20
-63.
11
198.7749999999999773
21
-63.4499999999999957
0
LINE
8
BLACK
6
CONTINUOUS
10
198.7749999999999773
20
-63.4499999999999957
11
198.7578729999999894
21
-63.5361039999999946
0
LINE
8
BLACK
6
CONTINUOUS
10
198.7578729999999894
20
-63.5361039999999946
11
198.7090989999999806
21
-63.6090990000000005
0
LINE
8
BLACK
6
CONTINUOUS
10
198.7090989999999806
20
-63.6090990000000005
11
198.6361039999999889
21
-63.657872999999995
0
LINE
8
BLACK
6
CONTINUOUS
10
198.6361039999999889
20
-63.657872999999995
11
198.5499999999999829
21
-63.6749999999999972
0
LINE
8
BLACK
6
CONTINUOUS
10
198.5499999999999829
20
-63.6749999999999972
11
198.0499999999999829
21
-63.6749999999999972
0
LINE
8
BLACK
6
CONTINUOUS
10
198.0499999999999829
20
-63.6749999999999972
11
197.963895999999977
21
-63.657872999999995
0
LINE
8
BLACK
6
CONTINUOUS
10
197.963895999999977
20
-63.657872999999995
11
197.8909009999999853
21
-63.6090990000000005
0
LINE
8
BLACK
6
CONTINUOUS
10
197.8909009999999853
20
-63.6090990000000005
11
197.842127000000005
21
-63.5361039999999946
0
LINE
8
BLACK
6
CONTINUOUS
10
197.842127000000005
20
-63.5361039999999946
11
197.8249999999999886
21
-63.4499999999999957
0
LINE
8
BLACK
6
CONTINUOUS
10
197.8249999999999886
20
-63.4499999999999957
11
197.8249999999999886
21
-63.
0
LINE
8
BLACK
6
CONTINUOUS
10
197.8249999999999886
20
-63.
11
197.842127000000005
21
-62.913895999999994
0
LINE
8
BLACK
6
CONTINUOUS
10
197.842127000000005
20
-62.913895999999994
11
197.8909009999999853
21
-62.8409009999999952
0
LINE
8
BLACK
6
CONTINUOUS
10
197.8909009999999853
20
-62.8409009999999952
11
197.963895999999977
21
-62.7921270000000007
0
LINE
8
BLACK
6
CONTINUOUS
10
197.963895999999977
20
-62.7921270000000007
11
198.0499999999999829
21
-62.7749999999999986
0
LINE
8
BLACK
6
CONTINUOUS
10
198.0499999999999829
20
-62.7749999999999986
11
198.5499999999999829
21
-62.7749999999999986
0
LINE
8
BLACK
6
CONTINUOUS
10
198.5499999999999829
20
-62.7749999999999986
11
198.6361039999999889
21
-62.7921270000000007
0
LINE
8
BLACK
6
CONTINUOUS
10
200.1361039999999889
20
-62.767126999999995
11
200.2090989999999806
21
-62.8159009999999967
0
LINE
8
BLACK
6
CONTINUOUS
10
200.2090989999999806
20
-62.8159009999999967
11
200.2578729999999894
21
-62.8888959999999955
0
LINE
8
BLACK
6
CONTINUOUS
10
200.2578729999999894
20
-62.8888959999999955
11
200.2749999999999773
21
-62.9749999999999943
0
LINE
8
BLACK
6
CONTINUOUS
10
200.2749999999999773
20
-62.9749999999999943
11
200.2749999999999773
21
-63.4249999999999972
0
LINE
8
BLACK
6
CONTINUOUS
10
200.2749999999999773
20
-63.4249999999999972
11
200.2578729999999894
21
-63.511103999999996
0
LINE
8
BLACK
6
CONTINUOUS
10
200.2578729999999894
20
-63.511103999999996
11
200.2090989999999806
21
-63.5840989999999948
0
LINE
8
BLACK
6
CONTINUOUS
10
200.2090989999999806
20
-63.5840989999999948
11
200.1361039999999889
21
-63.6328729999999965
0
LINE
8
BLACK
6
CONTINUOUS
10
200.1361039999999889
20
-63.6328729999999965
11
200.0499999999999829
21
-63.6499999999999986
0
LINE
8
BLACK
6
CONTINUOUS
10
200.0499999999999829
20
-63.6499999999999986
11
199.5499999999999829
21
-63.6499999999999986
0
LINE
8
BLACK
6
CONTINUOUS
10
199.5499999999999829
20
-63.6499999999999986
11
199.463895999999977
21
-63.6328729999999965
0
LINE
8
BLACK
6
CONTINUOUS
10
199.463895999999977
20
-63.6328729999999965
11
199.3909009999999853
21
-63.5840989999999948
0
LINE
8
BLACK
6
CONTINUOUS
10
199.3909009999999853
20
-63.5840989999999948
11
199.342127000000005
21
-63.511103999999996
0
LINE
8
BLACK
6
CONTINUOUS
10
199.342127000000005
20
-63.511103999999996
11
199.3249999999999886
21
-63.4249999999999972
0
LINE
8
BLACK
6
CONTINUOUS
10
199.3249999999999886
20
-63.4249999999999972
11
199.3249999999999886
21
-62.9749999999999943
0
LINE
8
BLACK
6
CONTINUOUS
10
199.3249999999999886
20
-62.9749999999999943
11
199.342127000000005
21
-62.8888959999999955
0
LINE
8
BLACK
6
CONTINUOUS
10
199.342127000000005
20
-62.8888959999999955
11
199.3909009999999853
21
-62.8159009999999967
0
LINE
8
BLACK
6
CONTINUOUS
10
199.3909009999999853
20
-62.8159009999999967
11
199.463895999999977
21
-62.767126999999995
0
LINE
8
BLACK
6
CONTINUOUS
10
199.463895999999977
20
-62.767126999999995
11
199.5499999999999829
21
-62.75
0
LINE
8
BLACK
6
CONTINUOUS
10
199.5499999999999829
20
-62.75
11
200.0499999999999829
21
-62.75
0
LINE
8
BLACK
6
CONTINUOUS
10
200.0499999999999829
20
-62.75
11
200.1361039999999889
21
-62.767126999999995
0
LINE
8
BLACK
6
CONTINUOUS
10
190.6361039999999889
20
-62.2921270000000007
11
190.7090989999999806
21
-62.3409009999999952
0
LINE
8
BLACK
6
CONTINUOUS
10
190.7090989999999806
20
-62.3409009999999952
11
190.7578729999999894
21
-62.413895999999994
0
LINE
8
BLACK
6
CONTINUOUS
10
190.7578729999999894
20
-62.413895999999994
11
190.7749999999999773
21
-62.5
0
LINE
8
BLACK
6
CONTINUOUS
10
190.7749999999999773
20
-62.5
11
190.7749999999999773
21
-62.9499999999999957
0
LINE
8
BLACK
6
CONTINUOUS
10
190.7749999999999773
20
-62.9499999999999957
11
190.7578729999999894
21
-63.0361039999999946
0
LINE
8
BLACK
6
CONTINUOUS
10
190.7578729999999894
20
-63.0361039999999946
11
190.7090989999999806
21
-63.1090990000000005
0
LINE
8
BLACK
6
CONTINUOUS
10
190.7090989999999806
20
-63.1090990000000005
11
190.6361039999999889
21
-63.157872999999995
0
LINE
8
BLACK
6
CONTINUOUS
10
190.6361039999999889
20
-63.157872999999995
11
190.5499999999999829
21
-63.1749999999999972
0
LINE
8
BLACK
6
CONTINUOUS
10
190.5499999999999829
20
-63.1749999999999972
11
190.0499999999999829
21
-63.1749999999999972
0
LINE
8
BLACK
6
CONTINUOUS
10
190.0499999999999829
20
-63.1749999999999972
11
189.9638960000000054
21
-63.157872999999995
0
LINE
8
BLACK
6
CONTINUOUS
10
189.9638960000000054
20
-63.157872999999995
11
189.8909009999999853
21
-63.1090990000000005
0
LINE
8
BLACK
6
CONTINUOUS
10
189.8909009999999853
20
-63.1090990000000005
11
189.842127000000005
21
-63.0361039999999946
0
LINE
8
BLACK
6
CONTINUOUS
10
189.842127000000005
20
-63.0361039999999946
11
189.8249999999999886
21
-62.9499999999999957
0
LINE
8
BLACK
6
CONTINUOUS
10
189.8249999999999886
20
-62.9499999999999957
11
189.8249999999999886
21
-62.5
0
LINE
8
BLACK
6
CONTINUOUS
10
189.8249999999999886
20
-62.5
11
189.842127000000005
21
-62.413895999999994
0
LINE
8
BLACK
6
CONTINUOUS
10
189.842127000000005
20
-62.413895999999994
11
189.8909009999999853
21
-62.3409009999999952
0
LINE
8
BLACK
6
CONTINUOUS
10
189.8909009999999853
20
-62.3409009999999952
11
189.9638960000000054
21
-62.2921270000000007
0
LINE
8
BLACK
6
CONTINUOUS
10
189.9638960000000054
20
-62.2921270000000007
11
190.0499999999999829
21
-62.2749999999999986
0
LINE
8
BLACK
6
CONTINUOUS
10
190.0499999999999829
20
-62.2749999999999986
11
190.5499999999999829
21
-62.2749999999999986
0
LINE
8
BLACK
6
CONTINUOUS
10
190.5499999999999829
20
-62.2749999999999986
11
190.6361039999999889
21
-62.2921270000000007
0
LINE
8
BLACK
6
CONTINUOUS
10
192.9103350000000034
20
-62.659514999999999
11
192.950887999999992
21
-62.6866119999999967
0
LINE
8
BLACK
6
CONTINUOUS
10
192.950887999999992
20
-62.6866119999999967
11
192.9779849999999897
21
-62.7271649999999994
0
LINE
8
BLACK
6
CONTINUOUS
10
192.9779849999999897
20
-62.7271649999999994
11
192.9874999999999829
21
-62.7749999999999986
0
LINE
8
BLACK
6
CONTINUOUS
10
192.9874999999999829
20
-62.7749999999999986
11
192.9874999999999829
21
-63.0249999999999986
0
LINE
8
BLACK
6
CONTINUOUS
10
192.9874999999999829
20
-63.0249999999999986
11
192.9779849999999897
21
-63.0728349999999978
0
LINE
8
BLACK
6
CONTINUOUS
10
192.9779849999999897
20
-63.0728349999999978
11
192.950887999999992
21
-63.1133880000000005
0
LINE
8
BLACK
6
CONTINUOUS
10
192.950887999999992
20
-63.1133880000000005
11
192.9103350000000034
21
-63.1404849999999982
0
LINE
8
BLACK
6
CONTINUOUS
10
192.9103350000000034
20
-63.1404849999999982
11
192.8624999999999829
21
-63.1499999999999986
0
LINE
8
BLACK
6
CONTINUOUS
10
192.8624999999999829
20
-63.1499999999999986
11
191.4874999999999829
21
-63.1499999999999986
0
LINE
8
BLACK
6
CONTINUOUS
10
191.4874999999999829
20
-63.1499999999999986
11
191.4396649999999909
21
-63.1404849999999982
0
LINE
8
BLACK
6
CONTINUOUS
10
191.4396649999999909
20
-63.1404849999999982
11
191.3991120000000024
21
-63.1133880000000005
0
LINE
8
BLACK
6
CONTINUOUS
10
191.3991120000000024
20
-63.1133880000000005
11
191.3720150000000046
21
-63.0728349999999978
0
LINE
8
BLACK
6
CONTINUOUS
10
191.3720150000000046
20
-63.0728349999999978
11
191.3624999999999829
21
-63.0249999999999986
0
LINE
8
BLACK
6
CONTINUOUS
10
191.3624999999999829
20
-63.0249999999999986
11
191.3624999999999829
21
-62.7749999999999986
0
LINE
8
BLACK
6
CONTINUOUS
10
191.3624999999999829
20
-62.7749999999999986
11
191.3720150000000046
21
-62.7271649999999994
0
LINE
8
BLACK
6
CONTINUOUS
10
191.3720150000000046
20
-62.7271649999999994
11
191.3991120000000024
21
-62.6866119999999967
0
LINE
8
BLACK
6
CONTINUOUS
10
191.3991120000000024
20
-62.6866119999999967
11
191.4396649999999909
21
-62.659514999999999
0
LINE
8
BLACK
6
CONTINUOUS
10
191.4396649999999909
20
-62.659514999999999
11
191.4874999999999829
21
-62.6499999999999986
0
LINE
8
BLACK
6
CONTINUOUS
10
191.4874999999999829
20
-62.6499999999999986
11
192.8624999999999829
21
-62.6499999999999986
0
LINE
8
BLACK
6
CONTINUOUS
10
192.8624999999999829
20
-62.6499999999999986
11
192.9103350000000034
21
-62.659514999999999
0
LINE
8
BLACK
6
CONTINUOUS
10
197.1353349999999978
20
-62.659514999999999
11
197.1758879999999863
21
-62.6866119999999967
0
LINE
8
BLACK
6
CONTINUOUS
10
197.1758879999999863
20
-62.6866119999999967
11
197.202984999999984
21
-62.7271649999999994
0
LINE
8
BLACK
6
CONTINUOUS
10
197.202984999999984
20
-62.7271649999999994
11
197.2124999999999773
21
-62.7749999999999986
0
LINE
8
BLACK
6
CONTINUOUS
10
197.2124999999999773
20
-62.7749999999999986
11
197.2124999999999773
21
-63.0249999999999986
0
LINE
8
BLACK
6
CONTINUOUS
10
197.2124999999999773
20
-63.0249999999999986
11
197.202984999999984
21
-63.0728349999999978
0
LINE
8
BLACK
6
CONTINUOUS
10
197.202984999999984
20
-63.0728349999999978
11
197.1758879999999863
21
-63.1133880000000005
0
LINE
8
BLACK
6
CONTINUOUS
10
197.1758879999999863
20
-63.1133880000000005
11
197.1353349999999978
21
-63.1404849999999982
0
LINE
8
BLACK
6
CONTINUOUS
10
197.1353349999999978
20
-63.1404849999999982
11
197.0874999999999773
21
-63.1499999999999986
0
LINE
8
BLACK
6
CONTINUOUS
10
197.0874999999999773
20
-63.1499999999999986
11
195.7124999999999773
21
-63.1499999999999986
0
LINE
8
BLACK
6
CONTINUOUS
10
195.7124999999999773
20
-63.1499999999999986
11
195.6646649999999852
21
-63.1404849999999982
0
LINE
8
BLACK
6
CONTINUOUS
10
195.6646649999999852
20
-63.1404849999999982
11
195.6241119999999967
21
-63.1133880000000005
0
LINE
8
BLACK
6
CONTINUOUS
10
195.6241119999999967
20
-63.1133880000000005
11
195.597014999999999
21
-63.0728349999999978
0
LINE
8
BLACK
6
CONTINUOUS
10
195.597014999999999
20
-63.0728349999999978
11
195.5874999999999773
21
-63.0249999999999986
0
LINE
8
BLACK
6
CONTINUOUS
10
195.5874999999999773
20
-63.0249999999999986
11
195.5874999999999773
21
-62.7749999999999986
0
LINE
8
BLACK
6
CONTINUOUS
10
195.5874999999999773
20
-62.7749999999999986
11
195.597014999999999
21
-62.7271649999999994
0
LINE
8
BLACK
6
CONTINUOUS
10
195.597014999999999
20
-62.7271649999999994
11
195.6241119999999967
21
-62.6866119999999967
0
LINE
8
BLACK
6
CONTINUOUS
10
195.6241119999999967
20
-62.6866119999999967
11
195.6646649999999852
21
-62.659514999999999
0
LINE
8
BLACK
6
CONTINUOUS
10
195.6646649999999852
20
-62.659514999999999
11
195.7124999999999773
21
-62.6499999999999986
0
LINE
8
BLACK
6
CONTINUOUS
10
195.7124999999999773
20
-62.6499999999999986
11
197.0874999999999773
21
-62.6499999999999986
0
LINE
8
BLACK
6
CONTINUOUS
10
197.0874999999999773
20
-62.6499999999999986
11
197.1353349999999978
21
-62.659514999999999
0
LINE
8
BLACK
6
CONTINUOUS
10
189.1649620000000027
20
-61.8166510000000002
11
189.2359299999999962
21
-61.8640699999999981
0
LINE
8
BLACK
6
CONTINUOUS
10
189.2359299999999962
20
-61.8640699999999981
11
189.283348999999987
21
-61.9350379999999987
0
LINE
8
BLACK
6
CONTINUOUS
10
189.283348999999987
20
-61.9350379999999987
11
189.2999999999999829
21
-62.0187499999999972
0
LINE
8
BLACK
6
CONTINUOUS
10
189.2999999999999829
20
-62.0187499999999972
11
189.2999999999999829
21
-62.4562499999999972
0
LINE
8
BLACK
6
CONTINUOUS
10
189.2999999999999829
20
-62.4562499999999972
11
189.283348999999987
21
-62.5399619999999956
0
LINE
8
BLACK
6
CONTINUOUS
10
189.283348999999987
20
-62.5399619999999956
11
189.2359299999999962
21
-62.6109299999999962
0
LINE
8
BLACK
6
CONTINUOUS
10
189.2359299999999962
20
-62.6109299999999962
11
189.1649620000000027
21
-62.6583489999999941
0
LINE
8
BLACK
6
CONTINUOUS
10
189.1649620000000027
20
-62.6583489999999941
11
189.0812499999999829
21
-62.6749999999999972
0
LINE
8
BLACK
6
CONTINUOUS
10
189.0812499999999829
20
-62.6749999999999972
11
188.3187499999999943
21
-62.6749999999999972
0
LINE
8
BLACK
6
CONTINUOUS
10
188.3187499999999943
20
-62.6749999999999972
11
188.235038000000003
21
-62.6583489999999941
0
LINE
8
BLACK
6
CONTINUOUS
10
188.235038000000003
20
-62.6583489999999941
11
188.1640699999999811
21
-62.6109299999999962
0
LINE
8
BLACK
6
CONTINUOUS
10
188.1640699999999811
20
-62.6109299999999962
11
188.1166509999999903
21
-62.5399619999999956
0
LINE
8
BLACK
6
CONTINUOUS
10
188.1166509999999903
20
-62.5399619999999956
11
188.0999999999999943
21
-62.4562499999999972
0
LINE
8
BLACK
6
CONTINUOUS
10
188.0999999999999943
20
-62.4562499999999972
11
188.0999999999999943
21
-62.0187499999999972
0
LINE
8
BLACK
6
CONTINUOUS
10
188.0999999999999943
20
-62.0187499999999972
11
188.1166509999999903
21
-61.9350379999999987
0
LINE
8
BLACK
6
CONTINUOUS
10
188.1166509999999903
20
-61.9350379999999987
11
188.1640699999999811
21
-61.8640699999999981
0
LINE
8
BLACK
6
CONTINUOUS
10
188.1640699999999811
20
-61.8640699999999981
11
188.235038000000003
21
-61.8166510000000002
0
LINE
8
BLACK
6
CONTINUOUS
10
188.235038000000003
20
-61.8166510000000002
11
188.3187499999999943
21
-61.7999999999999972
0
LINE
8
BLACK
6
CONTINUOUS
10
188.3187499999999943
20
-61.7999999999999972
11
189.0812499999999829
21
-61.7999999999999972
0
LINE
8
BLACK
6
CONTINUOUS
10
189.0812499999999829
20
-61.7999999999999972
11
189.1649620000000027
21
-61.8166510000000002
0
LINE
8
BLACK
6
CONTINUOUS
10
203.31496199999998
20
-61.5416509999999946
11
203.3859300000000019
21
-61.5890699999999995
0
LINE
8
BLACK
6
CONTINUOUS
10
203.3859300000000019
20
-61.5890699999999995
11
203.4333489999999927
21
-61.6600380000000001
0
LINE
8
BLACK
6
CONTINUOUS
10
203.4333489999999927
20
-61.6600380000000001
11
203.4499999999999886
21
-61.7437499999999986
0
LINE
8
BLACK
6
CONTINUOUS
10
203.4499999999999886
20
-61.7437499999999986
11
203.4499999999999886
21
-62.2562499999999943
0
LINE
8
BLACK
6
CONTINUOUS
10
203.4499999999999886
20
-62.2562499999999943
11
203.4333489999999927
21
-62.3399619999999999
0
LINE
8
BLACK
6
CONTINUOUS
10
203.4333489999999927
20
-62.3399619999999999
11
203.3859300000000019
21
-62.4109300000000005
0
LINE
8
BLACK
6
CONTINUOUS
10
203.3859300000000019
20
-62.4109300000000005
11
203.31496199999998
21
-62.4583489999999983
0
LINE
8
BLACK
6
CONTINUOUS
10
203.31496199999998
20
-62.4583489999999983
11
203.2312499999999886
21
-62.4749999999999943
0
LINE
8
BLACK
6
CONTINUOUS
10
203.2312499999999886
20
-62.4749999999999943
11
202.7937499999999886
21
-62.4749999999999943
0
LINE
8
BLACK
6
CONTINUOUS
10
202.7937499999999886
20
-62.4749999999999943
11
202.7100379999999973
21
-62.4583489999999983
0
LINE
8
BLACK
6
CONTINUOUS
10
202.7100379999999973
20
-62.4583489999999983
11
202.6390700000000038
21
-62.4109300000000005
0
LINE
8
BLACK
6
CONTINUOUS
10
202.6390700000000038
20
-62.4109300000000005
11
202.5916509999999846
21
-62.3399619999999999
0
LINE
8
BLACK
6
CONTINUOUS
10
202.5916509999999846
20
-62.3399619999999999
11
202.5749999999999886
21
-62.2562499999999943
0
LINE
8
BLACK
6
CONTINUOUS
10
202.5749999999999886
20
-62.2562499999999943
11
202.5749999999999886
21
-61.7437499999999986
0
LINE
8
BLACK
6
CONTINUOUS
10
202.5749999999999886
20
-61.7437499999999986
11
202.5916509999999846
21
-61.6600380000000001
0
LINE
8
BLACK
6
CONTINUOUS
10
202.5916509999999846
20
-61.6600380000000001
11
202.6390700000000038
21
-61.5890699999999995
0
LINE
8
BLACK
6
CONTINUOUS
10
202.6390700000000038
20
-61.5890699999999995
11
202.7100379999999973
21
-61.5416509999999946
0
LINE
8
BLACK
6
CONTINUOUS
10
202.7100379999999973
20
-61.5416509999999946
11
202.7937499999999886
21
-61.5249999999999986
0
LINE
8
BLACK
6
CONTINUOUS
10
202.7937499999999886
20
-61.5249999999999986
11
203.2312499999999886
21
-61.5249999999999986
0
LINE
8
BLACK
6
CONTINUOUS
10
203.2312499999999886
20
-61.5249999999999986
11
203.31496199999998
21
-61.5416509999999946
0
LINE
8
BLACK
6
CONTINUOUS
10
204.889961999999997
20
-61.5416509999999946
11
204.9609299999999905
21
-61.5890699999999995
0
LINE
8
BLACK
6
CONTINUOUS
10
204.9609299999999905
20
-61.5890699999999995
11
205.0083489999999813
21
-61.6600380000000001
0
LINE
8
BLACK
6
CONTINUOUS
10
205.0083489999999813
20
-61.6600380000000001
11
205.0249999999999773
21
-61.7437499999999986
0
LINE
8
BLACK
6
CONTINUOUS
10
205.0249999999999773
20
-61.7437499999999986
11
205.0249999999999773
21
-62.2562499999999943
0
LINE
8
BLACK
6
CONTINUOUS
10
205.0249999999999773
20
-62.2562499999999943
11
205.0083489999999813
21
-62.3399619999999999
0
LINE
8
BLACK
6
CONTINUOUS
10
205.0083489999999813
20
-62.3399619999999999
11
204.9609299999999905
21
-62.4109300000000005
0
LINE
8
BLACK
6
CONTINUOUS
10
204.9609299999999905
20
-62.4109300000000005
11
204.889961999999997
21
-62.4583489999999983
0
LINE
8
BLACK
6
CONTINUOUS
10
204.889961999999997
20
-62.4583489999999983
11
204.8062499999999773
21
-62.4749999999999943
0
LINE
8
BLACK
6
CONTINUOUS
10
204.8062499999999773
20
-62.4749999999999943
11
204.3687499999999773
21
-62.4749999999999943
0
LINE
8
BLACK
6
CONTINUOUS
10
204.3687499999999773
20
-62.4749999999999943
11
204.2850379999999859
21
-62.4583489999999983
0
LINE
8
BLACK
6
CONTINUOUS
10
204.2850379999999859
20
-62.4583489999999983
11
204.2140699999999924
21
-62.4109300000000005
0
LINE
8
BLACK
6
CONTINUOUS
10
204.2140699999999924
20
-62.4109300000000005
11
204.1666510000000017
21
-62.3399619999999999
0
LINE
8
BLACK
6
CONTINUOUS
10
204.1666510000000017
20
-62.3399619999999999
11
204.1499999999999773
21
-62.2562499999999943
0
LINE
8
BLACK
6
CONTINUOUS
10
204.1499999999999773
20
-62.2562499999999943
11
204.1499999999999773
21
-61.7437499999999986
0
LINE
8
BLACK
6
CONTINUOUS
10
204.1499999999999773
20
-61.7437499999999986
11
204.1666510000000017
21
-61.6600380000000001
0
LINE
8
BLACK
6
CONTINUOUS
10
204.1666510000000017
20
-61.6600380000000001
11
204.2140699999999924
21
-61.5890699999999995
0
LINE
8
BLACK
6
CONTINUOUS
10
204.2140699999999924
20
-61.5890699999999995
11
204.2850379999999859
21
-61.5416509999999946
0
LINE
8
BLACK
6
CONTINUOUS
10
204.2850379999999859
20
-61.5416509999999946
11
204.3687499999999773
21
-61.5249999999999986
0
LINE
8
BLACK
6
CONTINUOUS
10
204.3687499999999773
20
-61.5249999999999986
11
204.8062499999999773
21
-61.5249999999999986
0
LINE
8
BLACK
6
CONTINUOUS
10
204.8062499999999773
20
-61.5249999999999986
11
204.889961999999997
21
-61.5416509999999946
0
LINE
8
BLACK
6
CONTINUOUS
10
206.4515370000000019
20
-61.6902240000000006
11
206.5164209999999798
21
-61.7335789999999989
0
LINE
8
BLACK
6
CONTINUOUS
10
206.5164209999999798
20
-61.7335789999999989
11
206.5597759999999994
21
-61.7984629999999981
0
LINE
8
BLACK
6
CONTINUOUS
10
206.5597759999999994
20
-61.7984629999999981
11
206.5749999999999886
21
-61.875
0
LINE
8
BLACK
6
CONTINUOUS
10
206.5749999999999886
20
-61.875
11
206.5749999999999886
21
-62.2749999999999986
0
LINE
8
BLACK
6
CONTINUOUS
10
206.5749999999999886
20
-62.2749999999999986
11
206.5597759999999994
21
-62.3515370000000004
0
LINE
8
BLACK
6
CONTINUOUS
10
206.5597759999999994
20
-62.3515370000000004
11
206.5164209999999798
21
-62.4164209999999997
0
LINE
8
BLACK
6
CONTINUOUS
10
206.5164209999999798
20
-62.4164209999999997
11
206.4515370000000019
21
-62.459775999999998
0
LINE
8
BLACK
6
CONTINUOUS
10
206.4515370000000019
20
-62.459775999999998
11
206.375
21
-62.4749999999999943
0
LINE
8
BLACK
6
CONTINUOUS
10
206.375
20
-62.4749999999999943
11
205.8249999999999886
21
-62.4749999999999943
0
LINE
8
BLACK
6
CONTINUOUS
10
205.8249999999999886
20
-62.4749999999999943
11
205.7484629999999868
21
-62.459775999999998
0
LINE
8
BLACK
6
CONTINUOUS
10
205.7484629999999868
20
-62.459775999999998
11
205.6835789999999804
21
-62.4164209999999997
0
LINE
8
BLACK
6
CONTINUOUS
10
205.6835789999999804
20
-62.4164209999999997
11
205.6402239999999892
21
-62.3515370000000004
0
LINE
8
BLACK
6
CONTINUOUS
10
205.6402239999999892
20
-62.3515370000000004
11
205.625
21
-62.2749999999999986
0
LINE
8
BLACK
6
CONTINUOUS
10
205.625
20
-62.2749999999999986
11
205.625
21
-61.875
0
LINE
8
BLACK
6
CONTINUOUS
10
205.625
20
-61.875
11
205.6402239999999892
21
-61.7984629999999981
0
LINE
8
BLACK
6
CONTINUOUS
10
205.6402239999999892
20
-61.7984629999999981
11
205.6835789999999804
21
-61.7335789999999989
0
LINE
8
BLACK
6
CONTINUOUS
10
205.6835789999999804
20
-61.7335789999999989
11
205.7484629999999868
21
-61.6902240000000006
0
LINE
8
BLACK
6
CONTINUOUS
10
205.7484629999999868
20
-61.6902240000000006
11
205.8249999999999886
21
-61.6749999999999972
0
LINE
8
BLACK
6
CONTINUOUS
10
205.8249999999999886
20
-61.6749999999999972
11
206.375
21
-61.6749999999999972
0
LINE
8
BLACK
6
CONTINUOUS
10
206.375
20
-61.6749999999999972
11
206.4515370000000019
21
-61.6902240000000006
0
LINE
8
BLACK
6
CONTINUOUS
10
200.0515369999999962
20
-61.0402239999999949
11
200.1164210000000026
21
-61.0835790000000003
0
LINE
8
BLACK
6
CONTINUOUS
10
200.1164210000000026
20
-61.0835790000000003
11
200.1597759999999937
21
-61.1484629999999996
0
LINE
8
BLACK
6
CONTINUOUS
10
200.1597759999999937
20
-61.1484629999999996
11
200.1749999999999829
21
-61.2249999999999943
0
LINE
8
BLACK
6
CONTINUOUS
10
200.1749999999999829
20
-61.2249999999999943
11
200.1749999999999829
21
-61.7749999999999986
0
LINE
8
BLACK
6
CONTINUOUS
10
200.1749999999999829
20
-61.7749999999999986
11
200.1597759999999937
21
-61.8515370000000004
0
LINE
8
BLACK
6
CONTINUOUS
10
200.1597759999999937
20
-61.8515370000000004
11
200.1164210000000026
21
-61.9164209999999997
0
LINE
8
BLACK
6
CONTINUOUS
10
200.1164210000000026
20
-61.9164209999999997
11
200.0515369999999962
21
-61.959775999999998
0
LINE
8
BLACK
6
CONTINUOUS
10
200.0515369999999962
20
-61.959775999999998
11
199.9749999999999943
21
-61.9749999999999943
0
LINE
8
BLACK
6
CONTINUOUS
10
199.9749999999999943
20
-61.9749999999999943
11
199.5749999999999886
21
-61.9749999999999943
0
LINE
8
BLACK
6
CONTINUOUS
10
199.5749999999999886
20
-61.9749999999999943
11
199.4984629999999868
21
-61.959775999999998
0
LINE
8
BLACK
6
CONTINUOUS
10
199.4984629999999868
20
-61.959775999999998
11
199.4335789999999804
21
-61.9164209999999997
0
LINE
8
BLACK
6
CONTINUOUS
10
199.4335789999999804
20
-61.9164209999999997
11
199.3902239999999892
21
-61.8515370000000004
0
LINE
8
BLACK
6
CONTINUOUS
10
199.3902239999999892
20
-61.8515370000000004
11
199.375
21
-61.7749999999999986
0
LINE
8
BLACK
6
CONTINUOUS
10
199.375
20
-61.7749999999999986
11
199.375
21
-61.2249999999999943
0
LINE
8
BLACK
6
CONTINUOUS
10
199.375
20
-61.2249999999999943
11
199.3902239999999892
21
-61.1484629999999996
0
LINE
8
BLACK
6
CONTINUOUS
10
199.3902239999999892
20
-61.1484629999999996
11
199.4335789999999804
21
-61.0835790000000003
0
LINE
8
BLACK
6
CONTINUOUS
10
199.4335789999999804
20
-61.0835790000000003
11
199.4984629999999868
21
-61.0402239999999949
0
LINE
8
BLACK
6
CONTINUOUS
10
199.4984629999999868
20
-61.0402239999999949
11
199.5749999999999886
21
-61.0249999999999986
0
LINE
8
BLACK
6
CONTINUOUS
10
199.5749999999999886
20
-61.0249999999999986
11
199.9749999999999943
21
-61.0249999999999986
0
LINE
8
BLACK
6
CONTINUOUS
10
199.9749999999999943
20
-61.0249999999999986
11
200.0515369999999962
21
-61.0402239999999949
0
LINE
8
BLACK
6
CONTINUOUS
10
201.7015370000000019
20
-61.0402239999999949
11
201.7664209999999798
21
-61.0835790000000003
0
LINE
8
BLACK
6
CONTINUOUS
10
201.7664209999999798
20
-61.0835790000000003
11
201.8097759999999994
21
-61.1484629999999996
0
LINE
8
BLACK
6
CONTINUOUS
10
201.8097759999999994
20
-61.1484629999999996
11
201.8249999999999886
21
-61.2249999999999943
0
LINE
8
BLACK
6
CONTINUOUS
10
201.8249999999999886
20
-61.2249999999999943
11
201.8249999999999886
21
-61.7749999999999986
0
LINE
8
BLACK
6
CONTINUOUS
10
201.8249999999999886
20
-61.7749999999999986
11
201.8097759999999994
21
-61.8515370000000004
0
LINE
8
BLACK
6
CONTINUOUS
10
201.8097759999999994
20
-61.8515370000000004
11
201.7664209999999798
21
-61.9164209999999997
0
LINE
8
BLACK
6
CONTINUOUS
10
201.7664209999999798
20
-61.9164209999999997
11
201.7015370000000019
21
-61.959775999999998
0
LINE
8
BLACK
6
CONTINUOUS
10
201.7015370000000019
20
-61.959775999999998
11
201.625
21
-61.9749999999999943
0
LINE
8
BLACK
6
CONTINUOUS
10
201.625
20
-61.9749999999999943
11
201.2249999999999943
21
-61.9749999999999943
0
LINE
8
BLACK
6
CONTINUOUS
10
201.2249999999999943
20
-61.9749999999999943
11
201.1484629999999925
21
-61.959775999999998
0
LINE
8
BLACK
6
CONTINUOUS
10
201.1484629999999925
20
-61.959775999999998
11
201.0835789999999861
21
-61.9164209999999997
0
LINE
8
BLACK
6
CONTINUOUS
10
201.0835789999999861
20
-61.9164209999999997
11
201.0402239999999949
21
-61.8515370000000004
0
LINE
8
BLACK
6
CONTINUOUS
10
201.0402239999999949
20
-61.8515370000000004
11
201.0249999999999773
21
-61.7749999999999986
0
LINE
8
BLACK
6
CONTINUOUS
10
201.0249999999999773
20
-61.7749999999999986
11
201.0249999999999773
21
-61.2249999999999943
0
LINE
8
BLACK
6
CONTINUOUS
10
201.0249999999999773
20
-61.2249999999999943
11
201.0402239999999949
21
-61.1484629999999996
0
LINE
8
BLACK
6
CONTINUOUS
10
201.0402239999999949
20
-61.1484629999999996
11
201.0835789999999861
21
-61.0835790000000003
0
LINE
8
BLACK
6
CONTINUOUS
10
201.0835789999999861
20
-61.0835790000000003
11
201.1484629999999925
21
-61.0402239999999949
0
LINE
8
BLACK
6
CONTINUOUS
10
201.1484629999999925
20
-61.0402239999999949
11
201.2249999999999943
21
-61.0249999999999986
0
LINE
8
BLACK
6
CONTINUOUS
10
201.2249999999999943
20
-61.0249999999999986
11
201.625
21
-61.0249999999999986
0
LINE
8
BLACK
6
CONTINUOUS
10
201.625
20
-61.0249999999999986
11
201.7015370000000019
21
-61.0402239999999949
0
LINE
8
BLACK
6
CONTINUOUS
10
203.2515369999999848
20
-59.9402240000000006
11
203.3164209999999912
21
-59.9835789999999989
0
LINE
8
BLACK
6
CONTINUOUS
10
203.3164209999999912
20
-59.9835789999999989
11
203.3597759999999823
21
-60.0484629999999981
0
LINE
8
BLACK
6
CONTINUOUS
10
203.3597759999999823
20
-60.0484629999999981
11
203.375
21
-60.125
0
LINE
8
BLACK
6
CONTINUOUS
10
203.375
20
-60.125
11
203.375
21
-60.6749999999999972
0
LINE
8
BLACK
6
CONTINUOUS
10
203.375
20
-60.6749999999999972
11
203.3597759999999823
21
-60.751536999999999
0
LINE
8
BLACK
6
CONTINUOUS
10
203.3597759999999823
20
-60.751536999999999
11
203.3164209999999912
21
-60.8164209999999983
0
LINE
8
BLACK
6
CONTINUOUS
10
203.3164209999999912
20
-60.8164209999999983
11
203.2515369999999848
21
-60.8597759999999965
0
LINE
8
BLACK
6
CONTINUOUS
10
203.2515369999999848
20
-60.8597759999999965
11
203.1749999999999829
21
-60.875
0
LINE
8
BLACK
6
CONTINUOUS
10
203.1749999999999829
20
-60.875
11
202.7749999999999773
21
-60.875
0
LINE
8
BLACK
6
CONTINUOUS
10
202.7749999999999773
20
-60.875
11
202.6984630000000038
21
-60.8597759999999965
0
LINE
8
BLACK
6
CONTINUOUS
10
202.6984630000000038
20
-60.8597759999999965
11
202.6335789999999974
21
-60.8164209999999983
0
LINE
8
BLACK
6
CONTINUOUS
10
202.6335789999999974
20
-60.8164209999999983
11
202.5902239999999779
21
-60.751536999999999
0
LINE
8
BLACK
6
CONTINUOUS
10
202.5902239999999779
20
-60.751536999999999
11
202.5749999999999886
21
-60.6749999999999972
0
LINE
8
BLACK
6
CONTINUOUS
10
202.5749999999999886
20
-60.6749999999999972
11
202.5749999999999886
21
-60.125
0
LINE
8
BLACK
6
CONTINUOUS
10
202.5749999999999886
20
-60.125
11
202.5902239999999779
21
-60.0484629999999981
0
LINE
8
BLACK
6
CONTINUOUS
10
202.5902239999999779
20
-60.0484629999999981
11
202.6335789999999974
21
-59.9835789999999989
0
LINE
8
BLACK
6
CONTINUOUS
10
202.6335789999999974
20
-59.9835789999999989
11
202.6984630000000038
21
-59.9402240000000006
0
LINE
8
BLACK
6
CONTINUOUS
10
202.6984630000000038
20
-59.9402240000000006
11
202.7749999999999773
21
-59.9249999999999972
0
LINE
8
BLACK
6
CONTINUOUS
10
202.7749999999999773
20
-59.9249999999999972
11
203.1749999999999829
21
-59.9249999999999972
0
LINE
8
BLACK
6
CONTINUOUS
10
203.1749999999999829
20
-59.9249999999999972
11
203.2515369999999848
21
-59.9402240000000006
0
LINE
8
BLACK
6
CONTINUOUS
10
204.9015369999999905
20
-59.9402240000000006
11
204.9664209999999969
21
-59.9835789999999989
0
LINE
8
BLACK
6
CONTINUOUS
10
204.9664209999999969
20
-59.9835789999999989
11
205.009775999999988
21
-60.0484629999999981
0
LINE
8
BLACK
6
CONTINUOUS
10
205.009775999999988
20
-60.0484629999999981
11
205.0249999999999773
21
-60.125
0
LINE
8
BLACK
6
CONTINUOUS
10
205.0249999999999773
20
-60.125
11
205.0249999999999773
21
-60.6749999999999972
0
LINE
8
BLACK
6
CONTINUOUS
10
205.0249999999999773
20
-60.6749999999999972
11
205.009775999999988
21
-60.751536999999999
0
LINE
8
BLACK
6
CONTINUOUS
10
205.009775999999988
20
-60.751536999999999
11
204.9664209999999969
21
-60.8164209999999983
0
LINE
8
BLACK
6
CONTINUOUS
10
204.9664209999999969
20
-60.8164209999999983
11
204.9015369999999905
21
-60.8597759999999965
0
LINE
8
BLACK
6
CONTINUOUS
10
204.9015369999999905
20
-60.8597759999999965
11
204.8249999999999886
21
-60.875
0
LINE
8
BLACK
6
CONTINUOUS
10
204.8249999999999886
20
-60.875
11
204.4249999999999829
21
-60.875
0
LINE
8
BLACK
6
CONTINUOUS
10
204.4249999999999829
20
-60.875
11
204.3484629999999811
21
-60.8597759999999965
0
LINE
8
BLACK
6
CONTINUOUS
10
204.3484629999999811
20
-60.8597759999999965
11
204.2835790000000031
21
-60.8164209999999983
0
LINE
8
BLACK
6
CONTINUOUS
10
204.2835790000000031
20
-60.8164209999999983
11
204.2402239999999836
21
-60.751536999999999
0
LINE
8
BLACK
6
CONTINUOUS
10
204.2402239999999836
20
-60.751536999999999
11
204.2249999999999943
21
-60.6749999999999972
0
LINE
8
BLACK
6
CONTINUOUS
10
204.2249999999999943
20
-60.6749999999999972
11
204.2249999999999943
21
-60.125
0
LINE
8
BLACK
6
CONTINUOUS
10
204.2249999999999943
20
-60.125
11
204.2402239999999836
21
-60.0484629999999981
0
LINE
8
BLACK
6
CONTINUOUS
10
204.2402239999999836
20
-60.0484629999999981
11
204.2835790000000031
21
-59.9835789999999989
0
LINE
8
BLACK
6
CONTINUOUS
10
204.2835790000000031
20
-59.9835789999999989
11
204.3484629999999811
21
-59.9402240000000006
0
LINE
8
BLACK
6
CONTINUOUS
10
204.3484629999999811
20
-59.9402240000000006
11
204.4249999999999829
21
-59.9249999999999972
0
LINE
8
BLACK
6
CONTINUOUS
10
204.4249999999999829
20
-59.9249999999999972
11
204.8249999999999886
21
-59.9249999999999972
0
LINE
8
BLACK
6
CONTINUOUS
10
204.8249999999999886
20
-59.9249999999999972
11
204.9015369999999905
21
-59.9402240000000006
  0
ENDSEC
  0
EOF
